M48
; DRILL file {KiCad 7.0.7} date Mon Sep 25 22:52:52 2023
; FORMAT={-:-/ absolute / metric / decimal}
; #@! TF.CreationDate,2023-09-25T22:52:52-04:00
; #@! TF.GenerationSoftware,Kicad,Pcbnew,7.0.7
; #@! TF.FileFunction,NonPlated,1,2,NPTH
FMAT,2
METRIC
; #@! TA.AperFunction,NonPlated,NPTH,ComponentDrill
T1C0.500
; #@! TA.AperFunction,NonPlated,NPTH,ComponentDrill
T2C2.200
%
G90
G05
T1
X119.98Y-49.985
X119.98Y-51.235
X119.98Y-52.735
X119.98Y-54.223
X119.98Y-55.485
X122.98Y-49.985
X122.98Y-51.235
X122.98Y-52.735
X122.98Y-54.235
X122.98Y-55.485
X168.5Y-49.975
X168.5Y-51.225
X168.5Y-52.725
X168.5Y-54.213
X168.5Y-55.475
X171.5Y-49.975
X171.5Y-51.225
X171.5Y-52.725
X171.5Y-54.225
X171.5Y-55.475
T2
X90.509Y-45.212
X90.509Y-57.412
X111.509Y-45.212
X111.509Y-57.412
X125.659Y-65.2
X139.659Y-45.225
X139.659Y-134.225
X145.659Y-126.825
X151.659Y-45.225
X151.659Y-134.225
X165.659Y-65.2
X179.809Y-45.212
X179.809Y-57.412
X200.809Y-45.212
X200.809Y-57.412
T0
M30
