%TF.GenerationSoftware,KiCad,Pcbnew,7.0.7*%
%TF.CreationDate,2023-09-25T22:52:53-04:00*%
%TF.ProjectId,Matrix,4d617472-6978-42e6-9b69-6361645f7063,rev?*%
%TF.SameCoordinates,Original*%
%TF.FileFunction,Drillmap*%
%TF.FilePolarity,Positive*%
%FSLAX45Y45*%
G04 Gerber Fmt 4.5, Leading zero omitted, Abs format (unit mm)*
G04 Created by KiCad (PCBNEW 7.0.7) date 2023-09-25 22:52:53*
%MOMM*%
%LPD*%
G01*
G04 APERTURE LIST*
%ADD10C,0.100000*%
%ADD11C,0.200000*%
%ADD12C,0.040000*%
%ADD13C,0.075000*%
%ADD14C,0.080000*%
%ADD15C,0.090000*%
%ADD16C,0.095000*%
G04 APERTURE END LIST*
D10*
X16850000Y-15402500D02*
X16848000Y-5697000D01*
X17154000Y-4291000D02*
X20342099Y-4291000D01*
X12302000Y-4845000D02*
X12302000Y-4291000D01*
X11996000Y-5698000D02*
X11996000Y-6193000D01*
X12300000Y-5698000D02*
G75*
G03*
X11996000Y-5698000I-152000J0D01*
G01*
X12299000Y-15402500D02*
X16850000Y-15402500D01*
X12302000Y-4291000D02*
X16850000Y-4291000D01*
X8804899Y-6193000D02*
X8804899Y-4291000D01*
X12299000Y-15402500D02*
X12300000Y-5698000D01*
X17154000Y-4844000D02*
X17154000Y-4291000D01*
X20342099Y-4291000D02*
X20343099Y-6192700D01*
X8804899Y-4291000D02*
X11998000Y-4291000D01*
X16850000Y-4844000D02*
X16850000Y-4291000D01*
X16850000Y-4844000D02*
G75*
G03*
X17154000Y-4844000I152000J0D01*
G01*
X11998000Y-4845000D02*
G75*
G03*
X12302000Y-4845000I152000J0D01*
G01*
X17152000Y-5697000D02*
G75*
G03*
X16848000Y-5697000I-152000J0D01*
G01*
X17152000Y-5697000D02*
X17152000Y-6193000D01*
X20343099Y-6192700D02*
X17152000Y-6193000D01*
X11996000Y-6193000D02*
X8804899Y-6193000D01*
X11998000Y-4845000D02*
X11998000Y-4291000D01*
D11*
D12*
X10636920Y-4632080D02*
X10676920Y-4672080D01*
X10676920Y-4632080D02*
X10636920Y-4672080D01*
X12320000Y-11442500D02*
X12360000Y-11482500D01*
X12360000Y-11442500D02*
X12320000Y-11482500D01*
X12450000Y-12280000D02*
X12490000Y-12320000D01*
X12490000Y-12280000D02*
X12450000Y-12320000D01*
X12610000Y-8532500D02*
X12650000Y-8572500D01*
X12650000Y-8532500D02*
X12610000Y-8572500D01*
X12723000Y-14409000D02*
X12763000Y-14449000D01*
X12763000Y-14409000D02*
X12723000Y-14449000D01*
X12738000Y-8897000D02*
X12778000Y-8937000D01*
X12778000Y-8897000D02*
X12738000Y-8937000D01*
X12740000Y-13512500D02*
X12780000Y-13552500D01*
X12780000Y-13512500D02*
X12740000Y-13552500D01*
X12800000Y-7702500D02*
X12840000Y-7742500D01*
X12840000Y-7702500D02*
X12800000Y-7742500D01*
X12800000Y-8770000D02*
X12840000Y-8810000D01*
X12840000Y-8770000D02*
X12800000Y-8810000D01*
X12800000Y-12802500D02*
X12840000Y-12842500D01*
X12840000Y-12802500D02*
X12800000Y-12842500D01*
X12820000Y-13120000D02*
X12860000Y-13160000D01*
X12860000Y-13120000D02*
X12820000Y-13160000D01*
X12831000Y-9397000D02*
X12871000Y-9437000D01*
X12871000Y-9397000D02*
X12831000Y-9437000D01*
X12880000Y-11740000D02*
X12920000Y-11780000D01*
X12920000Y-11740000D02*
X12880000Y-11780000D01*
X12900000Y-11450000D02*
X12940000Y-11490000D01*
X12940000Y-11450000D02*
X12900000Y-11490000D01*
X12930000Y-8610000D02*
X12970000Y-8650000D01*
X12970000Y-8610000D02*
X12930000Y-8650000D01*
X12948200Y-8204300D02*
X12988200Y-8244300D01*
X12988200Y-8204300D02*
X12948200Y-8244300D01*
X13012550Y-11165497D02*
X13052550Y-11205496D01*
X13052550Y-11165497D02*
X13012550Y-11205496D01*
X13020000Y-12370000D02*
X13060000Y-12410000D01*
X13060000Y-12370000D02*
X13020000Y-12410000D01*
X13022550Y-11990000D02*
X13062550Y-12030000D01*
X13062550Y-11990000D02*
X13022550Y-12030000D01*
X13040000Y-14592500D02*
X13080000Y-14632500D01*
X13080000Y-14592500D02*
X13040000Y-14632500D01*
X13042013Y-8503187D02*
X13082013Y-8543187D01*
X13082013Y-8503187D02*
X13042013Y-8543187D01*
X13050000Y-13822500D02*
X13090000Y-13862500D01*
X13090000Y-13822500D02*
X13050000Y-13862500D01*
X13060000Y-13240000D02*
X13100000Y-13280000D01*
X13100000Y-13240000D02*
X13060000Y-13280000D01*
X13061691Y-12869455D02*
X13101691Y-12909455D01*
X13101691Y-12869455D02*
X13061691Y-12909455D01*
X13077550Y-10420050D02*
X13117550Y-10460050D01*
X13117550Y-10420050D02*
X13077550Y-10460050D01*
X13097450Y-8080000D02*
X13137450Y-8120000D01*
X13137450Y-8080000D02*
X13097450Y-8120000D01*
X13102550Y-11267619D02*
X13142550Y-11307619D01*
X13142550Y-11267619D02*
X13102550Y-11307619D01*
X13110000Y-12956955D02*
X13150000Y-12996955D01*
X13150000Y-12956955D02*
X13110000Y-12996955D01*
X13110230Y-9517770D02*
X13150230Y-9557770D01*
X13150230Y-9517770D02*
X13110230Y-9557770D01*
X13112000Y-13397000D02*
X13152000Y-13437000D01*
X13152000Y-13397000D02*
X13112000Y-13437000D01*
X13137000Y-9296000D02*
X13177000Y-9336000D01*
X13177000Y-9296000D02*
X13137000Y-9336000D01*
X13147550Y-10880000D02*
X13187550Y-10920000D01*
X13187550Y-10880000D02*
X13147550Y-10920000D01*
X13153000Y-9416000D02*
X13193000Y-9456000D01*
X13193000Y-9416000D02*
X13153000Y-9456000D01*
X13220000Y-12162500D02*
X13260000Y-12202500D01*
X13260000Y-12162500D02*
X13220000Y-12202500D01*
X13314552Y-9349145D02*
X13354552Y-9389145D01*
X13354552Y-9349145D02*
X13314552Y-9389145D01*
X13450000Y-14402500D02*
X13490000Y-14442500D01*
X13490000Y-14402500D02*
X13450000Y-14442500D01*
X13612450Y-10812500D02*
X13652450Y-10852500D01*
X13652450Y-10812500D02*
X13612450Y-10852500D01*
X13612450Y-11140000D02*
X13652450Y-11180000D01*
X13652450Y-11140000D02*
X13612450Y-11180000D01*
X13630000Y-7142800D02*
X13670000Y-7182800D01*
X13670000Y-7142800D02*
X13630000Y-7182800D01*
X13672450Y-9530050D02*
X13712450Y-9570050D01*
X13712450Y-9530050D02*
X13672450Y-9570050D01*
X13707550Y-10750000D02*
X13747550Y-10790000D01*
X13747550Y-10750000D02*
X13707550Y-10790000D01*
X13724000Y-13795000D02*
X13764000Y-13835000D01*
X13764000Y-13795000D02*
X13724000Y-13835000D01*
X13730000Y-12550000D02*
X13770000Y-12590000D01*
X13770000Y-12550000D02*
X13730000Y-12590000D01*
X13770000Y-11802500D02*
X13810000Y-11842500D01*
X13810000Y-11802500D02*
X13770000Y-11842500D01*
X13817550Y-7219000D02*
X13857550Y-7259000D01*
X13857550Y-7219000D02*
X13817550Y-7259000D01*
X13837000Y-8590000D02*
X13877000Y-8630000D01*
X13877000Y-8590000D02*
X13837000Y-8630000D01*
X13852450Y-10550000D02*
X13892450Y-10590000D01*
X13892450Y-10550000D02*
X13852450Y-10590000D01*
X13860000Y-10360000D02*
X13900000Y-10400000D01*
X13900000Y-10360000D02*
X13860000Y-10400000D01*
X13870000Y-11610000D02*
X13910000Y-11650000D01*
X13910000Y-11610000D02*
X13870000Y-11650000D01*
X13897550Y-10871500D02*
X13937550Y-10911500D01*
X13937550Y-10871500D02*
X13897550Y-10911500D01*
X13940000Y-12880000D02*
X13980000Y-12920000D01*
X13980000Y-12880000D02*
X13940000Y-12920000D01*
X13970000Y-10180000D02*
X14010000Y-10220000D01*
X14010000Y-10180000D02*
X13970000Y-10220000D01*
X13971964Y-7287750D02*
X14011964Y-7327750D01*
X14011964Y-7287750D02*
X13971964Y-7327750D01*
X14010000Y-14980000D02*
X14050000Y-15020000D01*
X14050000Y-14980000D02*
X14010000Y-15020000D01*
X14079000Y-7215250D02*
X14119000Y-7255250D01*
X14119000Y-7215250D02*
X14079000Y-7255250D01*
X14090000Y-9120000D02*
X14130000Y-9160000D01*
X14130000Y-9120000D02*
X14090000Y-9160000D01*
X14110000Y-11852500D02*
X14150000Y-11892500D01*
X14150000Y-11852500D02*
X14110000Y-11892500D01*
X14110000Y-14760000D02*
X14150000Y-14800000D01*
X14150000Y-14760000D02*
X14110000Y-14800000D01*
X14130000Y-9230000D02*
X14170000Y-9270000D01*
X14170000Y-9230000D02*
X14130000Y-9270000D01*
X14154020Y-9664020D02*
X14194020Y-9704020D01*
X14194020Y-9664020D02*
X14154020Y-9704020D01*
X14220000Y-10750000D02*
X14260000Y-10790000D01*
X14260000Y-10750000D02*
X14220000Y-10790000D01*
X14250000Y-14580000D02*
X14290000Y-14620000D01*
X14290000Y-14580000D02*
X14250000Y-14620000D01*
X14257550Y-9372500D02*
X14297550Y-9412500D01*
X14297550Y-9372500D02*
X14257550Y-9412500D01*
X14260000Y-13232500D02*
X14300000Y-13272500D01*
X14300000Y-13232500D02*
X14260000Y-13272500D01*
X14270000Y-10110000D02*
X14310000Y-10150000D01*
X14310000Y-10110000D02*
X14270000Y-10150000D01*
X14290000Y-5496000D02*
X14330000Y-5536000D01*
X14330000Y-5496000D02*
X14290000Y-5536000D01*
X14291401Y-6270000D02*
X14331401Y-6310000D01*
X14331401Y-6270000D02*
X14291401Y-6310000D01*
X14330758Y-9520050D02*
X14370758Y-9560050D01*
X14370758Y-9520050D02*
X14330758Y-9560050D01*
X14360000Y-10542500D02*
X14400000Y-10582500D01*
X14400000Y-10542500D02*
X14360000Y-10582500D01*
X14390000Y-7371400D02*
X14430000Y-7411400D01*
X14430000Y-7371400D02*
X14390000Y-7411400D01*
X14390000Y-14000000D02*
X14430000Y-14040000D01*
X14430000Y-14000000D02*
X14390000Y-14040000D01*
X14406680Y-13145819D02*
X14446680Y-13185819D01*
X14446680Y-13145819D02*
X14406680Y-13185819D01*
X14412000Y-11662000D02*
X14452000Y-11702000D01*
X14452000Y-11662000D02*
X14412000Y-11702000D01*
X14413848Y-7274337D02*
X14453848Y-7314337D01*
X14453848Y-7274337D02*
X14413848Y-7314337D01*
X14437550Y-9990000D02*
X14477550Y-10030000D01*
X14477550Y-9990000D02*
X14437550Y-10030000D01*
X14470000Y-10460000D02*
X14510000Y-10500000D01*
X14510000Y-10460000D02*
X14470000Y-10500000D01*
X14480000Y-9227550D02*
X14520000Y-9267550D01*
X14520000Y-9227550D02*
X14480000Y-9267550D01*
X14527000Y-12309000D02*
X14567000Y-12349000D01*
X14567000Y-12309000D02*
X14527000Y-12349000D01*
X14545401Y-5240000D02*
X14585401Y-5280000D01*
X14585401Y-5240000D02*
X14545401Y-5280000D01*
X14545401Y-6020000D02*
X14585401Y-6060000D01*
X14585401Y-6020000D02*
X14545401Y-6060000D01*
X14570000Y-9100000D02*
X14610000Y-9140000D01*
X14610000Y-9100000D02*
X14570000Y-9140000D01*
X14580000Y-8430000D02*
X14620000Y-8470000D01*
X14620000Y-8430000D02*
X14580000Y-8470000D01*
X14600000Y-9362550D02*
X14640000Y-9402550D01*
X14640000Y-9362550D02*
X14600000Y-9402550D01*
X14614000Y-11677000D02*
X14654000Y-11717000D01*
X14654000Y-11677000D02*
X14614000Y-11717000D01*
X14660000Y-10522500D02*
X14700000Y-10562500D01*
X14700000Y-10522500D02*
X14660000Y-10562500D01*
X14662000Y-14441000D02*
X14702000Y-14481000D01*
X14702000Y-14441000D02*
X14662000Y-14481000D01*
X14670000Y-14050000D02*
X14710000Y-14090000D01*
X14710000Y-14050000D02*
X14670000Y-14090000D01*
X14690000Y-7295200D02*
X14730000Y-7335200D01*
X14730000Y-7295200D02*
X14690000Y-7335200D01*
X14690000Y-7698500D02*
X14730000Y-7738500D01*
X14730000Y-7698500D02*
X14690000Y-7738500D01*
X14690000Y-9010000D02*
X14730000Y-9050000D01*
X14730000Y-9010000D02*
X14690000Y-9050000D01*
X14700000Y-9920000D02*
X14740000Y-9960000D01*
X14740000Y-9920000D02*
X14700000Y-9960000D01*
X14780000Y-8290000D02*
X14820000Y-8330000D01*
X14820000Y-8290000D02*
X14780000Y-8330000D01*
X14794950Y-9552450D02*
X14834950Y-9592450D01*
X14834950Y-9552450D02*
X14794950Y-9592450D01*
X14799401Y-6020000D02*
X14839401Y-6060000D01*
X14839401Y-6020000D02*
X14799401Y-6060000D01*
X14800000Y-4980000D02*
X14840000Y-5020000D01*
X14840000Y-4980000D02*
X14800000Y-5020000D01*
X14842000Y-13245000D02*
X14882000Y-13285000D01*
X14882000Y-13245000D02*
X14842000Y-13285000D01*
X14910000Y-10532500D02*
X14950000Y-10572500D01*
X14950000Y-10532500D02*
X14910000Y-10572500D01*
X14910000Y-12102500D02*
X14950000Y-12142500D01*
X14950000Y-12102500D02*
X14910000Y-12142500D01*
X14950000Y-8580000D02*
X14990000Y-8620000D01*
X14990000Y-8580000D02*
X14950000Y-8620000D01*
X14970000Y-7219000D02*
X15010000Y-7259000D01*
X15010000Y-7219000D02*
X14970000Y-7259000D01*
X15040000Y-11200000D02*
X15080000Y-11240000D01*
X15080000Y-11200000D02*
X15040000Y-11240000D01*
X15080000Y-11952500D02*
X15120000Y-11992500D01*
X15120000Y-11952500D02*
X15080000Y-11992500D01*
X15090000Y-9520000D02*
X15130000Y-9560000D01*
X15130000Y-9520000D02*
X15090000Y-9560000D01*
X15100000Y-9047450D02*
X15140000Y-9087450D01*
X15140000Y-9047450D02*
X15100000Y-9087450D01*
X15150000Y-13782500D02*
X15190000Y-13822500D01*
X15190000Y-13782500D02*
X15150000Y-13822500D01*
X15160000Y-10752500D02*
X15200000Y-10792500D01*
X15200000Y-10752500D02*
X15160000Y-10792500D01*
X15210000Y-9290000D02*
X15250000Y-9330000D01*
X15250000Y-9290000D02*
X15210000Y-9330000D01*
X15230000Y-12922500D02*
X15270000Y-12962500D01*
X15270000Y-12922500D02*
X15230000Y-12962500D01*
X15247000Y-11983000D02*
X15287000Y-12023000D01*
X15287000Y-11983000D02*
X15247000Y-12023000D01*
X15270000Y-11622500D02*
X15310000Y-11662500D01*
X15310000Y-11622500D02*
X15270000Y-11662500D01*
X15279000Y-10259000D02*
X15319000Y-10299000D01*
X15319000Y-10259000D02*
X15279000Y-10299000D01*
X15280000Y-9080000D02*
X15320000Y-9120000D01*
X15320000Y-9080000D02*
X15280000Y-9120000D01*
X15300000Y-10542500D02*
X15340000Y-10582500D01*
X15340000Y-10542500D02*
X15300000Y-10582500D01*
X15300000Y-13050000D02*
X15340000Y-13090000D01*
X15340000Y-13050000D02*
X15300000Y-13090000D01*
X15349000Y-8945000D02*
X15389000Y-8985000D01*
X15389000Y-8945000D02*
X15349000Y-8985000D01*
X15397550Y-8160000D02*
X15437550Y-8200000D01*
X15437550Y-8160000D02*
X15397550Y-8200000D01*
X15397550Y-9222500D02*
X15437550Y-9262500D01*
X15437550Y-9222500D02*
X15397550Y-9262500D01*
X15397550Y-9617550D02*
X15437550Y-9657550D01*
X15437550Y-9617550D02*
X15397550Y-9657550D01*
X15440000Y-7219000D02*
X15480000Y-7259000D01*
X15480000Y-7219000D02*
X15440000Y-7259000D01*
X15442550Y-9802500D02*
X15482550Y-9842500D01*
X15482550Y-9802500D02*
X15442550Y-9842500D01*
X15542450Y-7295200D02*
X15582450Y-7335200D01*
X15582450Y-7295200D02*
X15542450Y-7335200D01*
X15640000Y-7360000D02*
X15680000Y-7400000D01*
X15680000Y-7360000D02*
X15640000Y-7400000D01*
X15710000Y-13232500D02*
X15750000Y-13272500D01*
X15750000Y-13232500D02*
X15710000Y-13272500D01*
X15790000Y-6812600D02*
X15830000Y-6852600D01*
X15830000Y-6812600D02*
X15790000Y-6852600D01*
X15840000Y-14702500D02*
X15880000Y-14742500D01*
X15880000Y-14702500D02*
X15840000Y-14742500D01*
X15879000Y-12081500D02*
X15919000Y-12121500D01*
X15919000Y-12081500D02*
X15879000Y-12121500D01*
X15890000Y-14392500D02*
X15930000Y-14432500D01*
X15930000Y-14392500D02*
X15890000Y-14432500D01*
X15929950Y-11390000D02*
X15969950Y-11430000D01*
X15969950Y-11390000D02*
X15929950Y-11430000D01*
X15930000Y-10292500D02*
X15970000Y-10332500D01*
X15970000Y-10292500D02*
X15930000Y-10332500D01*
X15940000Y-11870000D02*
X15980000Y-11910000D01*
X15980000Y-11870000D02*
X15940000Y-11910000D01*
X15972000Y-11152000D02*
X16012000Y-11192000D01*
X16012000Y-11152000D02*
X15972000Y-11192000D01*
X15989000Y-10598000D02*
X16029000Y-10638000D01*
X16029000Y-10598000D02*
X15989000Y-10638000D01*
X15990000Y-13402500D02*
X16030000Y-13442500D01*
X16030000Y-13402500D02*
X15990000Y-13442500D01*
X16002450Y-8460500D02*
X16042450Y-8500500D01*
X16042450Y-8460500D02*
X16002450Y-8500500D01*
X16002450Y-9862500D02*
X16042450Y-9902500D01*
X16042450Y-9862500D02*
X16002450Y-9902500D01*
X16010000Y-14500000D02*
X16050000Y-14540000D01*
X16050000Y-14500000D02*
X16010000Y-14540000D01*
X16047550Y-6050000D02*
X16087550Y-6090000D01*
X16087550Y-6050000D02*
X16047550Y-6090000D01*
X16066000Y-9268000D02*
X16106000Y-9308000D01*
X16106000Y-9268000D02*
X16066000Y-9308000D01*
X16085000Y-8751000D02*
X16125000Y-8791000D01*
X16125000Y-8751000D02*
X16085000Y-8791000D01*
X16135050Y-8582500D02*
X16175050Y-8622500D01*
X16175050Y-8582500D02*
X16135050Y-8622500D01*
X16160000Y-13040000D02*
X16200000Y-13080000D01*
X16200000Y-13040000D02*
X16160000Y-13080000D01*
X16180000Y-8892500D02*
X16220000Y-8932500D01*
X16220000Y-8892500D02*
X16180000Y-8932500D01*
X16212450Y-9712500D02*
X16252450Y-9752500D01*
X16252450Y-9712500D02*
X16212450Y-9752500D01*
X16220000Y-9412500D02*
X16260000Y-9452500D01*
X16260000Y-9412500D02*
X16220000Y-9452500D01*
X16280000Y-8452500D02*
X16320000Y-8492500D01*
X16320000Y-8452500D02*
X16280000Y-8492500D01*
X16300000Y-11160000D02*
X16340000Y-11200000D01*
X16340000Y-11160000D02*
X16300000Y-11200000D01*
X16320000Y-9632500D02*
X16360000Y-9672500D01*
X16360000Y-9632500D02*
X16320000Y-9672500D01*
X16362455Y-13662495D02*
X16402455Y-13702495D01*
X16402455Y-13662495D02*
X16362455Y-13702495D01*
X16390000Y-8962500D02*
X16430000Y-9002500D01*
X16430000Y-8962500D02*
X16390000Y-9002500D01*
X16560000Y-13602500D02*
X16600000Y-13642500D01*
X16600000Y-13602500D02*
X16560000Y-13642500D01*
X16590000Y-10640000D02*
X16630000Y-10680000D01*
X16630000Y-10640000D02*
X16590000Y-10680000D01*
X16730000Y-8922500D02*
X16770000Y-8962500D01*
X16770000Y-8922500D02*
X16730000Y-8962500D01*
X17856400Y-5006000D02*
X17896400Y-5046000D01*
X17896400Y-5006000D02*
X17856400Y-5046000D01*
X18157096Y-4707096D02*
X18197096Y-4747096D01*
X18197096Y-4707096D02*
X18157096Y-4747096D01*
X18362869Y-5387470D02*
X18402869Y-5427470D01*
X18402869Y-5387470D02*
X18362869Y-5427470D01*
D13*
X12550500Y-9629500D02*
G75*
G03*
X12550500Y-9629500I-37500J0D01*
G01*
X12677500Y-9502500D02*
G75*
G03*
X12677500Y-9502500I-37500J0D01*
G01*
X12804500Y-9629500D02*
G75*
G03*
X12804500Y-9629500I-37500J0D01*
G01*
X12927500Y-10260000D02*
G75*
G03*
X12927500Y-10260000I-37500J0D01*
G01*
X12927500Y-10460000D02*
G75*
G03*
X12927500Y-10460000I-37500J0D01*
G01*
X12927500Y-10660000D02*
G75*
G03*
X12927500Y-10660000I-37500J0D01*
G01*
X12927500Y-10860000D02*
G75*
G03*
X12927500Y-10860000I-37500J0D01*
G01*
X12927500Y-11060000D02*
G75*
G03*
X12927500Y-11060000I-37500J0D01*
G01*
X13233500Y-13142500D02*
G75*
G03*
X13233500Y-13142500I-37500J0D01*
G01*
X13233500Y-13662500D02*
G75*
G03*
X13233500Y-13662500I-37500J0D01*
G01*
X13233500Y-14179500D02*
G75*
G03*
X13233500Y-14179500I-37500J0D01*
G01*
X13360500Y-13015500D02*
G75*
G03*
X13360500Y-13015500I-37500J0D01*
G01*
X13360500Y-13535500D02*
G75*
G03*
X13360500Y-13535500I-37500J0D01*
G01*
X13360500Y-14052500D02*
G75*
G03*
X13360500Y-14052500I-37500J0D01*
G01*
X13487500Y-13142500D02*
G75*
G03*
X13487500Y-13142500I-37500J0D01*
G01*
X13487500Y-13662500D02*
G75*
G03*
X13487500Y-13662500I-37500J0D01*
G01*
X13487500Y-14179500D02*
G75*
G03*
X13487500Y-14179500I-37500J0D01*
G01*
X15737500Y-13688500D02*
G75*
G03*
X15737500Y-13688500I-37500J0D01*
G01*
X15737500Y-14202500D02*
G75*
G03*
X15737500Y-14202500I-37500J0D01*
G01*
X15864500Y-13561500D02*
G75*
G03*
X15864500Y-13561500I-37500J0D01*
G01*
X15864500Y-14075500D02*
G75*
G03*
X15864500Y-14075500I-37500J0D01*
G01*
X15991500Y-13688500D02*
G75*
G03*
X15991500Y-13688500I-37500J0D01*
G01*
X15991500Y-14202500D02*
G75*
G03*
X15991500Y-14202500I-37500J0D01*
G01*
X16420500Y-9279500D02*
G75*
G03*
X16420500Y-9279500I-37500J0D01*
G01*
X16547500Y-9152500D02*
G75*
G03*
X16547500Y-9152500I-37500J0D01*
G01*
X16674500Y-9279500D02*
G75*
G03*
X16674500Y-9279500I-37500J0D01*
G01*
D14*
X12450000Y-7010000D02*
X12450000Y-7090000D01*
X12410000Y-7050000D02*
X12490000Y-7050000D01*
X12450000Y-8810000D02*
X12450000Y-8890000D01*
X12410000Y-8850000D02*
X12490000Y-8850000D01*
X12690000Y-8352500D02*
X12690000Y-8432500D01*
X12650000Y-8392500D02*
X12730000Y-8392500D01*
X12690000Y-9114500D02*
X12690000Y-9194500D01*
X12650000Y-9154500D02*
X12730000Y-9154500D01*
X12950000Y-8352500D02*
X12950000Y-8432500D01*
X12910000Y-8392500D02*
X12990000Y-8392500D01*
X12950000Y-9114500D02*
X12950000Y-9194500D01*
X12910000Y-9154500D02*
X12990000Y-9154500D01*
X13174000Y-12642500D02*
X13174000Y-12722500D01*
X13134000Y-12682500D02*
X13214000Y-12682500D01*
X13238000Y-4960000D02*
X13238000Y-5040000D01*
X13198000Y-5000000D02*
X13278000Y-5000000D01*
X13238000Y-5220000D02*
X13238000Y-5300000D01*
X13198000Y-5260000D02*
X13278000Y-5260000D01*
X13238000Y-5480000D02*
X13238000Y-5560000D01*
X13198000Y-5520000D02*
X13278000Y-5520000D01*
X13238000Y-5740000D02*
X13238000Y-5820000D01*
X13198000Y-5780000D02*
X13278000Y-5780000D01*
X13238000Y-6000000D02*
X13238000Y-6080000D01*
X13198000Y-6040000D02*
X13278000Y-6040000D01*
X13238000Y-6260000D02*
X13238000Y-6340000D01*
X13198000Y-6300000D02*
X13278000Y-6300000D01*
X13620000Y-4530000D02*
X13620000Y-4610000D01*
X13580000Y-4570000D02*
X13660000Y-4570000D01*
X13620000Y-6330000D02*
X13620000Y-6410000D01*
X13580000Y-6370000D02*
X13660000Y-6370000D01*
X13704000Y-12972500D02*
X13704000Y-13052500D01*
X13664000Y-13012500D02*
X13744000Y-13012500D01*
X13790000Y-8776500D02*
X13790000Y-8856500D01*
X13750000Y-8816500D02*
X13830000Y-8816500D01*
X13790000Y-9792500D02*
X13790000Y-9872500D01*
X13750000Y-9832500D02*
X13830000Y-9832500D01*
X13790000Y-10042500D02*
X13790000Y-10122500D01*
X13750000Y-10082500D02*
X13830000Y-10082500D01*
X13790000Y-11058500D02*
X13790000Y-11138500D01*
X13750000Y-11098500D02*
X13830000Y-11098500D01*
X13790000Y-11312500D02*
X13790000Y-11392500D01*
X13750000Y-11352500D02*
X13830000Y-11352500D01*
X13790000Y-12328500D02*
X13790000Y-12408500D01*
X13750000Y-12368500D02*
X13830000Y-12368500D01*
X14000000Y-4960000D02*
X14000000Y-5040000D01*
X13960000Y-5000000D02*
X14040000Y-5000000D01*
X14000000Y-5220000D02*
X14000000Y-5300000D01*
X13960000Y-5260000D02*
X14040000Y-5260000D01*
X14000000Y-5480000D02*
X14000000Y-5560000D01*
X13960000Y-5520000D02*
X14040000Y-5520000D01*
X14000000Y-5740000D02*
X14000000Y-5820000D01*
X13960000Y-5780000D02*
X14040000Y-5780000D01*
X14000000Y-6000000D02*
X14000000Y-6080000D01*
X13960000Y-6040000D02*
X14040000Y-6040000D01*
X14000000Y-6260000D02*
X14000000Y-6340000D01*
X13960000Y-6300000D02*
X14040000Y-6300000D01*
X14130000Y-8774500D02*
X14130000Y-8854500D01*
X14090000Y-8814500D02*
X14170000Y-8814500D01*
X14130000Y-9790500D02*
X14130000Y-9870500D01*
X14090000Y-9830500D02*
X14170000Y-9830500D01*
X14130000Y-10042500D02*
X14130000Y-10122500D01*
X14090000Y-10082500D02*
X14170000Y-10082500D01*
X14130000Y-11058500D02*
X14130000Y-11138500D01*
X14090000Y-11098500D02*
X14170000Y-11098500D01*
X14130000Y-11312500D02*
X14130000Y-11392500D01*
X14090000Y-11352500D02*
X14170000Y-11352500D01*
X14130000Y-12328500D02*
X14130000Y-12408500D01*
X14090000Y-12368500D02*
X14170000Y-12368500D01*
X14190000Y-12642500D02*
X14190000Y-12722500D01*
X14150000Y-12682500D02*
X14230000Y-12682500D01*
X14370000Y-7992500D02*
X14370000Y-8072500D01*
X14330000Y-8032500D02*
X14410000Y-8032500D01*
X14370000Y-9792500D02*
X14370000Y-9872500D01*
X14330000Y-9832500D02*
X14410000Y-9832500D01*
X14400000Y-10290000D02*
X14400000Y-10370000D01*
X14360000Y-10330000D02*
X14440000Y-10330000D01*
X14400000Y-11052000D02*
X14400000Y-11132000D01*
X14360000Y-11092000D02*
X14440000Y-11092000D01*
X14400000Y-11309000D02*
X14400000Y-11389000D01*
X14360000Y-11349000D02*
X14440000Y-11349000D01*
X14400000Y-12071000D02*
X14400000Y-12151000D01*
X14360000Y-12111000D02*
X14440000Y-12111000D01*
X14580000Y-8774500D02*
X14580000Y-8854500D01*
X14540000Y-8814500D02*
X14620000Y-8814500D01*
X14580000Y-9790500D02*
X14580000Y-9870500D01*
X14540000Y-9830500D02*
X14620000Y-9830500D01*
X14660000Y-10290000D02*
X14660000Y-10370000D01*
X14620000Y-10330000D02*
X14700000Y-10330000D01*
X14660000Y-11052000D02*
X14660000Y-11132000D01*
X14620000Y-11092000D02*
X14700000Y-11092000D01*
X14660000Y-11309000D02*
X14660000Y-11389000D01*
X14620000Y-11349000D02*
X14700000Y-11349000D01*
X14660000Y-12071000D02*
X14660000Y-12151000D01*
X14620000Y-12111000D02*
X14700000Y-12111000D01*
X14720000Y-12972500D02*
X14720000Y-13052500D01*
X14680000Y-13012500D02*
X14760000Y-13012500D01*
X14930000Y-8772500D02*
X14930000Y-8852500D01*
X14890000Y-8812500D02*
X14970000Y-8812500D01*
X14930000Y-9788500D02*
X14930000Y-9868500D01*
X14890000Y-9828500D02*
X14970000Y-9828500D01*
X14930000Y-10032500D02*
X14930000Y-10112500D01*
X14890000Y-10072500D02*
X14970000Y-10072500D01*
X14930000Y-11048500D02*
X14930000Y-11128500D01*
X14890000Y-11088500D02*
X14970000Y-11088500D01*
X14930000Y-11304500D02*
X14930000Y-11384500D01*
X14890000Y-11344500D02*
X14970000Y-11344500D01*
X14930000Y-12320500D02*
X14930000Y-12400500D01*
X14890000Y-12360500D02*
X14970000Y-12360500D01*
X14934000Y-12652500D02*
X14934000Y-12732500D01*
X14894000Y-12692500D02*
X14974000Y-12692500D01*
X14934000Y-12972500D02*
X14934000Y-13052500D01*
X14894000Y-13012500D02*
X14974000Y-13012500D01*
X15128000Y-4960000D02*
X15128000Y-5040000D01*
X15088000Y-5000000D02*
X15168000Y-5000000D01*
X15128000Y-5220000D02*
X15128000Y-5300000D01*
X15088000Y-5260000D02*
X15168000Y-5260000D01*
X15128000Y-5480000D02*
X15128000Y-5560000D01*
X15088000Y-5520000D02*
X15168000Y-5520000D01*
X15128000Y-5740000D02*
X15128000Y-5820000D01*
X15088000Y-5780000D02*
X15168000Y-5780000D01*
X15128000Y-6000000D02*
X15128000Y-6080000D01*
X15088000Y-6040000D02*
X15168000Y-6040000D01*
X15130000Y-6260000D02*
X15130000Y-6340000D01*
X15090000Y-6300000D02*
X15170000Y-6300000D01*
X15280000Y-8766500D02*
X15280000Y-8846500D01*
X15240000Y-8806500D02*
X15320000Y-8806500D01*
X15280000Y-9782500D02*
X15280000Y-9862500D01*
X15240000Y-9822500D02*
X15320000Y-9822500D01*
X15280000Y-10036500D02*
X15280000Y-10116500D01*
X15240000Y-10076500D02*
X15320000Y-10076500D01*
X15280000Y-11052500D02*
X15280000Y-11132500D01*
X15240000Y-11092500D02*
X15320000Y-11092500D01*
X15280000Y-11302500D02*
X15280000Y-11382500D01*
X15240000Y-11342500D02*
X15320000Y-11342500D01*
X15280000Y-12318500D02*
X15280000Y-12398500D01*
X15240000Y-12358500D02*
X15320000Y-12358500D01*
X15510000Y-4530000D02*
X15510000Y-4610000D01*
X15470000Y-4570000D02*
X15550000Y-4570000D01*
X15510000Y-6330000D02*
X15510000Y-6410000D01*
X15470000Y-6370000D02*
X15550000Y-6370000D01*
X15890000Y-4960000D02*
X15890000Y-5040000D01*
X15850000Y-5000000D02*
X15930000Y-5000000D01*
X15890000Y-5220000D02*
X15890000Y-5300000D01*
X15850000Y-5260000D02*
X15930000Y-5260000D01*
X15890000Y-5480000D02*
X15890000Y-5560000D01*
X15850000Y-5520000D02*
X15930000Y-5520000D01*
X15890000Y-5740000D02*
X15890000Y-5820000D01*
X15850000Y-5780000D02*
X15930000Y-5780000D01*
X15890000Y-6000000D02*
X15890000Y-6080000D01*
X15850000Y-6040000D02*
X15930000Y-6040000D01*
X15892000Y-6260000D02*
X15892000Y-6340000D01*
X15852000Y-6300000D02*
X15932000Y-6300000D01*
X15950000Y-12652500D02*
X15950000Y-12732500D01*
X15910000Y-12692500D02*
X15990000Y-12692500D01*
X15950000Y-12972500D02*
X15950000Y-13052500D01*
X15910000Y-13012500D02*
X15990000Y-13012500D01*
X16340000Y-7972500D02*
X16340000Y-8052500D01*
X16300000Y-8012500D02*
X16380000Y-8012500D01*
X16340000Y-8734500D02*
X16340000Y-8814500D01*
X16300000Y-8774500D02*
X16380000Y-8774500D01*
X16600000Y-7972500D02*
X16600000Y-8052500D01*
X16560000Y-8012500D02*
X16640000Y-8012500D01*
X16600000Y-8734500D02*
X16600000Y-8814500D01*
X16560000Y-8774500D02*
X16640000Y-8774500D01*
D15*
X9247820Y-5170520D02*
X9247820Y-5106880D01*
X9184180Y-5106880D01*
X9184180Y-5170520D01*
X9247820Y-5170520D01*
X9501820Y-5170520D02*
X9501820Y-5106880D01*
X9438180Y-5106880D01*
X9438180Y-5170520D01*
X9501820Y-5170520D01*
X10008721Y-4550520D02*
X10008721Y-4486880D01*
X9945081Y-4486880D01*
X9945081Y-4550520D01*
X10008721Y-4550520D01*
X10008721Y-5810520D02*
X10008721Y-5746880D01*
X9945081Y-5746880D01*
X9945081Y-5810520D01*
X10008721Y-5810520D01*
X10262721Y-4550520D02*
X10262721Y-4486880D01*
X10199081Y-4486880D01*
X10199081Y-4550520D01*
X10262721Y-4550520D01*
X10262721Y-5810520D02*
X10262721Y-5746880D01*
X10199081Y-5746880D01*
X10199081Y-5810520D01*
X10262721Y-5810520D01*
X10783820Y-5170520D02*
X10783820Y-5106880D01*
X10720180Y-5106880D01*
X10720180Y-5170520D01*
X10783820Y-5170520D01*
X11037820Y-5170520D02*
X11037820Y-5106880D01*
X10974180Y-5106880D01*
X10974180Y-5170520D01*
X11037820Y-5170520D01*
X13709320Y-14176820D02*
X13709320Y-14113180D01*
X13645680Y-14113180D01*
X13645680Y-14176820D01*
X13709320Y-14176820D01*
X13963320Y-14176820D02*
X13963320Y-14113180D01*
X13899680Y-14113180D01*
X13899680Y-14176820D01*
X13963320Y-14176820D01*
X14470221Y-13556820D02*
X14470221Y-13493180D01*
X14406581Y-13493180D01*
X14406581Y-13556820D01*
X14470221Y-13556820D01*
X14470221Y-14816820D02*
X14470221Y-14753180D01*
X14406581Y-14753180D01*
X14406581Y-14816820D01*
X14470221Y-14816820D01*
X14724221Y-13556820D02*
X14724221Y-13493180D01*
X14660581Y-13493180D01*
X14660581Y-13556820D01*
X14724221Y-13556820D01*
X14724221Y-14816820D02*
X14724221Y-14753180D01*
X14660581Y-14753180D01*
X14660581Y-14816820D01*
X14724221Y-14816820D01*
X15245320Y-14176820D02*
X15245320Y-14113180D01*
X15181680Y-14113180D01*
X15181680Y-14176820D01*
X15245320Y-14176820D01*
X15499320Y-14176820D02*
X15499320Y-14113180D01*
X15435680Y-14113180D01*
X15435680Y-14176820D01*
X15499320Y-14176820D01*
X18171370Y-5163020D02*
X18171370Y-5099380D01*
X18107729Y-5099380D01*
X18107729Y-5163020D01*
X18171370Y-5163020D01*
X18425370Y-5163020D02*
X18425370Y-5099380D01*
X18361729Y-5099380D01*
X18361729Y-5163020D01*
X18425370Y-5163020D01*
X18932271Y-4543020D02*
X18932271Y-4479380D01*
X18868630Y-4479380D01*
X18868630Y-4543020D01*
X18932271Y-4543020D01*
X18932271Y-5803020D02*
X18932271Y-5739380D01*
X18868630Y-5739380D01*
X18868630Y-5803020D01*
X18932271Y-5803020D01*
X19186271Y-4543020D02*
X19186271Y-4479380D01*
X19122630Y-4479380D01*
X19122630Y-4543020D01*
X19186271Y-4543020D01*
X19186271Y-5803020D02*
X19186271Y-5739380D01*
X19122630Y-5739380D01*
X19122630Y-5803020D01*
X19186271Y-5803020D01*
X19707370Y-5163020D02*
X19707370Y-5099380D01*
X19643729Y-5099380D01*
X19643729Y-5163020D01*
X19707370Y-5163020D01*
X19961370Y-5163020D02*
X19961370Y-5099380D01*
X19897729Y-5099380D01*
X19897729Y-5163020D01*
X19961370Y-5163020D01*
D16*
X12650000Y-10200000D02*
X12697500Y-10152500D01*
X12650000Y-10105000D01*
X12602500Y-10152500D01*
X12650000Y-10200000D01*
X12650000Y-10450000D02*
X12697500Y-10402500D01*
X12650000Y-10355000D01*
X12602500Y-10402500D01*
X12650000Y-10450000D01*
X12650000Y-10700000D02*
X12697500Y-10652500D01*
X12650000Y-10605000D01*
X12602500Y-10652500D01*
X12650000Y-10700000D01*
X12650000Y-10950000D02*
X12697500Y-10902500D01*
X12650000Y-10855000D01*
X12602500Y-10902500D01*
X12650000Y-10950000D01*
X12650000Y-11200000D02*
X12697500Y-11152500D01*
X12650000Y-11105000D01*
X12602500Y-11152500D01*
X12650000Y-11200000D01*
X12650000Y-11850000D02*
X12697500Y-11802500D01*
X12650000Y-11755000D01*
X12602500Y-11802500D01*
X12650000Y-11850000D01*
X12650000Y-12100000D02*
X12697500Y-12052500D01*
X12650000Y-12005000D01*
X12602500Y-12052500D01*
X12650000Y-12100000D01*
X12650000Y-12350000D02*
X12697500Y-12302500D01*
X12650000Y-12255000D01*
X12602500Y-12302500D01*
X12650000Y-12350000D01*
X16500000Y-9850000D02*
X16547500Y-9802500D01*
X16500000Y-9755000D01*
X16452500Y-9802500D01*
X16500000Y-9850000D01*
X16500000Y-10100000D02*
X16547500Y-10052500D01*
X16500000Y-10005000D01*
X16452500Y-10052500D01*
X16500000Y-10100000D01*
X16500000Y-10350000D02*
X16547500Y-10302500D01*
X16500000Y-10255000D01*
X16452500Y-10302500D01*
X16500000Y-10350000D01*
X16500000Y-11900000D02*
X16547500Y-11852500D01*
X16500000Y-11805000D01*
X16452500Y-11852500D01*
X16500000Y-11900000D01*
X16500000Y-12150000D02*
X16547500Y-12102500D01*
X16500000Y-12055000D01*
X16452500Y-12102500D01*
X16500000Y-12150000D01*
X16500000Y-12400000D02*
X16547500Y-12352500D01*
X16500000Y-12305000D01*
X16452500Y-12352500D01*
X16500000Y-12400000D01*
D10*
X9677675Y-4842450D02*
X9777675Y-4942450D01*
X9777675Y-4842450D02*
X9677675Y-4942450D01*
X9777675Y-4892450D02*
G75*
G03*
X9777675Y-4892450I-50000J0D01*
G01*
X9677675Y-5096450D02*
X9777675Y-5196450D01*
X9777675Y-5096450D02*
X9677675Y-5196450D01*
X9777675Y-5146450D02*
G75*
G03*
X9777675Y-5146450I-50000J0D01*
G01*
X9677675Y-5350450D02*
X9777675Y-5450450D01*
X9777675Y-5350450D02*
X9677675Y-5450450D01*
X9777675Y-5400450D02*
G75*
G03*
X9777675Y-5400450I-50000J0D01*
G01*
X10439675Y-4842450D02*
X10539675Y-4942450D01*
X10539675Y-4842450D02*
X10439675Y-4942450D01*
X10539675Y-4892450D02*
G75*
G03*
X10539675Y-4892450I-50000J0D01*
G01*
X10439675Y-5096450D02*
X10539675Y-5196450D01*
X10539675Y-5096450D02*
X10439675Y-5196450D01*
X10539675Y-5146450D02*
G75*
G03*
X10539675Y-5146450I-50000J0D01*
G01*
X10439675Y-5350450D02*
X10539675Y-5450450D01*
X10539675Y-5350450D02*
X10439675Y-5450450D01*
X10539675Y-5400450D02*
G75*
G03*
X10539675Y-5400450I-50000J0D01*
G01*
X11565901Y-4451000D02*
X11665901Y-4551000D01*
X11665901Y-4451000D02*
X11565901Y-4551000D01*
X11665901Y-4501000D02*
G75*
G03*
X11665901Y-4501000I-50000J0D01*
G01*
X11565901Y-4705000D02*
X11665901Y-4805000D01*
X11665901Y-4705000D02*
X11565901Y-4805000D01*
X11665901Y-4755000D02*
G75*
G03*
X11665901Y-4755000I-50000J0D01*
G01*
X11565901Y-4959000D02*
X11665901Y-5059000D01*
X11665901Y-4959000D02*
X11565901Y-5059000D01*
X11665901Y-5009000D02*
G75*
G03*
X11665901Y-5009000I-50000J0D01*
G01*
X11565901Y-5213000D02*
X11665901Y-5313000D01*
X11665901Y-5213000D02*
X11565901Y-5313000D01*
X11665901Y-5263000D02*
G75*
G03*
X11665901Y-5263000I-50000J0D01*
G01*
X11565901Y-5467000D02*
X11665901Y-5567000D01*
X11665901Y-5467000D02*
X11565901Y-5567000D01*
X11665901Y-5517000D02*
G75*
G03*
X11665901Y-5517000I-50000J0D01*
G01*
X11565901Y-5721000D02*
X11665901Y-5821000D01*
X11665901Y-5721000D02*
X11565901Y-5821000D01*
X11665901Y-5771000D02*
G75*
G03*
X11665901Y-5771000I-50000J0D01*
G01*
X11565901Y-5975000D02*
X11665901Y-6075000D01*
X11665901Y-5975000D02*
X11565901Y-6075000D01*
X11665901Y-6025000D02*
G75*
G03*
X11665901Y-6025000I-50000J0D01*
G01*
X12597500Y-13827500D02*
X12697500Y-13927500D01*
X12697500Y-13827500D02*
X12597500Y-13927500D01*
X12697500Y-13877500D02*
G75*
G03*
X12697500Y-13877500I-50000J0D01*
G01*
X12597500Y-14077500D02*
X12697500Y-14177500D01*
X12697500Y-14077500D02*
X12597500Y-14177500D01*
X12697500Y-14127500D02*
G75*
G03*
X12697500Y-14127500I-50000J0D01*
G01*
X12597500Y-14752500D02*
X12697500Y-14852500D01*
X12697500Y-14752500D02*
X12597500Y-14852500D01*
X12697500Y-14802500D02*
G75*
G03*
X12697500Y-14802500I-50000J0D01*
G01*
X12597500Y-15002500D02*
X12697500Y-15102500D01*
X12697500Y-15002500D02*
X12597500Y-15102500D01*
X12697500Y-15052500D02*
G75*
G03*
X12697500Y-15052500I-50000J0D01*
G01*
X12600000Y-12902500D02*
X12700000Y-13002500D01*
X12700000Y-12902500D02*
X12600000Y-13002500D01*
X12700000Y-12952500D02*
G75*
G03*
X12700000Y-12952500I-50000J0D01*
G01*
X12600000Y-13152500D02*
X12700000Y-13252500D01*
X12700000Y-13152500D02*
X12600000Y-13252500D01*
X12700000Y-13202500D02*
G75*
G03*
X12700000Y-13202500I-50000J0D01*
G01*
X12762901Y-4451000D02*
X12862901Y-4551000D01*
X12862901Y-4451000D02*
X12762901Y-4551000D01*
X12862901Y-4501000D02*
G75*
G03*
X12862901Y-4501000I-50000J0D01*
G01*
X12762901Y-4705000D02*
X12862901Y-4805000D01*
X12862901Y-4705000D02*
X12762901Y-4805000D01*
X12862901Y-4755000D02*
G75*
G03*
X12862901Y-4755000I-50000J0D01*
G01*
X12762901Y-4959000D02*
X12862901Y-5059000D01*
X12862901Y-4959000D02*
X12762901Y-5059000D01*
X12862901Y-5009000D02*
G75*
G03*
X12862901Y-5009000I-50000J0D01*
G01*
X12762901Y-5213000D02*
X12862901Y-5313000D01*
X12862901Y-5213000D02*
X12762901Y-5313000D01*
X12862901Y-5263000D02*
G75*
G03*
X12862901Y-5263000I-50000J0D01*
G01*
X12762901Y-5467000D02*
X12862901Y-5567000D01*
X12862901Y-5467000D02*
X12762901Y-5567000D01*
X12862901Y-5517000D02*
G75*
G03*
X12862901Y-5517000I-50000J0D01*
G01*
X12762901Y-5721000D02*
X12862901Y-5821000D01*
X12862901Y-5721000D02*
X12762901Y-5821000D01*
X12862901Y-5771000D02*
G75*
G03*
X12862901Y-5771000I-50000J0D01*
G01*
X12762901Y-5975000D02*
X12862901Y-6075000D01*
X12862901Y-5975000D02*
X12762901Y-6075000D01*
X12862901Y-6025000D02*
G75*
G03*
X12862901Y-6025000I-50000J0D01*
G01*
X13328401Y-15002500D02*
X13428401Y-15102500D01*
X13428401Y-15002500D02*
X13328401Y-15102500D01*
X13428401Y-15052500D02*
G75*
G03*
X13428401Y-15052500I-50000J0D01*
G01*
X13375000Y-7668500D02*
X13475000Y-7768500D01*
X13475000Y-7668500D02*
X13375000Y-7768500D01*
X13475000Y-7718500D02*
G75*
G03*
X13475000Y-7718500I-50000J0D01*
G01*
X13375000Y-7922500D02*
X13475000Y-8022500D01*
X13475000Y-7922500D02*
X13375000Y-8022500D01*
X13475000Y-7972500D02*
G75*
G03*
X13475000Y-7972500I-50000J0D01*
G01*
X13375000Y-8176500D02*
X13475000Y-8276500D01*
X13475000Y-8176500D02*
X13375000Y-8276500D01*
X13475000Y-8226500D02*
G75*
G03*
X13475000Y-8226500I-50000J0D01*
G01*
X13375000Y-8430500D02*
X13475000Y-8530500D01*
X13475000Y-8430500D02*
X13375000Y-8530500D01*
X13475000Y-8480500D02*
G75*
G03*
X13475000Y-8480500I-50000J0D01*
G01*
X13375000Y-8684500D02*
X13475000Y-8784500D01*
X13475000Y-8684500D02*
X13375000Y-8784500D01*
X13475000Y-8734500D02*
G75*
G03*
X13475000Y-8734500I-50000J0D01*
G01*
X13375000Y-8938500D02*
X13475000Y-9038500D01*
X13475000Y-8938500D02*
X13375000Y-9038500D01*
X13475000Y-8988500D02*
G75*
G03*
X13475000Y-8988500I-50000J0D01*
G01*
X13375000Y-9192500D02*
X13475000Y-9292500D01*
X13475000Y-9192500D02*
X13375000Y-9292500D01*
X13475000Y-9242500D02*
G75*
G03*
X13475000Y-9242500I-50000J0D01*
G01*
X13375000Y-9446500D02*
X13475000Y-9546500D01*
X13475000Y-9446500D02*
X13375000Y-9546500D01*
X13475000Y-9496500D02*
G75*
G03*
X13475000Y-9496500I-50000J0D01*
G01*
X13375000Y-9700500D02*
X13475000Y-9800500D01*
X13475000Y-9700500D02*
X13375000Y-9800500D01*
X13475000Y-9750500D02*
G75*
G03*
X13475000Y-9750500I-50000J0D01*
G01*
X13375000Y-9954500D02*
X13475000Y-10054500D01*
X13475000Y-9954500D02*
X13375000Y-10054500D01*
X13475000Y-10004500D02*
G75*
G03*
X13475000Y-10004500I-50000J0D01*
G01*
X13375000Y-10208500D02*
X13475000Y-10308500D01*
X13475000Y-10208500D02*
X13375000Y-10308500D01*
X13475000Y-10258500D02*
G75*
G03*
X13475000Y-10258500I-50000J0D01*
G01*
X13375000Y-10462500D02*
X13475000Y-10562500D01*
X13475000Y-10462500D02*
X13375000Y-10562500D01*
X13475000Y-10512500D02*
G75*
G03*
X13475000Y-10512500I-50000J0D01*
G01*
X13375000Y-10716500D02*
X13475000Y-10816500D01*
X13475000Y-10716500D02*
X13375000Y-10816500D01*
X13475000Y-10766500D02*
G75*
G03*
X13475000Y-10766500I-50000J0D01*
G01*
X13375000Y-10970500D02*
X13475000Y-11070500D01*
X13475000Y-10970500D02*
X13375000Y-11070500D01*
X13475000Y-11020500D02*
G75*
G03*
X13475000Y-11020500I-50000J0D01*
G01*
X13375000Y-11224500D02*
X13475000Y-11324500D01*
X13475000Y-11224500D02*
X13375000Y-11324500D01*
X13475000Y-11274500D02*
G75*
G03*
X13475000Y-11274500I-50000J0D01*
G01*
X13375000Y-11478500D02*
X13475000Y-11578500D01*
X13475000Y-11478500D02*
X13375000Y-11578500D01*
X13475000Y-11528500D02*
G75*
G03*
X13475000Y-11528500I-50000J0D01*
G01*
X13375000Y-11732500D02*
X13475000Y-11832500D01*
X13475000Y-11732500D02*
X13375000Y-11832500D01*
X13475000Y-11782500D02*
G75*
G03*
X13475000Y-11782500I-50000J0D01*
G01*
X13375000Y-11986500D02*
X13475000Y-12086500D01*
X13475000Y-11986500D02*
X13375000Y-12086500D01*
X13475000Y-12036500D02*
G75*
G03*
X13475000Y-12036500I-50000J0D01*
G01*
X13375000Y-12240500D02*
X13475000Y-12340500D01*
X13475000Y-12240500D02*
X13375000Y-12340500D01*
X13475000Y-12290500D02*
G75*
G03*
X13475000Y-12290500I-50000J0D01*
G01*
X13578401Y-15002500D02*
X13678401Y-15102500D01*
X13678401Y-15002500D02*
X13578401Y-15102500D01*
X13678401Y-15052500D02*
G75*
G03*
X13678401Y-15052500I-50000J0D01*
G01*
X13625401Y-6650000D02*
X13725401Y-6750000D01*
X13725401Y-6650000D02*
X13625401Y-6750000D01*
X13725401Y-6700000D02*
G75*
G03*
X13725401Y-6700000I-50000J0D01*
G01*
X13879401Y-6650000D02*
X13979401Y-6750000D01*
X13979401Y-6650000D02*
X13879401Y-6750000D01*
X13979401Y-6700000D02*
G75*
G03*
X13979401Y-6700000I-50000J0D01*
G01*
X14007401Y-6950000D02*
X14107401Y-7050000D01*
X14107401Y-6950000D02*
X14007401Y-7050000D01*
X14107401Y-7000000D02*
G75*
G03*
X14107401Y-7000000I-50000J0D01*
G01*
X14133401Y-6650000D02*
X14233401Y-6750000D01*
X14233401Y-6650000D02*
X14133401Y-6750000D01*
X14233401Y-6700000D02*
G75*
G03*
X14233401Y-6700000I-50000J0D01*
G01*
X14142651Y-13848750D02*
X14242651Y-13948750D01*
X14242651Y-13848750D02*
X14142651Y-13948750D01*
X14242651Y-13898750D02*
G75*
G03*
X14242651Y-13898750I-50000J0D01*
G01*
X14142651Y-14102750D02*
X14242651Y-14202750D01*
X14242651Y-14102750D02*
X14142651Y-14202750D01*
X14242651Y-14152750D02*
G75*
G03*
X14242651Y-14152750I-50000J0D01*
G01*
X14142651Y-14356750D02*
X14242651Y-14456750D01*
X14242651Y-14356750D02*
X14142651Y-14456750D01*
X14242651Y-14406750D02*
G75*
G03*
X14242651Y-14406750I-50000J0D01*
G01*
X14261401Y-6950000D02*
X14361401Y-7050000D01*
X14361401Y-6950000D02*
X14261401Y-7050000D01*
X14361401Y-7000000D02*
G75*
G03*
X14361401Y-7000000I-50000J0D01*
G01*
X14383000Y-15003750D02*
X14483000Y-15103750D01*
X14483000Y-15003750D02*
X14383000Y-15103750D01*
X14483000Y-15053750D02*
G75*
G03*
X14483000Y-15053750I-50000J0D01*
G01*
X14387401Y-6650000D02*
X14487401Y-6750000D01*
X14487401Y-6650000D02*
X14387401Y-6750000D01*
X14487401Y-6700000D02*
G75*
G03*
X14487401Y-6700000I-50000J0D01*
G01*
X14515401Y-6950000D02*
X14615401Y-7050000D01*
X14615401Y-6950000D02*
X14515401Y-7050000D01*
X14615401Y-7000000D02*
G75*
G03*
X14615401Y-7000000I-50000J0D01*
G01*
X14633000Y-15003750D02*
X14733000Y-15103750D01*
X14733000Y-15003750D02*
X14633000Y-15103750D01*
X14733000Y-15053750D02*
G75*
G03*
X14733000Y-15053750I-50000J0D01*
G01*
X14641401Y-6650000D02*
X14741401Y-6750000D01*
X14741401Y-6650000D02*
X14641401Y-6750000D01*
X14741401Y-6700000D02*
G75*
G03*
X14741401Y-6700000I-50000J0D01*
G01*
X14769401Y-6950000D02*
X14869401Y-7050000D01*
X14869401Y-6950000D02*
X14769401Y-7050000D01*
X14869401Y-7000000D02*
G75*
G03*
X14869401Y-7000000I-50000J0D01*
G01*
X14895401Y-6650000D02*
X14995401Y-6750000D01*
X14995401Y-6650000D02*
X14895401Y-6750000D01*
X14995401Y-6700000D02*
G75*
G03*
X14995401Y-6700000I-50000J0D01*
G01*
X14904651Y-13848750D02*
X15004651Y-13948750D01*
X15004651Y-13848750D02*
X14904651Y-13948750D01*
X15004651Y-13898750D02*
G75*
G03*
X15004651Y-13898750I-50000J0D01*
G01*
X14904651Y-14102750D02*
X15004651Y-14202750D01*
X15004651Y-14102750D02*
X14904651Y-14202750D01*
X15004651Y-14152750D02*
G75*
G03*
X15004651Y-14152750I-50000J0D01*
G01*
X14904651Y-14356750D02*
X15004651Y-14456750D01*
X15004651Y-14356750D02*
X14904651Y-14456750D01*
X15004651Y-14406750D02*
G75*
G03*
X15004651Y-14406750I-50000J0D01*
G01*
X15023401Y-6950000D02*
X15123401Y-7050000D01*
X15123401Y-6950000D02*
X15023401Y-7050000D01*
X15123401Y-7000000D02*
G75*
G03*
X15123401Y-7000000I-50000J0D01*
G01*
X15149401Y-6650000D02*
X15249401Y-6750000D01*
X15249401Y-6650000D02*
X15149401Y-6750000D01*
X15249401Y-6700000D02*
G75*
G03*
X15249401Y-6700000I-50000J0D01*
G01*
X15403401Y-6650000D02*
X15503401Y-6750000D01*
X15503401Y-6650000D02*
X15403401Y-6750000D01*
X15503401Y-6700000D02*
G75*
G03*
X15503401Y-6700000I-50000J0D01*
G01*
X15453401Y-15005000D02*
X15553401Y-15105000D01*
X15553401Y-15005000D02*
X15453401Y-15105000D01*
X15553401Y-15055000D02*
G75*
G03*
X15553401Y-15055000I-50000J0D01*
G01*
X15660000Y-7668500D02*
X15760000Y-7768500D01*
X15760000Y-7668500D02*
X15660000Y-7768500D01*
X15760000Y-7718500D02*
G75*
G03*
X15760000Y-7718500I-50000J0D01*
G01*
X15660000Y-7922500D02*
X15760000Y-8022500D01*
X15760000Y-7922500D02*
X15660000Y-8022500D01*
X15760000Y-7972500D02*
G75*
G03*
X15760000Y-7972500I-50000J0D01*
G01*
X15660000Y-8176500D02*
X15760000Y-8276500D01*
X15760000Y-8176500D02*
X15660000Y-8276500D01*
X15760000Y-8226500D02*
G75*
G03*
X15760000Y-8226500I-50000J0D01*
G01*
X15660000Y-8430500D02*
X15760000Y-8530500D01*
X15760000Y-8430500D02*
X15660000Y-8530500D01*
X15760000Y-8480500D02*
G75*
G03*
X15760000Y-8480500I-50000J0D01*
G01*
X15660000Y-8684500D02*
X15760000Y-8784500D01*
X15760000Y-8684500D02*
X15660000Y-8784500D01*
X15760000Y-8734500D02*
G75*
G03*
X15760000Y-8734500I-50000J0D01*
G01*
X15660000Y-8938500D02*
X15760000Y-9038500D01*
X15760000Y-8938500D02*
X15660000Y-9038500D01*
X15760000Y-8988500D02*
G75*
G03*
X15760000Y-8988500I-50000J0D01*
G01*
X15660000Y-9192500D02*
X15760000Y-9292500D01*
X15760000Y-9192500D02*
X15660000Y-9292500D01*
X15760000Y-9242500D02*
G75*
G03*
X15760000Y-9242500I-50000J0D01*
G01*
X15660000Y-9446500D02*
X15760000Y-9546500D01*
X15760000Y-9446500D02*
X15660000Y-9546500D01*
X15760000Y-9496500D02*
G75*
G03*
X15760000Y-9496500I-50000J0D01*
G01*
X15660000Y-9700500D02*
X15760000Y-9800500D01*
X15760000Y-9700500D02*
X15660000Y-9800500D01*
X15760000Y-9750500D02*
G75*
G03*
X15760000Y-9750500I-50000J0D01*
G01*
X15660000Y-9954500D02*
X15760000Y-10054500D01*
X15760000Y-9954500D02*
X15660000Y-10054500D01*
X15760000Y-10004500D02*
G75*
G03*
X15760000Y-10004500I-50000J0D01*
G01*
X15660000Y-10208500D02*
X15760000Y-10308500D01*
X15760000Y-10208500D02*
X15660000Y-10308500D01*
X15760000Y-10258500D02*
G75*
G03*
X15760000Y-10258500I-50000J0D01*
G01*
X15660000Y-10462500D02*
X15760000Y-10562500D01*
X15760000Y-10462500D02*
X15660000Y-10562500D01*
X15760000Y-10512500D02*
G75*
G03*
X15760000Y-10512500I-50000J0D01*
G01*
X15660000Y-10716500D02*
X15760000Y-10816500D01*
X15760000Y-10716500D02*
X15660000Y-10816500D01*
X15760000Y-10766500D02*
G75*
G03*
X15760000Y-10766500I-50000J0D01*
G01*
X15660000Y-10970500D02*
X15760000Y-11070500D01*
X15760000Y-10970500D02*
X15660000Y-11070500D01*
X15760000Y-11020500D02*
G75*
G03*
X15760000Y-11020500I-50000J0D01*
G01*
X15660000Y-11224500D02*
X15760000Y-11324500D01*
X15760000Y-11224500D02*
X15660000Y-11324500D01*
X15760000Y-11274500D02*
G75*
G03*
X15760000Y-11274500I-50000J0D01*
G01*
X15660000Y-11478500D02*
X15760000Y-11578500D01*
X15760000Y-11478500D02*
X15660000Y-11578500D01*
X15760000Y-11528500D02*
G75*
G03*
X15760000Y-11528500I-50000J0D01*
G01*
X15660000Y-11732500D02*
X15760000Y-11832500D01*
X15760000Y-11732500D02*
X15660000Y-11832500D01*
X15760000Y-11782500D02*
G75*
G03*
X15760000Y-11782500I-50000J0D01*
G01*
X15660000Y-11986500D02*
X15760000Y-12086500D01*
X15760000Y-11986500D02*
X15660000Y-12086500D01*
X15760000Y-12036500D02*
G75*
G03*
X15760000Y-12036500I-50000J0D01*
G01*
X15660000Y-12240500D02*
X15760000Y-12340500D01*
X15760000Y-12240500D02*
X15660000Y-12340500D01*
X15760000Y-12290500D02*
G75*
G03*
X15760000Y-12290500I-50000J0D01*
G01*
X15703401Y-15005000D02*
X15803401Y-15105000D01*
X15803401Y-15005000D02*
X15703401Y-15105000D01*
X15803401Y-15055000D02*
G75*
G03*
X15803401Y-15055000I-50000J0D01*
G01*
X16268901Y-4450000D02*
X16368901Y-4550000D01*
X16368901Y-4450000D02*
X16268901Y-4550000D01*
X16368901Y-4500000D02*
G75*
G03*
X16368901Y-4500000I-50000J0D01*
G01*
X16268901Y-4704000D02*
X16368901Y-4804000D01*
X16368901Y-4704000D02*
X16268901Y-4804000D01*
X16368901Y-4754000D02*
G75*
G03*
X16368901Y-4754000I-50000J0D01*
G01*
X16268901Y-4958000D02*
X16368901Y-5058000D01*
X16368901Y-4958000D02*
X16268901Y-5058000D01*
X16368901Y-5008000D02*
G75*
G03*
X16368901Y-5008000I-50000J0D01*
G01*
X16268901Y-5212000D02*
X16368901Y-5312000D01*
X16368901Y-5212000D02*
X16268901Y-5312000D01*
X16368901Y-5262000D02*
G75*
G03*
X16368901Y-5262000I-50000J0D01*
G01*
X16268901Y-5466000D02*
X16368901Y-5566000D01*
X16368901Y-5466000D02*
X16268901Y-5566000D01*
X16368901Y-5516000D02*
G75*
G03*
X16368901Y-5516000I-50000J0D01*
G01*
X16268901Y-5720000D02*
X16368901Y-5820000D01*
X16368901Y-5720000D02*
X16268901Y-5820000D01*
X16368901Y-5770000D02*
G75*
G03*
X16368901Y-5770000I-50000J0D01*
G01*
X16268901Y-5974000D02*
X16368901Y-6074000D01*
X16368901Y-5974000D02*
X16268901Y-6074000D01*
X16368901Y-6024000D02*
G75*
G03*
X16368901Y-6024000I-50000J0D01*
G01*
X16450000Y-10902500D02*
X16550000Y-11002500D01*
X16550000Y-10902500D02*
X16450000Y-11002500D01*
X16550000Y-10952500D02*
G75*
G03*
X16550000Y-10952500I-50000J0D01*
G01*
X16450000Y-11152500D02*
X16550000Y-11252500D01*
X16550000Y-11152500D02*
X16450000Y-11252500D01*
X16550000Y-11202500D02*
G75*
G03*
X16550000Y-11202500I-50000J0D01*
G01*
X16450000Y-12952500D02*
X16550000Y-13052500D01*
X16550000Y-12952500D02*
X16450000Y-13052500D01*
X16550000Y-13002500D02*
G75*
G03*
X16550000Y-13002500I-50000J0D01*
G01*
X16450000Y-13202500D02*
X16550000Y-13302500D01*
X16550000Y-13202500D02*
X16450000Y-13302500D01*
X16550000Y-13252500D02*
G75*
G03*
X16550000Y-13252500I-50000J0D01*
G01*
X16450000Y-13852500D02*
X16550000Y-13952500D01*
X16550000Y-13852500D02*
X16450000Y-13952500D01*
X16550000Y-13902500D02*
G75*
G03*
X16550000Y-13902500I-50000J0D01*
G01*
X16450000Y-14102500D02*
X16550000Y-14202500D01*
X16550000Y-14102500D02*
X16450000Y-14202500D01*
X16550000Y-14152500D02*
G75*
G03*
X16550000Y-14152500I-50000J0D01*
G01*
X16450000Y-14752500D02*
X16550000Y-14852500D01*
X16550000Y-14752500D02*
X16450000Y-14852500D01*
X16550000Y-14802500D02*
G75*
G03*
X16550000Y-14802500I-50000J0D01*
G01*
X16450000Y-15002500D02*
X16550000Y-15102500D01*
X16550000Y-15002500D02*
X16450000Y-15102500D01*
X16550000Y-15052500D02*
G75*
G03*
X16550000Y-15052500I-50000J0D01*
G01*
X17465901Y-4450000D02*
X17565901Y-4550000D01*
X17565901Y-4450000D02*
X17465901Y-4550000D01*
X17565901Y-4500000D02*
G75*
G03*
X17565901Y-4500000I-50000J0D01*
G01*
X17465901Y-4704000D02*
X17565901Y-4804000D01*
X17565901Y-4704000D02*
X17465901Y-4804000D01*
X17565901Y-4754000D02*
G75*
G03*
X17565901Y-4754000I-50000J0D01*
G01*
X17465901Y-4958000D02*
X17565901Y-5058000D01*
X17565901Y-4958000D02*
X17465901Y-5058000D01*
X17565901Y-5008000D02*
G75*
G03*
X17565901Y-5008000I-50000J0D01*
G01*
X17465901Y-5212000D02*
X17565901Y-5312000D01*
X17565901Y-5212000D02*
X17465901Y-5312000D01*
X17565901Y-5262000D02*
G75*
G03*
X17565901Y-5262000I-50000J0D01*
G01*
X17465901Y-5466000D02*
X17565901Y-5566000D01*
X17565901Y-5466000D02*
X17465901Y-5566000D01*
X17565901Y-5516000D02*
G75*
G03*
X17565901Y-5516000I-50000J0D01*
G01*
X17465901Y-5720000D02*
X17565901Y-5820000D01*
X17565901Y-5720000D02*
X17465901Y-5820000D01*
X17565901Y-5770000D02*
G75*
G03*
X17565901Y-5770000I-50000J0D01*
G01*
X17465901Y-5974000D02*
X17565901Y-6074000D01*
X17565901Y-5974000D02*
X17465901Y-6074000D01*
X17565901Y-6024000D02*
G75*
G03*
X17565901Y-6024000I-50000J0D01*
G01*
X18607627Y-4834950D02*
X18707627Y-4934950D01*
X18707627Y-4834950D02*
X18607627Y-4934950D01*
X18707627Y-4884950D02*
G75*
G03*
X18707627Y-4884950I-50000J0D01*
G01*
X18607627Y-5088950D02*
X18707627Y-5188950D01*
X18707627Y-5088950D02*
X18607627Y-5188950D01*
X18707627Y-5138950D02*
G75*
G03*
X18707627Y-5138950I-50000J0D01*
G01*
X18607627Y-5342950D02*
X18707627Y-5442950D01*
X18707627Y-5342950D02*
X18607627Y-5442950D01*
X18707627Y-5392950D02*
G75*
G03*
X18707627Y-5392950I-50000J0D01*
G01*
X19369627Y-4834950D02*
X19469627Y-4934950D01*
X19469627Y-4834950D02*
X19369627Y-4934950D01*
X19469627Y-4884950D02*
G75*
G03*
X19469627Y-4884950I-50000J0D01*
G01*
X19369627Y-5088950D02*
X19469627Y-5188950D01*
X19469627Y-5088950D02*
X19369627Y-5188950D01*
X19469627Y-5138950D02*
G75*
G03*
X19469627Y-5138950I-50000J0D01*
G01*
X19369627Y-5342950D02*
X19469627Y-5442950D01*
X19469627Y-5342950D02*
X19369627Y-5442950D01*
X19469627Y-5392950D02*
G75*
G03*
X19469627Y-5392950I-50000J0D01*
G01*
D11*
X9060676Y-15718984D02*
X9060676Y-15518984D01*
X9060676Y-15518984D02*
X9108295Y-15518984D01*
X9108295Y-15518984D02*
X9136866Y-15528508D01*
X9136866Y-15528508D02*
X9155914Y-15547555D01*
X9155914Y-15547555D02*
X9165438Y-15566603D01*
X9165438Y-15566603D02*
X9174961Y-15604698D01*
X9174961Y-15604698D02*
X9174961Y-15633269D01*
X9174961Y-15633269D02*
X9165438Y-15671365D01*
X9165438Y-15671365D02*
X9155914Y-15690412D01*
X9155914Y-15690412D02*
X9136866Y-15709460D01*
X9136866Y-15709460D02*
X9108295Y-15718984D01*
X9108295Y-15718984D02*
X9060676Y-15718984D01*
X9260676Y-15718984D02*
X9260676Y-15585650D01*
X9260676Y-15623746D02*
X9270200Y-15604698D01*
X9270200Y-15604698D02*
X9279723Y-15595174D01*
X9279723Y-15595174D02*
X9298771Y-15585650D01*
X9298771Y-15585650D02*
X9317819Y-15585650D01*
X9384485Y-15718984D02*
X9384485Y-15585650D01*
X9384485Y-15518984D02*
X9374961Y-15528508D01*
X9374961Y-15528508D02*
X9384485Y-15538031D01*
X9384485Y-15538031D02*
X9394009Y-15528508D01*
X9394009Y-15528508D02*
X9384485Y-15518984D01*
X9384485Y-15518984D02*
X9384485Y-15538031D01*
X9508295Y-15718984D02*
X9489247Y-15709460D01*
X9489247Y-15709460D02*
X9479723Y-15690412D01*
X9479723Y-15690412D02*
X9479723Y-15518984D01*
X9613057Y-15718984D02*
X9594009Y-15709460D01*
X9594009Y-15709460D02*
X9584485Y-15690412D01*
X9584485Y-15690412D02*
X9584485Y-15518984D01*
X9841628Y-15718984D02*
X9841628Y-15518984D01*
X9841628Y-15518984D02*
X9908295Y-15661841D01*
X9908295Y-15661841D02*
X9974961Y-15518984D01*
X9974961Y-15518984D02*
X9974961Y-15718984D01*
X10155914Y-15718984D02*
X10155914Y-15614222D01*
X10155914Y-15614222D02*
X10146390Y-15595174D01*
X10146390Y-15595174D02*
X10127342Y-15585650D01*
X10127342Y-15585650D02*
X10089247Y-15585650D01*
X10089247Y-15585650D02*
X10070200Y-15595174D01*
X10155914Y-15709460D02*
X10136866Y-15718984D01*
X10136866Y-15718984D02*
X10089247Y-15718984D01*
X10089247Y-15718984D02*
X10070200Y-15709460D01*
X10070200Y-15709460D02*
X10060676Y-15690412D01*
X10060676Y-15690412D02*
X10060676Y-15671365D01*
X10060676Y-15671365D02*
X10070200Y-15652317D01*
X10070200Y-15652317D02*
X10089247Y-15642793D01*
X10089247Y-15642793D02*
X10136866Y-15642793D01*
X10136866Y-15642793D02*
X10155914Y-15633269D01*
X10251152Y-15585650D02*
X10251152Y-15785650D01*
X10251152Y-15595174D02*
X10270200Y-15585650D01*
X10270200Y-15585650D02*
X10308295Y-15585650D01*
X10308295Y-15585650D02*
X10327342Y-15595174D01*
X10327342Y-15595174D02*
X10336866Y-15604698D01*
X10336866Y-15604698D02*
X10346390Y-15623746D01*
X10346390Y-15623746D02*
X10346390Y-15680888D01*
X10346390Y-15680888D02*
X10336866Y-15699936D01*
X10336866Y-15699936D02*
X10327342Y-15709460D01*
X10327342Y-15709460D02*
X10308295Y-15718984D01*
X10308295Y-15718984D02*
X10270200Y-15718984D01*
X10270200Y-15718984D02*
X10251152Y-15709460D01*
X10432104Y-15699936D02*
X10441628Y-15709460D01*
X10441628Y-15709460D02*
X10432104Y-15718984D01*
X10432104Y-15718984D02*
X10422581Y-15709460D01*
X10422581Y-15709460D02*
X10432104Y-15699936D01*
X10432104Y-15699936D02*
X10432104Y-15718984D01*
X10432104Y-15595174D02*
X10441628Y-15604698D01*
X10441628Y-15604698D02*
X10432104Y-15614222D01*
X10432104Y-15614222D02*
X10422581Y-15604698D01*
X10422581Y-15604698D02*
X10432104Y-15595174D01*
X10432104Y-15595174D02*
X10432104Y-15614222D01*
D12*
X8759899Y-16027500D02*
X8799899Y-16067500D01*
X8799899Y-16027500D02*
X8759899Y-16067500D01*
D11*
X9098771Y-15938984D02*
X9117819Y-15938984D01*
X9117819Y-15938984D02*
X9136866Y-15948508D01*
X9136866Y-15948508D02*
X9146390Y-15958031D01*
X9146390Y-15958031D02*
X9155914Y-15977079D01*
X9155914Y-15977079D02*
X9165438Y-16015174D01*
X9165438Y-16015174D02*
X9165438Y-16062793D01*
X9165438Y-16062793D02*
X9155914Y-16100888D01*
X9155914Y-16100888D02*
X9146390Y-16119936D01*
X9146390Y-16119936D02*
X9136866Y-16129460D01*
X9136866Y-16129460D02*
X9117819Y-16138984D01*
X9117819Y-16138984D02*
X9098771Y-16138984D01*
X9098771Y-16138984D02*
X9079723Y-16129460D01*
X9079723Y-16129460D02*
X9070200Y-16119936D01*
X9070200Y-16119936D02*
X9060676Y-16100888D01*
X9060676Y-16100888D02*
X9051152Y-16062793D01*
X9051152Y-16062793D02*
X9051152Y-16015174D01*
X9051152Y-16015174D02*
X9060676Y-15977079D01*
X9060676Y-15977079D02*
X9070200Y-15958031D01*
X9070200Y-15958031D02*
X9079723Y-15948508D01*
X9079723Y-15948508D02*
X9098771Y-15938984D01*
X9251152Y-16119936D02*
X9260676Y-16129460D01*
X9260676Y-16129460D02*
X9251152Y-16138984D01*
X9251152Y-16138984D02*
X9241628Y-16129460D01*
X9241628Y-16129460D02*
X9251152Y-16119936D01*
X9251152Y-16119936D02*
X9251152Y-16138984D01*
X9432104Y-16005650D02*
X9432104Y-16138984D01*
X9384485Y-15929460D02*
X9336866Y-16072317D01*
X9336866Y-16072317D02*
X9460676Y-16072317D01*
X9574961Y-15938984D02*
X9594009Y-15938984D01*
X9594009Y-15938984D02*
X9613057Y-15948508D01*
X9613057Y-15948508D02*
X9622581Y-15958031D01*
X9622581Y-15958031D02*
X9632104Y-15977079D01*
X9632104Y-15977079D02*
X9641628Y-16015174D01*
X9641628Y-16015174D02*
X9641628Y-16062793D01*
X9641628Y-16062793D02*
X9632104Y-16100888D01*
X9632104Y-16100888D02*
X9622581Y-16119936D01*
X9622581Y-16119936D02*
X9613057Y-16129460D01*
X9613057Y-16129460D02*
X9594009Y-16138984D01*
X9594009Y-16138984D02*
X9574961Y-16138984D01*
X9574961Y-16138984D02*
X9555914Y-16129460D01*
X9555914Y-16129460D02*
X9546390Y-16119936D01*
X9546390Y-16119936D02*
X9536866Y-16100888D01*
X9536866Y-16100888D02*
X9527342Y-16062793D01*
X9527342Y-16062793D02*
X9527342Y-16015174D01*
X9527342Y-16015174D02*
X9536866Y-15977079D01*
X9536866Y-15977079D02*
X9546390Y-15958031D01*
X9546390Y-15958031D02*
X9555914Y-15948508D01*
X9555914Y-15948508D02*
X9574961Y-15938984D01*
X9765438Y-15938984D02*
X9784485Y-15938984D01*
X9784485Y-15938984D02*
X9803533Y-15948508D01*
X9803533Y-15948508D02*
X9813057Y-15958031D01*
X9813057Y-15958031D02*
X9822581Y-15977079D01*
X9822581Y-15977079D02*
X9832104Y-16015174D01*
X9832104Y-16015174D02*
X9832104Y-16062793D01*
X9832104Y-16062793D02*
X9822581Y-16100888D01*
X9822581Y-16100888D02*
X9813057Y-16119936D01*
X9813057Y-16119936D02*
X9803533Y-16129460D01*
X9803533Y-16129460D02*
X9784485Y-16138984D01*
X9784485Y-16138984D02*
X9765438Y-16138984D01*
X9765438Y-16138984D02*
X9746390Y-16129460D01*
X9746390Y-16129460D02*
X9736866Y-16119936D01*
X9736866Y-16119936D02*
X9727342Y-16100888D01*
X9727342Y-16100888D02*
X9717819Y-16062793D01*
X9717819Y-16062793D02*
X9717819Y-16015174D01*
X9717819Y-16015174D02*
X9727342Y-15977079D01*
X9727342Y-15977079D02*
X9736866Y-15958031D01*
X9736866Y-15958031D02*
X9746390Y-15948508D01*
X9746390Y-15948508D02*
X9765438Y-15938984D01*
X9917819Y-16138984D02*
X9917819Y-16005650D01*
X9917819Y-16024698D02*
X9927342Y-16015174D01*
X9927342Y-16015174D02*
X9946390Y-16005650D01*
X9946390Y-16005650D02*
X9974962Y-16005650D01*
X9974962Y-16005650D02*
X9994009Y-16015174D01*
X9994009Y-16015174D02*
X10003533Y-16034222D01*
X10003533Y-16034222D02*
X10003533Y-16138984D01*
X10003533Y-16034222D02*
X10013057Y-16015174D01*
X10013057Y-16015174D02*
X10032104Y-16005650D01*
X10032104Y-16005650D02*
X10060676Y-16005650D01*
X10060676Y-16005650D02*
X10079723Y-16015174D01*
X10079723Y-16015174D02*
X10089247Y-16034222D01*
X10089247Y-16034222D02*
X10089247Y-16138984D01*
X10184485Y-16138984D02*
X10184485Y-16005650D01*
X10184485Y-16024698D02*
X10194009Y-16015174D01*
X10194009Y-16015174D02*
X10213057Y-16005650D01*
X10213057Y-16005650D02*
X10241628Y-16005650D01*
X10241628Y-16005650D02*
X10260676Y-16015174D01*
X10260676Y-16015174D02*
X10270200Y-16034222D01*
X10270200Y-16034222D02*
X10270200Y-16138984D01*
X10270200Y-16034222D02*
X10279723Y-16015174D01*
X10279723Y-16015174D02*
X10298771Y-16005650D01*
X10298771Y-16005650D02*
X10327342Y-16005650D01*
X10327342Y-16005650D02*
X10346390Y-16015174D01*
X10346390Y-16015174D02*
X10355914Y-16034222D01*
X10355914Y-16034222D02*
X10355914Y-16138984D01*
X10746390Y-15929460D02*
X10574962Y-16186603D01*
X11003533Y-15938984D02*
X11022581Y-15938984D01*
X11022581Y-15938984D02*
X11041628Y-15948508D01*
X11041628Y-15948508D02*
X11051152Y-15958031D01*
X11051152Y-15958031D02*
X11060676Y-15977079D01*
X11060676Y-15977079D02*
X11070200Y-16015174D01*
X11070200Y-16015174D02*
X11070200Y-16062793D01*
X11070200Y-16062793D02*
X11060676Y-16100888D01*
X11060676Y-16100888D02*
X11051152Y-16119936D01*
X11051152Y-16119936D02*
X11041628Y-16129460D01*
X11041628Y-16129460D02*
X11022581Y-16138984D01*
X11022581Y-16138984D02*
X11003533Y-16138984D01*
X11003533Y-16138984D02*
X10984485Y-16129460D01*
X10984485Y-16129460D02*
X10974962Y-16119936D01*
X10974962Y-16119936D02*
X10965438Y-16100888D01*
X10965438Y-16100888D02*
X10955914Y-16062793D01*
X10955914Y-16062793D02*
X10955914Y-16015174D01*
X10955914Y-16015174D02*
X10965438Y-15977079D01*
X10965438Y-15977079D02*
X10974962Y-15958031D01*
X10974962Y-15958031D02*
X10984485Y-15948508D01*
X10984485Y-15948508D02*
X11003533Y-15938984D01*
X11155914Y-16119936D02*
X11165438Y-16129460D01*
X11165438Y-16129460D02*
X11155914Y-16138984D01*
X11155914Y-16138984D02*
X11146390Y-16129460D01*
X11146390Y-16129460D02*
X11155914Y-16119936D01*
X11155914Y-16119936D02*
X11155914Y-16138984D01*
X11289247Y-15938984D02*
X11308295Y-15938984D01*
X11308295Y-15938984D02*
X11327343Y-15948508D01*
X11327343Y-15948508D02*
X11336866Y-15958031D01*
X11336866Y-15958031D02*
X11346390Y-15977079D01*
X11346390Y-15977079D02*
X11355914Y-16015174D01*
X11355914Y-16015174D02*
X11355914Y-16062793D01*
X11355914Y-16062793D02*
X11346390Y-16100888D01*
X11346390Y-16100888D02*
X11336866Y-16119936D01*
X11336866Y-16119936D02*
X11327343Y-16129460D01*
X11327343Y-16129460D02*
X11308295Y-16138984D01*
X11308295Y-16138984D02*
X11289247Y-16138984D01*
X11289247Y-16138984D02*
X11270200Y-16129460D01*
X11270200Y-16129460D02*
X11260676Y-16119936D01*
X11260676Y-16119936D02*
X11251152Y-16100888D01*
X11251152Y-16100888D02*
X11241628Y-16062793D01*
X11241628Y-16062793D02*
X11241628Y-16015174D01*
X11241628Y-16015174D02*
X11251152Y-15977079D01*
X11251152Y-15977079D02*
X11260676Y-15958031D01*
X11260676Y-15958031D02*
X11270200Y-15948508D01*
X11270200Y-15948508D02*
X11289247Y-15938984D01*
X11546390Y-16138984D02*
X11432104Y-16138984D01*
X11489247Y-16138984D02*
X11489247Y-15938984D01*
X11489247Y-15938984D02*
X11470200Y-15967555D01*
X11470200Y-15967555D02*
X11451152Y-15986603D01*
X11451152Y-15986603D02*
X11432104Y-15996127D01*
X11727343Y-15938984D02*
X11632104Y-15938984D01*
X11632104Y-15938984D02*
X11622581Y-16034222D01*
X11622581Y-16034222D02*
X11632104Y-16024698D01*
X11632104Y-16024698D02*
X11651152Y-16015174D01*
X11651152Y-16015174D02*
X11698771Y-16015174D01*
X11698771Y-16015174D02*
X11717819Y-16024698D01*
X11717819Y-16024698D02*
X11727343Y-16034222D01*
X11727343Y-16034222D02*
X11736866Y-16053269D01*
X11736866Y-16053269D02*
X11736866Y-16100888D01*
X11736866Y-16100888D02*
X11727343Y-16119936D01*
X11727343Y-16119936D02*
X11717819Y-16129460D01*
X11717819Y-16129460D02*
X11698771Y-16138984D01*
X11698771Y-16138984D02*
X11651152Y-16138984D01*
X11651152Y-16138984D02*
X11632104Y-16129460D01*
X11632104Y-16129460D02*
X11622581Y-16119936D01*
X11803533Y-15938984D02*
X11936866Y-15938984D01*
X11936866Y-15938984D02*
X11851152Y-16138984D01*
X12003533Y-15938984D02*
X12003533Y-15977079D01*
X12079724Y-15938984D02*
X12079724Y-15977079D01*
X12374962Y-16215174D02*
X12365438Y-16205650D01*
X12365438Y-16205650D02*
X12346390Y-16177079D01*
X12346390Y-16177079D02*
X12336866Y-16158031D01*
X12336866Y-16158031D02*
X12327343Y-16129460D01*
X12327343Y-16129460D02*
X12317819Y-16081841D01*
X12317819Y-16081841D02*
X12317819Y-16043746D01*
X12317819Y-16043746D02*
X12327343Y-15996127D01*
X12327343Y-15996127D02*
X12336866Y-15967555D01*
X12336866Y-15967555D02*
X12346390Y-15948508D01*
X12346390Y-15948508D02*
X12365438Y-15919936D01*
X12365438Y-15919936D02*
X12374962Y-15910412D01*
X12555914Y-16138984D02*
X12441628Y-16138984D01*
X12498771Y-16138984D02*
X12498771Y-15938984D01*
X12498771Y-15938984D02*
X12479724Y-15967555D01*
X12479724Y-15967555D02*
X12460676Y-15986603D01*
X12460676Y-15986603D02*
X12441628Y-15996127D01*
X12736866Y-15938984D02*
X12641628Y-15938984D01*
X12641628Y-15938984D02*
X12632105Y-16034222D01*
X12632105Y-16034222D02*
X12641628Y-16024698D01*
X12641628Y-16024698D02*
X12660676Y-16015174D01*
X12660676Y-16015174D02*
X12708295Y-16015174D01*
X12708295Y-16015174D02*
X12727343Y-16024698D01*
X12727343Y-16024698D02*
X12736866Y-16034222D01*
X12736866Y-16034222D02*
X12746390Y-16053269D01*
X12746390Y-16053269D02*
X12746390Y-16100888D01*
X12746390Y-16100888D02*
X12736866Y-16119936D01*
X12736866Y-16119936D02*
X12727343Y-16129460D01*
X12727343Y-16129460D02*
X12708295Y-16138984D01*
X12708295Y-16138984D02*
X12660676Y-16138984D01*
X12660676Y-16138984D02*
X12641628Y-16129460D01*
X12641628Y-16129460D02*
X12632105Y-16119936D01*
X12927343Y-15938984D02*
X12832105Y-15938984D01*
X12832105Y-15938984D02*
X12822581Y-16034222D01*
X12822581Y-16034222D02*
X12832105Y-16024698D01*
X12832105Y-16024698D02*
X12851152Y-16015174D01*
X12851152Y-16015174D02*
X12898771Y-16015174D01*
X12898771Y-16015174D02*
X12917819Y-16024698D01*
X12917819Y-16024698D02*
X12927343Y-16034222D01*
X12927343Y-16034222D02*
X12936866Y-16053269D01*
X12936866Y-16053269D02*
X12936866Y-16100888D01*
X12936866Y-16100888D02*
X12927343Y-16119936D01*
X12927343Y-16119936D02*
X12917819Y-16129460D01*
X12917819Y-16129460D02*
X12898771Y-16138984D01*
X12898771Y-16138984D02*
X12851152Y-16138984D01*
X12851152Y-16138984D02*
X12832105Y-16129460D01*
X12832105Y-16129460D02*
X12822581Y-16119936D01*
X13174962Y-16138984D02*
X13174962Y-15938984D01*
X13260676Y-16138984D02*
X13260676Y-16034222D01*
X13260676Y-16034222D02*
X13251152Y-16015174D01*
X13251152Y-16015174D02*
X13232105Y-16005650D01*
X13232105Y-16005650D02*
X13203533Y-16005650D01*
X13203533Y-16005650D02*
X13184486Y-16015174D01*
X13184486Y-16015174D02*
X13174962Y-16024698D01*
X13384486Y-16138984D02*
X13365438Y-16129460D01*
X13365438Y-16129460D02*
X13355914Y-16119936D01*
X13355914Y-16119936D02*
X13346390Y-16100888D01*
X13346390Y-16100888D02*
X13346390Y-16043746D01*
X13346390Y-16043746D02*
X13355914Y-16024698D01*
X13355914Y-16024698D02*
X13365438Y-16015174D01*
X13365438Y-16015174D02*
X13384486Y-16005650D01*
X13384486Y-16005650D02*
X13413057Y-16005650D01*
X13413057Y-16005650D02*
X13432105Y-16015174D01*
X13432105Y-16015174D02*
X13441628Y-16024698D01*
X13441628Y-16024698D02*
X13451152Y-16043746D01*
X13451152Y-16043746D02*
X13451152Y-16100888D01*
X13451152Y-16100888D02*
X13441628Y-16119936D01*
X13441628Y-16119936D02*
X13432105Y-16129460D01*
X13432105Y-16129460D02*
X13413057Y-16138984D01*
X13413057Y-16138984D02*
X13384486Y-16138984D01*
X13565438Y-16138984D02*
X13546390Y-16129460D01*
X13546390Y-16129460D02*
X13536867Y-16110412D01*
X13536867Y-16110412D02*
X13536867Y-15938984D01*
X13717819Y-16129460D02*
X13698771Y-16138984D01*
X13698771Y-16138984D02*
X13660676Y-16138984D01*
X13660676Y-16138984D02*
X13641628Y-16129460D01*
X13641628Y-16129460D02*
X13632105Y-16110412D01*
X13632105Y-16110412D02*
X13632105Y-16034222D01*
X13632105Y-16034222D02*
X13641628Y-16015174D01*
X13641628Y-16015174D02*
X13660676Y-16005650D01*
X13660676Y-16005650D02*
X13698771Y-16005650D01*
X13698771Y-16005650D02*
X13717819Y-16015174D01*
X13717819Y-16015174D02*
X13727343Y-16034222D01*
X13727343Y-16034222D02*
X13727343Y-16053269D01*
X13727343Y-16053269D02*
X13632105Y-16072317D01*
X13803533Y-16129460D02*
X13822581Y-16138984D01*
X13822581Y-16138984D02*
X13860676Y-16138984D01*
X13860676Y-16138984D02*
X13879724Y-16129460D01*
X13879724Y-16129460D02*
X13889248Y-16110412D01*
X13889248Y-16110412D02*
X13889248Y-16100888D01*
X13889248Y-16100888D02*
X13879724Y-16081841D01*
X13879724Y-16081841D02*
X13860676Y-16072317D01*
X13860676Y-16072317D02*
X13832105Y-16072317D01*
X13832105Y-16072317D02*
X13813057Y-16062793D01*
X13813057Y-16062793D02*
X13803533Y-16043746D01*
X13803533Y-16043746D02*
X13803533Y-16034222D01*
X13803533Y-16034222D02*
X13813057Y-16015174D01*
X13813057Y-16015174D02*
X13832105Y-16005650D01*
X13832105Y-16005650D02*
X13860676Y-16005650D01*
X13860676Y-16005650D02*
X13879724Y-16015174D01*
X13955914Y-16215174D02*
X13965438Y-16205650D01*
X13965438Y-16205650D02*
X13984486Y-16177079D01*
X13984486Y-16177079D02*
X13994009Y-16158031D01*
X13994009Y-16158031D02*
X14003533Y-16129460D01*
X14003533Y-16129460D02*
X14013057Y-16081841D01*
X14013057Y-16081841D02*
X14013057Y-16043746D01*
X14013057Y-16043746D02*
X14003533Y-15996127D01*
X14003533Y-15996127D02*
X13994009Y-15967555D01*
X13994009Y-15967555D02*
X13984486Y-15948508D01*
X13984486Y-15948508D02*
X13965438Y-15919936D01*
X13965438Y-15919936D02*
X13955914Y-15910412D01*
D13*
X8799899Y-16311500D02*
G75*
G03*
X8799899Y-16311500I-37500J0D01*
G01*
D11*
X9098771Y-16202984D02*
X9117819Y-16202984D01*
X9117819Y-16202984D02*
X9136866Y-16212508D01*
X9136866Y-16212508D02*
X9146390Y-16222031D01*
X9146390Y-16222031D02*
X9155914Y-16241079D01*
X9155914Y-16241079D02*
X9165438Y-16279174D01*
X9165438Y-16279174D02*
X9165438Y-16326793D01*
X9165438Y-16326793D02*
X9155914Y-16364888D01*
X9155914Y-16364888D02*
X9146390Y-16383936D01*
X9146390Y-16383936D02*
X9136866Y-16393460D01*
X9136866Y-16393460D02*
X9117819Y-16402984D01*
X9117819Y-16402984D02*
X9098771Y-16402984D01*
X9098771Y-16402984D02*
X9079723Y-16393460D01*
X9079723Y-16393460D02*
X9070200Y-16383936D01*
X9070200Y-16383936D02*
X9060676Y-16364888D01*
X9060676Y-16364888D02*
X9051152Y-16326793D01*
X9051152Y-16326793D02*
X9051152Y-16279174D01*
X9051152Y-16279174D02*
X9060676Y-16241079D01*
X9060676Y-16241079D02*
X9070200Y-16222031D01*
X9070200Y-16222031D02*
X9079723Y-16212508D01*
X9079723Y-16212508D02*
X9098771Y-16202984D01*
X9251152Y-16383936D02*
X9260676Y-16393460D01*
X9260676Y-16393460D02*
X9251152Y-16402984D01*
X9251152Y-16402984D02*
X9241628Y-16393460D01*
X9241628Y-16393460D02*
X9251152Y-16383936D01*
X9251152Y-16383936D02*
X9251152Y-16402984D01*
X9327342Y-16202984D02*
X9460676Y-16202984D01*
X9460676Y-16202984D02*
X9374961Y-16402984D01*
X9632104Y-16202984D02*
X9536866Y-16202984D01*
X9536866Y-16202984D02*
X9527342Y-16298222D01*
X9527342Y-16298222D02*
X9536866Y-16288698D01*
X9536866Y-16288698D02*
X9555914Y-16279174D01*
X9555914Y-16279174D02*
X9603533Y-16279174D01*
X9603533Y-16279174D02*
X9622581Y-16288698D01*
X9622581Y-16288698D02*
X9632104Y-16298222D01*
X9632104Y-16298222D02*
X9641628Y-16317269D01*
X9641628Y-16317269D02*
X9641628Y-16364888D01*
X9641628Y-16364888D02*
X9632104Y-16383936D01*
X9632104Y-16383936D02*
X9622581Y-16393460D01*
X9622581Y-16393460D02*
X9603533Y-16402984D01*
X9603533Y-16402984D02*
X9555914Y-16402984D01*
X9555914Y-16402984D02*
X9536866Y-16393460D01*
X9536866Y-16393460D02*
X9527342Y-16383936D01*
X9765438Y-16202984D02*
X9784485Y-16202984D01*
X9784485Y-16202984D02*
X9803533Y-16212508D01*
X9803533Y-16212508D02*
X9813057Y-16222031D01*
X9813057Y-16222031D02*
X9822581Y-16241079D01*
X9822581Y-16241079D02*
X9832104Y-16279174D01*
X9832104Y-16279174D02*
X9832104Y-16326793D01*
X9832104Y-16326793D02*
X9822581Y-16364888D01*
X9822581Y-16364888D02*
X9813057Y-16383936D01*
X9813057Y-16383936D02*
X9803533Y-16393460D01*
X9803533Y-16393460D02*
X9784485Y-16402984D01*
X9784485Y-16402984D02*
X9765438Y-16402984D01*
X9765438Y-16402984D02*
X9746390Y-16393460D01*
X9746390Y-16393460D02*
X9736866Y-16383936D01*
X9736866Y-16383936D02*
X9727342Y-16364888D01*
X9727342Y-16364888D02*
X9717819Y-16326793D01*
X9717819Y-16326793D02*
X9717819Y-16279174D01*
X9717819Y-16279174D02*
X9727342Y-16241079D01*
X9727342Y-16241079D02*
X9736866Y-16222031D01*
X9736866Y-16222031D02*
X9746390Y-16212508D01*
X9746390Y-16212508D02*
X9765438Y-16202984D01*
X9917819Y-16402984D02*
X9917819Y-16269650D01*
X9917819Y-16288698D02*
X9927342Y-16279174D01*
X9927342Y-16279174D02*
X9946390Y-16269650D01*
X9946390Y-16269650D02*
X9974962Y-16269650D01*
X9974962Y-16269650D02*
X9994009Y-16279174D01*
X9994009Y-16279174D02*
X10003533Y-16298222D01*
X10003533Y-16298222D02*
X10003533Y-16402984D01*
X10003533Y-16298222D02*
X10013057Y-16279174D01*
X10013057Y-16279174D02*
X10032104Y-16269650D01*
X10032104Y-16269650D02*
X10060676Y-16269650D01*
X10060676Y-16269650D02*
X10079723Y-16279174D01*
X10079723Y-16279174D02*
X10089247Y-16298222D01*
X10089247Y-16298222D02*
X10089247Y-16402984D01*
X10184485Y-16402984D02*
X10184485Y-16269650D01*
X10184485Y-16288698D02*
X10194009Y-16279174D01*
X10194009Y-16279174D02*
X10213057Y-16269650D01*
X10213057Y-16269650D02*
X10241628Y-16269650D01*
X10241628Y-16269650D02*
X10260676Y-16279174D01*
X10260676Y-16279174D02*
X10270200Y-16298222D01*
X10270200Y-16298222D02*
X10270200Y-16402984D01*
X10270200Y-16298222D02*
X10279723Y-16279174D01*
X10279723Y-16279174D02*
X10298771Y-16269650D01*
X10298771Y-16269650D02*
X10327342Y-16269650D01*
X10327342Y-16269650D02*
X10346390Y-16279174D01*
X10346390Y-16279174D02*
X10355914Y-16298222D01*
X10355914Y-16298222D02*
X10355914Y-16402984D01*
X10746390Y-16193460D02*
X10574962Y-16450603D01*
X11003533Y-16202984D02*
X11022581Y-16202984D01*
X11022581Y-16202984D02*
X11041628Y-16212508D01*
X11041628Y-16212508D02*
X11051152Y-16222031D01*
X11051152Y-16222031D02*
X11060676Y-16241079D01*
X11060676Y-16241079D02*
X11070200Y-16279174D01*
X11070200Y-16279174D02*
X11070200Y-16326793D01*
X11070200Y-16326793D02*
X11060676Y-16364888D01*
X11060676Y-16364888D02*
X11051152Y-16383936D01*
X11051152Y-16383936D02*
X11041628Y-16393460D01*
X11041628Y-16393460D02*
X11022581Y-16402984D01*
X11022581Y-16402984D02*
X11003533Y-16402984D01*
X11003533Y-16402984D02*
X10984485Y-16393460D01*
X10984485Y-16393460D02*
X10974962Y-16383936D01*
X10974962Y-16383936D02*
X10965438Y-16364888D01*
X10965438Y-16364888D02*
X10955914Y-16326793D01*
X10955914Y-16326793D02*
X10955914Y-16279174D01*
X10955914Y-16279174D02*
X10965438Y-16241079D01*
X10965438Y-16241079D02*
X10974962Y-16222031D01*
X10974962Y-16222031D02*
X10984485Y-16212508D01*
X10984485Y-16212508D02*
X11003533Y-16202984D01*
X11155914Y-16383936D02*
X11165438Y-16393460D01*
X11165438Y-16393460D02*
X11155914Y-16402984D01*
X11155914Y-16402984D02*
X11146390Y-16393460D01*
X11146390Y-16393460D02*
X11155914Y-16383936D01*
X11155914Y-16383936D02*
X11155914Y-16402984D01*
X11289247Y-16202984D02*
X11308295Y-16202984D01*
X11308295Y-16202984D02*
X11327343Y-16212508D01*
X11327343Y-16212508D02*
X11336866Y-16222031D01*
X11336866Y-16222031D02*
X11346390Y-16241079D01*
X11346390Y-16241079D02*
X11355914Y-16279174D01*
X11355914Y-16279174D02*
X11355914Y-16326793D01*
X11355914Y-16326793D02*
X11346390Y-16364888D01*
X11346390Y-16364888D02*
X11336866Y-16383936D01*
X11336866Y-16383936D02*
X11327343Y-16393460D01*
X11327343Y-16393460D02*
X11308295Y-16402984D01*
X11308295Y-16402984D02*
X11289247Y-16402984D01*
X11289247Y-16402984D02*
X11270200Y-16393460D01*
X11270200Y-16393460D02*
X11260676Y-16383936D01*
X11260676Y-16383936D02*
X11251152Y-16364888D01*
X11251152Y-16364888D02*
X11241628Y-16326793D01*
X11241628Y-16326793D02*
X11241628Y-16279174D01*
X11241628Y-16279174D02*
X11251152Y-16241079D01*
X11251152Y-16241079D02*
X11260676Y-16222031D01*
X11260676Y-16222031D02*
X11270200Y-16212508D01*
X11270200Y-16212508D02*
X11289247Y-16202984D01*
X11432104Y-16222031D02*
X11441628Y-16212508D01*
X11441628Y-16212508D02*
X11460676Y-16202984D01*
X11460676Y-16202984D02*
X11508295Y-16202984D01*
X11508295Y-16202984D02*
X11527343Y-16212508D01*
X11527343Y-16212508D02*
X11536866Y-16222031D01*
X11536866Y-16222031D02*
X11546390Y-16241079D01*
X11546390Y-16241079D02*
X11546390Y-16260127D01*
X11546390Y-16260127D02*
X11536866Y-16288698D01*
X11536866Y-16288698D02*
X11422581Y-16402984D01*
X11422581Y-16402984D02*
X11546390Y-16402984D01*
X11641628Y-16402984D02*
X11679723Y-16402984D01*
X11679723Y-16402984D02*
X11698771Y-16393460D01*
X11698771Y-16393460D02*
X11708295Y-16383936D01*
X11708295Y-16383936D02*
X11727343Y-16355365D01*
X11727343Y-16355365D02*
X11736866Y-16317269D01*
X11736866Y-16317269D02*
X11736866Y-16241079D01*
X11736866Y-16241079D02*
X11727343Y-16222031D01*
X11727343Y-16222031D02*
X11717819Y-16212508D01*
X11717819Y-16212508D02*
X11698771Y-16202984D01*
X11698771Y-16202984D02*
X11660676Y-16202984D01*
X11660676Y-16202984D02*
X11641628Y-16212508D01*
X11641628Y-16212508D02*
X11632104Y-16222031D01*
X11632104Y-16222031D02*
X11622581Y-16241079D01*
X11622581Y-16241079D02*
X11622581Y-16288698D01*
X11622581Y-16288698D02*
X11632104Y-16307746D01*
X11632104Y-16307746D02*
X11641628Y-16317269D01*
X11641628Y-16317269D02*
X11660676Y-16326793D01*
X11660676Y-16326793D02*
X11698771Y-16326793D01*
X11698771Y-16326793D02*
X11717819Y-16317269D01*
X11717819Y-16317269D02*
X11727343Y-16307746D01*
X11727343Y-16307746D02*
X11736866Y-16288698D01*
X11917819Y-16202984D02*
X11822581Y-16202984D01*
X11822581Y-16202984D02*
X11813057Y-16298222D01*
X11813057Y-16298222D02*
X11822581Y-16288698D01*
X11822581Y-16288698D02*
X11841628Y-16279174D01*
X11841628Y-16279174D02*
X11889247Y-16279174D01*
X11889247Y-16279174D02*
X11908295Y-16288698D01*
X11908295Y-16288698D02*
X11917819Y-16298222D01*
X11917819Y-16298222D02*
X11927343Y-16317269D01*
X11927343Y-16317269D02*
X11927343Y-16364888D01*
X11927343Y-16364888D02*
X11917819Y-16383936D01*
X11917819Y-16383936D02*
X11908295Y-16393460D01*
X11908295Y-16393460D02*
X11889247Y-16402984D01*
X11889247Y-16402984D02*
X11841628Y-16402984D01*
X11841628Y-16402984D02*
X11822581Y-16393460D01*
X11822581Y-16393460D02*
X11813057Y-16383936D01*
X12003533Y-16202984D02*
X12003533Y-16241079D01*
X12079724Y-16202984D02*
X12079724Y-16241079D01*
X12374962Y-16479174D02*
X12365438Y-16469650D01*
X12365438Y-16469650D02*
X12346390Y-16441079D01*
X12346390Y-16441079D02*
X12336866Y-16422031D01*
X12336866Y-16422031D02*
X12327343Y-16393460D01*
X12327343Y-16393460D02*
X12317819Y-16345841D01*
X12317819Y-16345841D02*
X12317819Y-16307746D01*
X12317819Y-16307746D02*
X12327343Y-16260127D01*
X12327343Y-16260127D02*
X12336866Y-16231555D01*
X12336866Y-16231555D02*
X12346390Y-16212508D01*
X12346390Y-16212508D02*
X12365438Y-16183936D01*
X12365438Y-16183936D02*
X12374962Y-16174412D01*
X12441628Y-16222031D02*
X12451152Y-16212508D01*
X12451152Y-16212508D02*
X12470200Y-16202984D01*
X12470200Y-16202984D02*
X12517819Y-16202984D01*
X12517819Y-16202984D02*
X12536866Y-16212508D01*
X12536866Y-16212508D02*
X12546390Y-16222031D01*
X12546390Y-16222031D02*
X12555914Y-16241079D01*
X12555914Y-16241079D02*
X12555914Y-16260127D01*
X12555914Y-16260127D02*
X12546390Y-16288698D01*
X12546390Y-16288698D02*
X12432105Y-16402984D01*
X12432105Y-16402984D02*
X12555914Y-16402984D01*
X12727343Y-16202984D02*
X12689247Y-16202984D01*
X12689247Y-16202984D02*
X12670200Y-16212508D01*
X12670200Y-16212508D02*
X12660676Y-16222031D01*
X12660676Y-16222031D02*
X12641628Y-16250603D01*
X12641628Y-16250603D02*
X12632105Y-16288698D01*
X12632105Y-16288698D02*
X12632105Y-16364888D01*
X12632105Y-16364888D02*
X12641628Y-16383936D01*
X12641628Y-16383936D02*
X12651152Y-16393460D01*
X12651152Y-16393460D02*
X12670200Y-16402984D01*
X12670200Y-16402984D02*
X12708295Y-16402984D01*
X12708295Y-16402984D02*
X12727343Y-16393460D01*
X12727343Y-16393460D02*
X12736866Y-16383936D01*
X12736866Y-16383936D02*
X12746390Y-16364888D01*
X12746390Y-16364888D02*
X12746390Y-16317269D01*
X12746390Y-16317269D02*
X12736866Y-16298222D01*
X12736866Y-16298222D02*
X12727343Y-16288698D01*
X12727343Y-16288698D02*
X12708295Y-16279174D01*
X12708295Y-16279174D02*
X12670200Y-16279174D01*
X12670200Y-16279174D02*
X12651152Y-16288698D01*
X12651152Y-16288698D02*
X12641628Y-16298222D01*
X12641628Y-16298222D02*
X12632105Y-16317269D01*
X12984486Y-16402984D02*
X12984486Y-16202984D01*
X13070200Y-16402984D02*
X13070200Y-16298222D01*
X13070200Y-16298222D02*
X13060676Y-16279174D01*
X13060676Y-16279174D02*
X13041628Y-16269650D01*
X13041628Y-16269650D02*
X13013057Y-16269650D01*
X13013057Y-16269650D02*
X12994009Y-16279174D01*
X12994009Y-16279174D02*
X12984486Y-16288698D01*
X13194009Y-16402984D02*
X13174962Y-16393460D01*
X13174962Y-16393460D02*
X13165438Y-16383936D01*
X13165438Y-16383936D02*
X13155914Y-16364888D01*
X13155914Y-16364888D02*
X13155914Y-16307746D01*
X13155914Y-16307746D02*
X13165438Y-16288698D01*
X13165438Y-16288698D02*
X13174962Y-16279174D01*
X13174962Y-16279174D02*
X13194009Y-16269650D01*
X13194009Y-16269650D02*
X13222581Y-16269650D01*
X13222581Y-16269650D02*
X13241628Y-16279174D01*
X13241628Y-16279174D02*
X13251152Y-16288698D01*
X13251152Y-16288698D02*
X13260676Y-16307746D01*
X13260676Y-16307746D02*
X13260676Y-16364888D01*
X13260676Y-16364888D02*
X13251152Y-16383936D01*
X13251152Y-16383936D02*
X13241628Y-16393460D01*
X13241628Y-16393460D02*
X13222581Y-16402984D01*
X13222581Y-16402984D02*
X13194009Y-16402984D01*
X13374962Y-16402984D02*
X13355914Y-16393460D01*
X13355914Y-16393460D02*
X13346390Y-16374412D01*
X13346390Y-16374412D02*
X13346390Y-16202984D01*
X13527343Y-16393460D02*
X13508295Y-16402984D01*
X13508295Y-16402984D02*
X13470200Y-16402984D01*
X13470200Y-16402984D02*
X13451152Y-16393460D01*
X13451152Y-16393460D02*
X13441628Y-16374412D01*
X13441628Y-16374412D02*
X13441628Y-16298222D01*
X13441628Y-16298222D02*
X13451152Y-16279174D01*
X13451152Y-16279174D02*
X13470200Y-16269650D01*
X13470200Y-16269650D02*
X13508295Y-16269650D01*
X13508295Y-16269650D02*
X13527343Y-16279174D01*
X13527343Y-16279174D02*
X13536867Y-16298222D01*
X13536867Y-16298222D02*
X13536867Y-16317269D01*
X13536867Y-16317269D02*
X13441628Y-16336317D01*
X13613057Y-16393460D02*
X13632105Y-16402984D01*
X13632105Y-16402984D02*
X13670200Y-16402984D01*
X13670200Y-16402984D02*
X13689248Y-16393460D01*
X13689248Y-16393460D02*
X13698771Y-16374412D01*
X13698771Y-16374412D02*
X13698771Y-16364888D01*
X13698771Y-16364888D02*
X13689248Y-16345841D01*
X13689248Y-16345841D02*
X13670200Y-16336317D01*
X13670200Y-16336317D02*
X13641628Y-16336317D01*
X13641628Y-16336317D02*
X13622581Y-16326793D01*
X13622581Y-16326793D02*
X13613057Y-16307746D01*
X13613057Y-16307746D02*
X13613057Y-16298222D01*
X13613057Y-16298222D02*
X13622581Y-16279174D01*
X13622581Y-16279174D02*
X13641628Y-16269650D01*
X13641628Y-16269650D02*
X13670200Y-16269650D01*
X13670200Y-16269650D02*
X13689248Y-16279174D01*
X13765438Y-16479174D02*
X13774962Y-16469650D01*
X13774962Y-16469650D02*
X13794009Y-16441079D01*
X13794009Y-16441079D02*
X13803533Y-16422031D01*
X13803533Y-16422031D02*
X13813057Y-16393460D01*
X13813057Y-16393460D02*
X13822581Y-16345841D01*
X13822581Y-16345841D02*
X13822581Y-16307746D01*
X13822581Y-16307746D02*
X13813057Y-16260127D01*
X13813057Y-16260127D02*
X13803533Y-16231555D01*
X13803533Y-16231555D02*
X13794009Y-16212508D01*
X13794009Y-16212508D02*
X13774962Y-16183936D01*
X13774962Y-16183936D02*
X13765438Y-16174412D01*
D14*
X8759899Y-16535500D02*
X8759899Y-16615500D01*
X8719899Y-16575500D02*
X8799899Y-16575500D01*
D11*
X9098771Y-16466984D02*
X9117819Y-16466984D01*
X9117819Y-16466984D02*
X9136866Y-16476508D01*
X9136866Y-16476508D02*
X9146390Y-16486031D01*
X9146390Y-16486031D02*
X9155914Y-16505079D01*
X9155914Y-16505079D02*
X9165438Y-16543174D01*
X9165438Y-16543174D02*
X9165438Y-16590793D01*
X9165438Y-16590793D02*
X9155914Y-16628888D01*
X9155914Y-16628888D02*
X9146390Y-16647936D01*
X9146390Y-16647936D02*
X9136866Y-16657460D01*
X9136866Y-16657460D02*
X9117819Y-16666984D01*
X9117819Y-16666984D02*
X9098771Y-16666984D01*
X9098771Y-16666984D02*
X9079723Y-16657460D01*
X9079723Y-16657460D02*
X9070200Y-16647936D01*
X9070200Y-16647936D02*
X9060676Y-16628888D01*
X9060676Y-16628888D02*
X9051152Y-16590793D01*
X9051152Y-16590793D02*
X9051152Y-16543174D01*
X9051152Y-16543174D02*
X9060676Y-16505079D01*
X9060676Y-16505079D02*
X9070200Y-16486031D01*
X9070200Y-16486031D02*
X9079723Y-16476508D01*
X9079723Y-16476508D02*
X9098771Y-16466984D01*
X9251152Y-16647936D02*
X9260676Y-16657460D01*
X9260676Y-16657460D02*
X9251152Y-16666984D01*
X9251152Y-16666984D02*
X9241628Y-16657460D01*
X9241628Y-16657460D02*
X9251152Y-16647936D01*
X9251152Y-16647936D02*
X9251152Y-16666984D01*
X9374961Y-16552698D02*
X9355914Y-16543174D01*
X9355914Y-16543174D02*
X9346390Y-16533650D01*
X9346390Y-16533650D02*
X9336866Y-16514603D01*
X9336866Y-16514603D02*
X9336866Y-16505079D01*
X9336866Y-16505079D02*
X9346390Y-16486031D01*
X9346390Y-16486031D02*
X9355914Y-16476508D01*
X9355914Y-16476508D02*
X9374961Y-16466984D01*
X9374961Y-16466984D02*
X9413057Y-16466984D01*
X9413057Y-16466984D02*
X9432104Y-16476508D01*
X9432104Y-16476508D02*
X9441628Y-16486031D01*
X9441628Y-16486031D02*
X9451152Y-16505079D01*
X9451152Y-16505079D02*
X9451152Y-16514603D01*
X9451152Y-16514603D02*
X9441628Y-16533650D01*
X9441628Y-16533650D02*
X9432104Y-16543174D01*
X9432104Y-16543174D02*
X9413057Y-16552698D01*
X9413057Y-16552698D02*
X9374961Y-16552698D01*
X9374961Y-16552698D02*
X9355914Y-16562222D01*
X9355914Y-16562222D02*
X9346390Y-16571746D01*
X9346390Y-16571746D02*
X9336866Y-16590793D01*
X9336866Y-16590793D02*
X9336866Y-16628888D01*
X9336866Y-16628888D02*
X9346390Y-16647936D01*
X9346390Y-16647936D02*
X9355914Y-16657460D01*
X9355914Y-16657460D02*
X9374961Y-16666984D01*
X9374961Y-16666984D02*
X9413057Y-16666984D01*
X9413057Y-16666984D02*
X9432104Y-16657460D01*
X9432104Y-16657460D02*
X9441628Y-16647936D01*
X9441628Y-16647936D02*
X9451152Y-16628888D01*
X9451152Y-16628888D02*
X9451152Y-16590793D01*
X9451152Y-16590793D02*
X9441628Y-16571746D01*
X9441628Y-16571746D02*
X9432104Y-16562222D01*
X9432104Y-16562222D02*
X9413057Y-16552698D01*
X9574961Y-16466984D02*
X9594009Y-16466984D01*
X9594009Y-16466984D02*
X9613057Y-16476508D01*
X9613057Y-16476508D02*
X9622581Y-16486031D01*
X9622581Y-16486031D02*
X9632104Y-16505079D01*
X9632104Y-16505079D02*
X9641628Y-16543174D01*
X9641628Y-16543174D02*
X9641628Y-16590793D01*
X9641628Y-16590793D02*
X9632104Y-16628888D01*
X9632104Y-16628888D02*
X9622581Y-16647936D01*
X9622581Y-16647936D02*
X9613057Y-16657460D01*
X9613057Y-16657460D02*
X9594009Y-16666984D01*
X9594009Y-16666984D02*
X9574961Y-16666984D01*
X9574961Y-16666984D02*
X9555914Y-16657460D01*
X9555914Y-16657460D02*
X9546390Y-16647936D01*
X9546390Y-16647936D02*
X9536866Y-16628888D01*
X9536866Y-16628888D02*
X9527342Y-16590793D01*
X9527342Y-16590793D02*
X9527342Y-16543174D01*
X9527342Y-16543174D02*
X9536866Y-16505079D01*
X9536866Y-16505079D02*
X9546390Y-16486031D01*
X9546390Y-16486031D02*
X9555914Y-16476508D01*
X9555914Y-16476508D02*
X9574961Y-16466984D01*
X9765438Y-16466984D02*
X9784485Y-16466984D01*
X9784485Y-16466984D02*
X9803533Y-16476508D01*
X9803533Y-16476508D02*
X9813057Y-16486031D01*
X9813057Y-16486031D02*
X9822581Y-16505079D01*
X9822581Y-16505079D02*
X9832104Y-16543174D01*
X9832104Y-16543174D02*
X9832104Y-16590793D01*
X9832104Y-16590793D02*
X9822581Y-16628888D01*
X9822581Y-16628888D02*
X9813057Y-16647936D01*
X9813057Y-16647936D02*
X9803533Y-16657460D01*
X9803533Y-16657460D02*
X9784485Y-16666984D01*
X9784485Y-16666984D02*
X9765438Y-16666984D01*
X9765438Y-16666984D02*
X9746390Y-16657460D01*
X9746390Y-16657460D02*
X9736866Y-16647936D01*
X9736866Y-16647936D02*
X9727342Y-16628888D01*
X9727342Y-16628888D02*
X9717819Y-16590793D01*
X9717819Y-16590793D02*
X9717819Y-16543174D01*
X9717819Y-16543174D02*
X9727342Y-16505079D01*
X9727342Y-16505079D02*
X9736866Y-16486031D01*
X9736866Y-16486031D02*
X9746390Y-16476508D01*
X9746390Y-16476508D02*
X9765438Y-16466984D01*
X9917819Y-16666984D02*
X9917819Y-16533650D01*
X9917819Y-16552698D02*
X9927342Y-16543174D01*
X9927342Y-16543174D02*
X9946390Y-16533650D01*
X9946390Y-16533650D02*
X9974962Y-16533650D01*
X9974962Y-16533650D02*
X9994009Y-16543174D01*
X9994009Y-16543174D02*
X10003533Y-16562222D01*
X10003533Y-16562222D02*
X10003533Y-16666984D01*
X10003533Y-16562222D02*
X10013057Y-16543174D01*
X10013057Y-16543174D02*
X10032104Y-16533650D01*
X10032104Y-16533650D02*
X10060676Y-16533650D01*
X10060676Y-16533650D02*
X10079723Y-16543174D01*
X10079723Y-16543174D02*
X10089247Y-16562222D01*
X10089247Y-16562222D02*
X10089247Y-16666984D01*
X10184485Y-16666984D02*
X10184485Y-16533650D01*
X10184485Y-16552698D02*
X10194009Y-16543174D01*
X10194009Y-16543174D02*
X10213057Y-16533650D01*
X10213057Y-16533650D02*
X10241628Y-16533650D01*
X10241628Y-16533650D02*
X10260676Y-16543174D01*
X10260676Y-16543174D02*
X10270200Y-16562222D01*
X10270200Y-16562222D02*
X10270200Y-16666984D01*
X10270200Y-16562222D02*
X10279723Y-16543174D01*
X10279723Y-16543174D02*
X10298771Y-16533650D01*
X10298771Y-16533650D02*
X10327342Y-16533650D01*
X10327342Y-16533650D02*
X10346390Y-16543174D01*
X10346390Y-16543174D02*
X10355914Y-16562222D01*
X10355914Y-16562222D02*
X10355914Y-16666984D01*
X10746390Y-16457460D02*
X10574962Y-16714603D01*
X11003533Y-16466984D02*
X11022581Y-16466984D01*
X11022581Y-16466984D02*
X11041628Y-16476508D01*
X11041628Y-16476508D02*
X11051152Y-16486031D01*
X11051152Y-16486031D02*
X11060676Y-16505079D01*
X11060676Y-16505079D02*
X11070200Y-16543174D01*
X11070200Y-16543174D02*
X11070200Y-16590793D01*
X11070200Y-16590793D02*
X11060676Y-16628888D01*
X11060676Y-16628888D02*
X11051152Y-16647936D01*
X11051152Y-16647936D02*
X11041628Y-16657460D01*
X11041628Y-16657460D02*
X11022581Y-16666984D01*
X11022581Y-16666984D02*
X11003533Y-16666984D01*
X11003533Y-16666984D02*
X10984485Y-16657460D01*
X10984485Y-16657460D02*
X10974962Y-16647936D01*
X10974962Y-16647936D02*
X10965438Y-16628888D01*
X10965438Y-16628888D02*
X10955914Y-16590793D01*
X10955914Y-16590793D02*
X10955914Y-16543174D01*
X10955914Y-16543174D02*
X10965438Y-16505079D01*
X10965438Y-16505079D02*
X10974962Y-16486031D01*
X10974962Y-16486031D02*
X10984485Y-16476508D01*
X10984485Y-16476508D02*
X11003533Y-16466984D01*
X11155914Y-16647936D02*
X11165438Y-16657460D01*
X11165438Y-16657460D02*
X11155914Y-16666984D01*
X11155914Y-16666984D02*
X11146390Y-16657460D01*
X11146390Y-16657460D02*
X11155914Y-16647936D01*
X11155914Y-16647936D02*
X11155914Y-16666984D01*
X11289247Y-16466984D02*
X11308295Y-16466984D01*
X11308295Y-16466984D02*
X11327343Y-16476508D01*
X11327343Y-16476508D02*
X11336866Y-16486031D01*
X11336866Y-16486031D02*
X11346390Y-16505079D01*
X11346390Y-16505079D02*
X11355914Y-16543174D01*
X11355914Y-16543174D02*
X11355914Y-16590793D01*
X11355914Y-16590793D02*
X11346390Y-16628888D01*
X11346390Y-16628888D02*
X11336866Y-16647936D01*
X11336866Y-16647936D02*
X11327343Y-16657460D01*
X11327343Y-16657460D02*
X11308295Y-16666984D01*
X11308295Y-16666984D02*
X11289247Y-16666984D01*
X11289247Y-16666984D02*
X11270200Y-16657460D01*
X11270200Y-16657460D02*
X11260676Y-16647936D01*
X11260676Y-16647936D02*
X11251152Y-16628888D01*
X11251152Y-16628888D02*
X11241628Y-16590793D01*
X11241628Y-16590793D02*
X11241628Y-16543174D01*
X11241628Y-16543174D02*
X11251152Y-16505079D01*
X11251152Y-16505079D02*
X11260676Y-16486031D01*
X11260676Y-16486031D02*
X11270200Y-16476508D01*
X11270200Y-16476508D02*
X11289247Y-16466984D01*
X11422581Y-16466984D02*
X11546390Y-16466984D01*
X11546390Y-16466984D02*
X11479723Y-16543174D01*
X11479723Y-16543174D02*
X11508295Y-16543174D01*
X11508295Y-16543174D02*
X11527343Y-16552698D01*
X11527343Y-16552698D02*
X11536866Y-16562222D01*
X11536866Y-16562222D02*
X11546390Y-16581269D01*
X11546390Y-16581269D02*
X11546390Y-16628888D01*
X11546390Y-16628888D02*
X11536866Y-16647936D01*
X11536866Y-16647936D02*
X11527343Y-16657460D01*
X11527343Y-16657460D02*
X11508295Y-16666984D01*
X11508295Y-16666984D02*
X11451152Y-16666984D01*
X11451152Y-16666984D02*
X11432104Y-16657460D01*
X11432104Y-16657460D02*
X11422581Y-16647936D01*
X11736866Y-16666984D02*
X11622581Y-16666984D01*
X11679723Y-16666984D02*
X11679723Y-16466984D01*
X11679723Y-16466984D02*
X11660676Y-16495555D01*
X11660676Y-16495555D02*
X11641628Y-16514603D01*
X11641628Y-16514603D02*
X11622581Y-16524127D01*
X11917819Y-16466984D02*
X11822581Y-16466984D01*
X11822581Y-16466984D02*
X11813057Y-16562222D01*
X11813057Y-16562222D02*
X11822581Y-16552698D01*
X11822581Y-16552698D02*
X11841628Y-16543174D01*
X11841628Y-16543174D02*
X11889247Y-16543174D01*
X11889247Y-16543174D02*
X11908295Y-16552698D01*
X11908295Y-16552698D02*
X11917819Y-16562222D01*
X11917819Y-16562222D02*
X11927343Y-16581269D01*
X11927343Y-16581269D02*
X11927343Y-16628888D01*
X11927343Y-16628888D02*
X11917819Y-16647936D01*
X11917819Y-16647936D02*
X11908295Y-16657460D01*
X11908295Y-16657460D02*
X11889247Y-16666984D01*
X11889247Y-16666984D02*
X11841628Y-16666984D01*
X11841628Y-16666984D02*
X11822581Y-16657460D01*
X11822581Y-16657460D02*
X11813057Y-16647936D01*
X12003533Y-16466984D02*
X12003533Y-16505079D01*
X12079724Y-16466984D02*
X12079724Y-16505079D01*
X12374962Y-16743174D02*
X12365438Y-16733650D01*
X12365438Y-16733650D02*
X12346390Y-16705079D01*
X12346390Y-16705079D02*
X12336866Y-16686031D01*
X12336866Y-16686031D02*
X12327343Y-16657460D01*
X12327343Y-16657460D02*
X12317819Y-16609841D01*
X12317819Y-16609841D02*
X12317819Y-16571746D01*
X12317819Y-16571746D02*
X12327343Y-16524127D01*
X12327343Y-16524127D02*
X12336866Y-16495555D01*
X12336866Y-16495555D02*
X12346390Y-16476508D01*
X12346390Y-16476508D02*
X12365438Y-16447936D01*
X12365438Y-16447936D02*
X12374962Y-16438412D01*
X12479724Y-16552698D02*
X12460676Y-16543174D01*
X12460676Y-16543174D02*
X12451152Y-16533650D01*
X12451152Y-16533650D02*
X12441628Y-16514603D01*
X12441628Y-16514603D02*
X12441628Y-16505079D01*
X12441628Y-16505079D02*
X12451152Y-16486031D01*
X12451152Y-16486031D02*
X12460676Y-16476508D01*
X12460676Y-16476508D02*
X12479724Y-16466984D01*
X12479724Y-16466984D02*
X12517819Y-16466984D01*
X12517819Y-16466984D02*
X12536866Y-16476508D01*
X12536866Y-16476508D02*
X12546390Y-16486031D01*
X12546390Y-16486031D02*
X12555914Y-16505079D01*
X12555914Y-16505079D02*
X12555914Y-16514603D01*
X12555914Y-16514603D02*
X12546390Y-16533650D01*
X12546390Y-16533650D02*
X12536866Y-16543174D01*
X12536866Y-16543174D02*
X12517819Y-16552698D01*
X12517819Y-16552698D02*
X12479724Y-16552698D01*
X12479724Y-16552698D02*
X12460676Y-16562222D01*
X12460676Y-16562222D02*
X12451152Y-16571746D01*
X12451152Y-16571746D02*
X12441628Y-16590793D01*
X12441628Y-16590793D02*
X12441628Y-16628888D01*
X12441628Y-16628888D02*
X12451152Y-16647936D01*
X12451152Y-16647936D02*
X12460676Y-16657460D01*
X12460676Y-16657460D02*
X12479724Y-16666984D01*
X12479724Y-16666984D02*
X12517819Y-16666984D01*
X12517819Y-16666984D02*
X12536866Y-16657460D01*
X12536866Y-16657460D02*
X12546390Y-16647936D01*
X12546390Y-16647936D02*
X12555914Y-16628888D01*
X12555914Y-16628888D02*
X12555914Y-16590793D01*
X12555914Y-16590793D02*
X12546390Y-16571746D01*
X12546390Y-16571746D02*
X12536866Y-16562222D01*
X12536866Y-16562222D02*
X12517819Y-16552698D01*
X12632105Y-16486031D02*
X12641628Y-16476508D01*
X12641628Y-16476508D02*
X12660676Y-16466984D01*
X12660676Y-16466984D02*
X12708295Y-16466984D01*
X12708295Y-16466984D02*
X12727343Y-16476508D01*
X12727343Y-16476508D02*
X12736866Y-16486031D01*
X12736866Y-16486031D02*
X12746390Y-16505079D01*
X12746390Y-16505079D02*
X12746390Y-16524127D01*
X12746390Y-16524127D02*
X12736866Y-16552698D01*
X12736866Y-16552698D02*
X12622581Y-16666984D01*
X12622581Y-16666984D02*
X12746390Y-16666984D01*
X12984486Y-16666984D02*
X12984486Y-16466984D01*
X13070200Y-16666984D02*
X13070200Y-16562222D01*
X13070200Y-16562222D02*
X13060676Y-16543174D01*
X13060676Y-16543174D02*
X13041628Y-16533650D01*
X13041628Y-16533650D02*
X13013057Y-16533650D01*
X13013057Y-16533650D02*
X12994009Y-16543174D01*
X12994009Y-16543174D02*
X12984486Y-16552698D01*
X13194009Y-16666984D02*
X13174962Y-16657460D01*
X13174962Y-16657460D02*
X13165438Y-16647936D01*
X13165438Y-16647936D02*
X13155914Y-16628888D01*
X13155914Y-16628888D02*
X13155914Y-16571746D01*
X13155914Y-16571746D02*
X13165438Y-16552698D01*
X13165438Y-16552698D02*
X13174962Y-16543174D01*
X13174962Y-16543174D02*
X13194009Y-16533650D01*
X13194009Y-16533650D02*
X13222581Y-16533650D01*
X13222581Y-16533650D02*
X13241628Y-16543174D01*
X13241628Y-16543174D02*
X13251152Y-16552698D01*
X13251152Y-16552698D02*
X13260676Y-16571746D01*
X13260676Y-16571746D02*
X13260676Y-16628888D01*
X13260676Y-16628888D02*
X13251152Y-16647936D01*
X13251152Y-16647936D02*
X13241628Y-16657460D01*
X13241628Y-16657460D02*
X13222581Y-16666984D01*
X13222581Y-16666984D02*
X13194009Y-16666984D01*
X13374962Y-16666984D02*
X13355914Y-16657460D01*
X13355914Y-16657460D02*
X13346390Y-16638412D01*
X13346390Y-16638412D02*
X13346390Y-16466984D01*
X13527343Y-16657460D02*
X13508295Y-16666984D01*
X13508295Y-16666984D02*
X13470200Y-16666984D01*
X13470200Y-16666984D02*
X13451152Y-16657460D01*
X13451152Y-16657460D02*
X13441628Y-16638412D01*
X13441628Y-16638412D02*
X13441628Y-16562222D01*
X13441628Y-16562222D02*
X13451152Y-16543174D01*
X13451152Y-16543174D02*
X13470200Y-16533650D01*
X13470200Y-16533650D02*
X13508295Y-16533650D01*
X13508295Y-16533650D02*
X13527343Y-16543174D01*
X13527343Y-16543174D02*
X13536867Y-16562222D01*
X13536867Y-16562222D02*
X13536867Y-16581269D01*
X13536867Y-16581269D02*
X13441628Y-16600317D01*
X13613057Y-16657460D02*
X13632105Y-16666984D01*
X13632105Y-16666984D02*
X13670200Y-16666984D01*
X13670200Y-16666984D02*
X13689248Y-16657460D01*
X13689248Y-16657460D02*
X13698771Y-16638412D01*
X13698771Y-16638412D02*
X13698771Y-16628888D01*
X13698771Y-16628888D02*
X13689248Y-16609841D01*
X13689248Y-16609841D02*
X13670200Y-16600317D01*
X13670200Y-16600317D02*
X13641628Y-16600317D01*
X13641628Y-16600317D02*
X13622581Y-16590793D01*
X13622581Y-16590793D02*
X13613057Y-16571746D01*
X13613057Y-16571746D02*
X13613057Y-16562222D01*
X13613057Y-16562222D02*
X13622581Y-16543174D01*
X13622581Y-16543174D02*
X13641628Y-16533650D01*
X13641628Y-16533650D02*
X13670200Y-16533650D01*
X13670200Y-16533650D02*
X13689248Y-16543174D01*
X13765438Y-16743174D02*
X13774962Y-16733650D01*
X13774962Y-16733650D02*
X13794009Y-16705079D01*
X13794009Y-16705079D02*
X13803533Y-16686031D01*
X13803533Y-16686031D02*
X13813057Y-16657460D01*
X13813057Y-16657460D02*
X13822581Y-16609841D01*
X13822581Y-16609841D02*
X13822581Y-16571746D01*
X13822581Y-16571746D02*
X13813057Y-16524127D01*
X13813057Y-16524127D02*
X13803533Y-16495555D01*
X13803533Y-16495555D02*
X13794009Y-16476508D01*
X13794009Y-16476508D02*
X13774962Y-16447936D01*
X13774962Y-16447936D02*
X13765438Y-16438412D01*
D15*
X8786719Y-16871320D02*
X8786719Y-16807680D01*
X8723079Y-16807680D01*
X8723079Y-16871320D01*
X8786719Y-16871320D01*
D11*
X9098771Y-16730984D02*
X9117819Y-16730984D01*
X9117819Y-16730984D02*
X9136866Y-16740508D01*
X9136866Y-16740508D02*
X9146390Y-16750031D01*
X9146390Y-16750031D02*
X9155914Y-16769079D01*
X9155914Y-16769079D02*
X9165438Y-16807174D01*
X9165438Y-16807174D02*
X9165438Y-16854793D01*
X9165438Y-16854793D02*
X9155914Y-16892889D01*
X9155914Y-16892889D02*
X9146390Y-16911936D01*
X9146390Y-16911936D02*
X9136866Y-16921460D01*
X9136866Y-16921460D02*
X9117819Y-16930984D01*
X9117819Y-16930984D02*
X9098771Y-16930984D01*
X9098771Y-16930984D02*
X9079723Y-16921460D01*
X9079723Y-16921460D02*
X9070200Y-16911936D01*
X9070200Y-16911936D02*
X9060676Y-16892889D01*
X9060676Y-16892889D02*
X9051152Y-16854793D01*
X9051152Y-16854793D02*
X9051152Y-16807174D01*
X9051152Y-16807174D02*
X9060676Y-16769079D01*
X9060676Y-16769079D02*
X9070200Y-16750031D01*
X9070200Y-16750031D02*
X9079723Y-16740508D01*
X9079723Y-16740508D02*
X9098771Y-16730984D01*
X9251152Y-16911936D02*
X9260676Y-16921460D01*
X9260676Y-16921460D02*
X9251152Y-16930984D01*
X9251152Y-16930984D02*
X9241628Y-16921460D01*
X9241628Y-16921460D02*
X9251152Y-16911936D01*
X9251152Y-16911936D02*
X9251152Y-16930984D01*
X9355914Y-16930984D02*
X9394009Y-16930984D01*
X9394009Y-16930984D02*
X9413057Y-16921460D01*
X9413057Y-16921460D02*
X9422581Y-16911936D01*
X9422581Y-16911936D02*
X9441628Y-16883365D01*
X9441628Y-16883365D02*
X9451152Y-16845270D01*
X9451152Y-16845270D02*
X9451152Y-16769079D01*
X9451152Y-16769079D02*
X9441628Y-16750031D01*
X9441628Y-16750031D02*
X9432104Y-16740508D01*
X9432104Y-16740508D02*
X9413057Y-16730984D01*
X9413057Y-16730984D02*
X9374961Y-16730984D01*
X9374961Y-16730984D02*
X9355914Y-16740508D01*
X9355914Y-16740508D02*
X9346390Y-16750031D01*
X9346390Y-16750031D02*
X9336866Y-16769079D01*
X9336866Y-16769079D02*
X9336866Y-16816698D01*
X9336866Y-16816698D02*
X9346390Y-16835746D01*
X9346390Y-16835746D02*
X9355914Y-16845270D01*
X9355914Y-16845270D02*
X9374961Y-16854793D01*
X9374961Y-16854793D02*
X9413057Y-16854793D01*
X9413057Y-16854793D02*
X9432104Y-16845270D01*
X9432104Y-16845270D02*
X9441628Y-16835746D01*
X9441628Y-16835746D02*
X9451152Y-16816698D01*
X9574961Y-16730984D02*
X9594009Y-16730984D01*
X9594009Y-16730984D02*
X9613057Y-16740508D01*
X9613057Y-16740508D02*
X9622581Y-16750031D01*
X9622581Y-16750031D02*
X9632104Y-16769079D01*
X9632104Y-16769079D02*
X9641628Y-16807174D01*
X9641628Y-16807174D02*
X9641628Y-16854793D01*
X9641628Y-16854793D02*
X9632104Y-16892889D01*
X9632104Y-16892889D02*
X9622581Y-16911936D01*
X9622581Y-16911936D02*
X9613057Y-16921460D01*
X9613057Y-16921460D02*
X9594009Y-16930984D01*
X9594009Y-16930984D02*
X9574961Y-16930984D01*
X9574961Y-16930984D02*
X9555914Y-16921460D01*
X9555914Y-16921460D02*
X9546390Y-16911936D01*
X9546390Y-16911936D02*
X9536866Y-16892889D01*
X9536866Y-16892889D02*
X9527342Y-16854793D01*
X9527342Y-16854793D02*
X9527342Y-16807174D01*
X9527342Y-16807174D02*
X9536866Y-16769079D01*
X9536866Y-16769079D02*
X9546390Y-16750031D01*
X9546390Y-16750031D02*
X9555914Y-16740508D01*
X9555914Y-16740508D02*
X9574961Y-16730984D01*
X9765438Y-16730984D02*
X9784485Y-16730984D01*
X9784485Y-16730984D02*
X9803533Y-16740508D01*
X9803533Y-16740508D02*
X9813057Y-16750031D01*
X9813057Y-16750031D02*
X9822581Y-16769079D01*
X9822581Y-16769079D02*
X9832104Y-16807174D01*
X9832104Y-16807174D02*
X9832104Y-16854793D01*
X9832104Y-16854793D02*
X9822581Y-16892889D01*
X9822581Y-16892889D02*
X9813057Y-16911936D01*
X9813057Y-16911936D02*
X9803533Y-16921460D01*
X9803533Y-16921460D02*
X9784485Y-16930984D01*
X9784485Y-16930984D02*
X9765438Y-16930984D01*
X9765438Y-16930984D02*
X9746390Y-16921460D01*
X9746390Y-16921460D02*
X9736866Y-16911936D01*
X9736866Y-16911936D02*
X9727342Y-16892889D01*
X9727342Y-16892889D02*
X9717819Y-16854793D01*
X9717819Y-16854793D02*
X9717819Y-16807174D01*
X9717819Y-16807174D02*
X9727342Y-16769079D01*
X9727342Y-16769079D02*
X9736866Y-16750031D01*
X9736866Y-16750031D02*
X9746390Y-16740508D01*
X9746390Y-16740508D02*
X9765438Y-16730984D01*
X9917819Y-16930984D02*
X9917819Y-16797650D01*
X9917819Y-16816698D02*
X9927342Y-16807174D01*
X9927342Y-16807174D02*
X9946390Y-16797650D01*
X9946390Y-16797650D02*
X9974962Y-16797650D01*
X9974962Y-16797650D02*
X9994009Y-16807174D01*
X9994009Y-16807174D02*
X10003533Y-16826222D01*
X10003533Y-16826222D02*
X10003533Y-16930984D01*
X10003533Y-16826222D02*
X10013057Y-16807174D01*
X10013057Y-16807174D02*
X10032104Y-16797650D01*
X10032104Y-16797650D02*
X10060676Y-16797650D01*
X10060676Y-16797650D02*
X10079723Y-16807174D01*
X10079723Y-16807174D02*
X10089247Y-16826222D01*
X10089247Y-16826222D02*
X10089247Y-16930984D01*
X10184485Y-16930984D02*
X10184485Y-16797650D01*
X10184485Y-16816698D02*
X10194009Y-16807174D01*
X10194009Y-16807174D02*
X10213057Y-16797650D01*
X10213057Y-16797650D02*
X10241628Y-16797650D01*
X10241628Y-16797650D02*
X10260676Y-16807174D01*
X10260676Y-16807174D02*
X10270200Y-16826222D01*
X10270200Y-16826222D02*
X10270200Y-16930984D01*
X10270200Y-16826222D02*
X10279723Y-16807174D01*
X10279723Y-16807174D02*
X10298771Y-16797650D01*
X10298771Y-16797650D02*
X10327342Y-16797650D01*
X10327342Y-16797650D02*
X10346390Y-16807174D01*
X10346390Y-16807174D02*
X10355914Y-16826222D01*
X10355914Y-16826222D02*
X10355914Y-16930984D01*
X10746390Y-16721460D02*
X10574962Y-16978603D01*
X11003533Y-16730984D02*
X11022581Y-16730984D01*
X11022581Y-16730984D02*
X11041628Y-16740508D01*
X11041628Y-16740508D02*
X11051152Y-16750031D01*
X11051152Y-16750031D02*
X11060676Y-16769079D01*
X11060676Y-16769079D02*
X11070200Y-16807174D01*
X11070200Y-16807174D02*
X11070200Y-16854793D01*
X11070200Y-16854793D02*
X11060676Y-16892889D01*
X11060676Y-16892889D02*
X11051152Y-16911936D01*
X11051152Y-16911936D02*
X11041628Y-16921460D01*
X11041628Y-16921460D02*
X11022581Y-16930984D01*
X11022581Y-16930984D02*
X11003533Y-16930984D01*
X11003533Y-16930984D02*
X10984485Y-16921460D01*
X10984485Y-16921460D02*
X10974962Y-16911936D01*
X10974962Y-16911936D02*
X10965438Y-16892889D01*
X10965438Y-16892889D02*
X10955914Y-16854793D01*
X10955914Y-16854793D02*
X10955914Y-16807174D01*
X10955914Y-16807174D02*
X10965438Y-16769079D01*
X10965438Y-16769079D02*
X10974962Y-16750031D01*
X10974962Y-16750031D02*
X10984485Y-16740508D01*
X10984485Y-16740508D02*
X11003533Y-16730984D01*
X11155914Y-16911936D02*
X11165438Y-16921460D01*
X11165438Y-16921460D02*
X11155914Y-16930984D01*
X11155914Y-16930984D02*
X11146390Y-16921460D01*
X11146390Y-16921460D02*
X11155914Y-16911936D01*
X11155914Y-16911936D02*
X11155914Y-16930984D01*
X11289247Y-16730984D02*
X11308295Y-16730984D01*
X11308295Y-16730984D02*
X11327343Y-16740508D01*
X11327343Y-16740508D02*
X11336866Y-16750031D01*
X11336866Y-16750031D02*
X11346390Y-16769079D01*
X11346390Y-16769079D02*
X11355914Y-16807174D01*
X11355914Y-16807174D02*
X11355914Y-16854793D01*
X11355914Y-16854793D02*
X11346390Y-16892889D01*
X11346390Y-16892889D02*
X11336866Y-16911936D01*
X11336866Y-16911936D02*
X11327343Y-16921460D01*
X11327343Y-16921460D02*
X11308295Y-16930984D01*
X11308295Y-16930984D02*
X11289247Y-16930984D01*
X11289247Y-16930984D02*
X11270200Y-16921460D01*
X11270200Y-16921460D02*
X11260676Y-16911936D01*
X11260676Y-16911936D02*
X11251152Y-16892889D01*
X11251152Y-16892889D02*
X11241628Y-16854793D01*
X11241628Y-16854793D02*
X11241628Y-16807174D01*
X11241628Y-16807174D02*
X11251152Y-16769079D01*
X11251152Y-16769079D02*
X11260676Y-16750031D01*
X11260676Y-16750031D02*
X11270200Y-16740508D01*
X11270200Y-16740508D02*
X11289247Y-16730984D01*
X11422581Y-16730984D02*
X11546390Y-16730984D01*
X11546390Y-16730984D02*
X11479723Y-16807174D01*
X11479723Y-16807174D02*
X11508295Y-16807174D01*
X11508295Y-16807174D02*
X11527343Y-16816698D01*
X11527343Y-16816698D02*
X11536866Y-16826222D01*
X11536866Y-16826222D02*
X11546390Y-16845270D01*
X11546390Y-16845270D02*
X11546390Y-16892889D01*
X11546390Y-16892889D02*
X11536866Y-16911936D01*
X11536866Y-16911936D02*
X11527343Y-16921460D01*
X11527343Y-16921460D02*
X11508295Y-16930984D01*
X11508295Y-16930984D02*
X11451152Y-16930984D01*
X11451152Y-16930984D02*
X11432104Y-16921460D01*
X11432104Y-16921460D02*
X11422581Y-16911936D01*
X11727343Y-16730984D02*
X11632104Y-16730984D01*
X11632104Y-16730984D02*
X11622581Y-16826222D01*
X11622581Y-16826222D02*
X11632104Y-16816698D01*
X11632104Y-16816698D02*
X11651152Y-16807174D01*
X11651152Y-16807174D02*
X11698771Y-16807174D01*
X11698771Y-16807174D02*
X11717819Y-16816698D01*
X11717819Y-16816698D02*
X11727343Y-16826222D01*
X11727343Y-16826222D02*
X11736866Y-16845270D01*
X11736866Y-16845270D02*
X11736866Y-16892889D01*
X11736866Y-16892889D02*
X11727343Y-16911936D01*
X11727343Y-16911936D02*
X11717819Y-16921460D01*
X11717819Y-16921460D02*
X11698771Y-16930984D01*
X11698771Y-16930984D02*
X11651152Y-16930984D01*
X11651152Y-16930984D02*
X11632104Y-16921460D01*
X11632104Y-16921460D02*
X11622581Y-16911936D01*
X11908295Y-16797650D02*
X11908295Y-16930984D01*
X11860676Y-16721460D02*
X11813057Y-16864317D01*
X11813057Y-16864317D02*
X11936866Y-16864317D01*
X12003533Y-16730984D02*
X12003533Y-16769079D01*
X12079724Y-16730984D02*
X12079724Y-16769079D01*
X12374962Y-17007174D02*
X12365438Y-16997650D01*
X12365438Y-16997650D02*
X12346390Y-16969079D01*
X12346390Y-16969079D02*
X12336866Y-16950031D01*
X12336866Y-16950031D02*
X12327343Y-16921460D01*
X12327343Y-16921460D02*
X12317819Y-16873841D01*
X12317819Y-16873841D02*
X12317819Y-16835746D01*
X12317819Y-16835746D02*
X12327343Y-16788127D01*
X12327343Y-16788127D02*
X12336866Y-16759555D01*
X12336866Y-16759555D02*
X12346390Y-16740508D01*
X12346390Y-16740508D02*
X12365438Y-16711936D01*
X12365438Y-16711936D02*
X12374962Y-16702412D01*
X12441628Y-16750031D02*
X12451152Y-16740508D01*
X12451152Y-16740508D02*
X12470200Y-16730984D01*
X12470200Y-16730984D02*
X12517819Y-16730984D01*
X12517819Y-16730984D02*
X12536866Y-16740508D01*
X12536866Y-16740508D02*
X12546390Y-16750031D01*
X12546390Y-16750031D02*
X12555914Y-16769079D01*
X12555914Y-16769079D02*
X12555914Y-16788127D01*
X12555914Y-16788127D02*
X12546390Y-16816698D01*
X12546390Y-16816698D02*
X12432105Y-16930984D01*
X12432105Y-16930984D02*
X12555914Y-16930984D01*
X12727343Y-16797650D02*
X12727343Y-16930984D01*
X12679724Y-16721460D02*
X12632105Y-16864317D01*
X12632105Y-16864317D02*
X12755914Y-16864317D01*
X12984486Y-16930984D02*
X12984486Y-16730984D01*
X13070200Y-16930984D02*
X13070200Y-16826222D01*
X13070200Y-16826222D02*
X13060676Y-16807174D01*
X13060676Y-16807174D02*
X13041628Y-16797650D01*
X13041628Y-16797650D02*
X13013057Y-16797650D01*
X13013057Y-16797650D02*
X12994009Y-16807174D01*
X12994009Y-16807174D02*
X12984486Y-16816698D01*
X13194009Y-16930984D02*
X13174962Y-16921460D01*
X13174962Y-16921460D02*
X13165438Y-16911936D01*
X13165438Y-16911936D02*
X13155914Y-16892889D01*
X13155914Y-16892889D02*
X13155914Y-16835746D01*
X13155914Y-16835746D02*
X13165438Y-16816698D01*
X13165438Y-16816698D02*
X13174962Y-16807174D01*
X13174962Y-16807174D02*
X13194009Y-16797650D01*
X13194009Y-16797650D02*
X13222581Y-16797650D01*
X13222581Y-16797650D02*
X13241628Y-16807174D01*
X13241628Y-16807174D02*
X13251152Y-16816698D01*
X13251152Y-16816698D02*
X13260676Y-16835746D01*
X13260676Y-16835746D02*
X13260676Y-16892889D01*
X13260676Y-16892889D02*
X13251152Y-16911936D01*
X13251152Y-16911936D02*
X13241628Y-16921460D01*
X13241628Y-16921460D02*
X13222581Y-16930984D01*
X13222581Y-16930984D02*
X13194009Y-16930984D01*
X13374962Y-16930984D02*
X13355914Y-16921460D01*
X13355914Y-16921460D02*
X13346390Y-16902412D01*
X13346390Y-16902412D02*
X13346390Y-16730984D01*
X13527343Y-16921460D02*
X13508295Y-16930984D01*
X13508295Y-16930984D02*
X13470200Y-16930984D01*
X13470200Y-16930984D02*
X13451152Y-16921460D01*
X13451152Y-16921460D02*
X13441628Y-16902412D01*
X13441628Y-16902412D02*
X13441628Y-16826222D01*
X13441628Y-16826222D02*
X13451152Y-16807174D01*
X13451152Y-16807174D02*
X13470200Y-16797650D01*
X13470200Y-16797650D02*
X13508295Y-16797650D01*
X13508295Y-16797650D02*
X13527343Y-16807174D01*
X13527343Y-16807174D02*
X13536867Y-16826222D01*
X13536867Y-16826222D02*
X13536867Y-16845270D01*
X13536867Y-16845270D02*
X13441628Y-16864317D01*
X13613057Y-16921460D02*
X13632105Y-16930984D01*
X13632105Y-16930984D02*
X13670200Y-16930984D01*
X13670200Y-16930984D02*
X13689248Y-16921460D01*
X13689248Y-16921460D02*
X13698771Y-16902412D01*
X13698771Y-16902412D02*
X13698771Y-16892889D01*
X13698771Y-16892889D02*
X13689248Y-16873841D01*
X13689248Y-16873841D02*
X13670200Y-16864317D01*
X13670200Y-16864317D02*
X13641628Y-16864317D01*
X13641628Y-16864317D02*
X13622581Y-16854793D01*
X13622581Y-16854793D02*
X13613057Y-16835746D01*
X13613057Y-16835746D02*
X13613057Y-16826222D01*
X13613057Y-16826222D02*
X13622581Y-16807174D01*
X13622581Y-16807174D02*
X13641628Y-16797650D01*
X13641628Y-16797650D02*
X13670200Y-16797650D01*
X13670200Y-16797650D02*
X13689248Y-16807174D01*
X13765438Y-17007174D02*
X13774962Y-16997650D01*
X13774962Y-16997650D02*
X13794009Y-16969079D01*
X13794009Y-16969079D02*
X13803533Y-16950031D01*
X13803533Y-16950031D02*
X13813057Y-16921460D01*
X13813057Y-16921460D02*
X13822581Y-16873841D01*
X13822581Y-16873841D02*
X13822581Y-16835746D01*
X13822581Y-16835746D02*
X13813057Y-16788127D01*
X13813057Y-16788127D02*
X13803533Y-16759555D01*
X13803533Y-16759555D02*
X13794009Y-16740508D01*
X13794009Y-16740508D02*
X13774962Y-16711936D01*
X13774962Y-16711936D02*
X13765438Y-16702412D01*
D16*
X8752399Y-17151000D02*
X8799899Y-17103500D01*
X8752399Y-17056000D01*
X8704899Y-17103500D01*
X8752399Y-17151000D01*
D11*
X9098771Y-16994984D02*
X9117819Y-16994984D01*
X9117819Y-16994984D02*
X9136866Y-17004508D01*
X9136866Y-17004508D02*
X9146390Y-17014031D01*
X9146390Y-17014031D02*
X9155914Y-17033079D01*
X9155914Y-17033079D02*
X9165438Y-17071174D01*
X9165438Y-17071174D02*
X9165438Y-17118793D01*
X9165438Y-17118793D02*
X9155914Y-17156889D01*
X9155914Y-17156889D02*
X9146390Y-17175936D01*
X9146390Y-17175936D02*
X9136866Y-17185460D01*
X9136866Y-17185460D02*
X9117819Y-17194984D01*
X9117819Y-17194984D02*
X9098771Y-17194984D01*
X9098771Y-17194984D02*
X9079723Y-17185460D01*
X9079723Y-17185460D02*
X9070200Y-17175936D01*
X9070200Y-17175936D02*
X9060676Y-17156889D01*
X9060676Y-17156889D02*
X9051152Y-17118793D01*
X9051152Y-17118793D02*
X9051152Y-17071174D01*
X9051152Y-17071174D02*
X9060676Y-17033079D01*
X9060676Y-17033079D02*
X9070200Y-17014031D01*
X9070200Y-17014031D02*
X9079723Y-17004508D01*
X9079723Y-17004508D02*
X9098771Y-16994984D01*
X9251152Y-17175936D02*
X9260676Y-17185460D01*
X9260676Y-17185460D02*
X9251152Y-17194984D01*
X9251152Y-17194984D02*
X9241628Y-17185460D01*
X9241628Y-17185460D02*
X9251152Y-17175936D01*
X9251152Y-17175936D02*
X9251152Y-17194984D01*
X9355914Y-17194984D02*
X9394009Y-17194984D01*
X9394009Y-17194984D02*
X9413057Y-17185460D01*
X9413057Y-17185460D02*
X9422581Y-17175936D01*
X9422581Y-17175936D02*
X9441628Y-17147365D01*
X9441628Y-17147365D02*
X9451152Y-17109270D01*
X9451152Y-17109270D02*
X9451152Y-17033079D01*
X9451152Y-17033079D02*
X9441628Y-17014031D01*
X9441628Y-17014031D02*
X9432104Y-17004508D01*
X9432104Y-17004508D02*
X9413057Y-16994984D01*
X9413057Y-16994984D02*
X9374961Y-16994984D01*
X9374961Y-16994984D02*
X9355914Y-17004508D01*
X9355914Y-17004508D02*
X9346390Y-17014031D01*
X9346390Y-17014031D02*
X9336866Y-17033079D01*
X9336866Y-17033079D02*
X9336866Y-17080698D01*
X9336866Y-17080698D02*
X9346390Y-17099746D01*
X9346390Y-17099746D02*
X9355914Y-17109270D01*
X9355914Y-17109270D02*
X9374961Y-17118793D01*
X9374961Y-17118793D02*
X9413057Y-17118793D01*
X9413057Y-17118793D02*
X9432104Y-17109270D01*
X9432104Y-17109270D02*
X9441628Y-17099746D01*
X9441628Y-17099746D02*
X9451152Y-17080698D01*
X9632104Y-16994984D02*
X9536866Y-16994984D01*
X9536866Y-16994984D02*
X9527342Y-17090222D01*
X9527342Y-17090222D02*
X9536866Y-17080698D01*
X9536866Y-17080698D02*
X9555914Y-17071174D01*
X9555914Y-17071174D02*
X9603533Y-17071174D01*
X9603533Y-17071174D02*
X9622581Y-17080698D01*
X9622581Y-17080698D02*
X9632104Y-17090222D01*
X9632104Y-17090222D02*
X9641628Y-17109270D01*
X9641628Y-17109270D02*
X9641628Y-17156889D01*
X9641628Y-17156889D02*
X9632104Y-17175936D01*
X9632104Y-17175936D02*
X9622581Y-17185460D01*
X9622581Y-17185460D02*
X9603533Y-17194984D01*
X9603533Y-17194984D02*
X9555914Y-17194984D01*
X9555914Y-17194984D02*
X9536866Y-17185460D01*
X9536866Y-17185460D02*
X9527342Y-17175936D01*
X9765438Y-16994984D02*
X9784485Y-16994984D01*
X9784485Y-16994984D02*
X9803533Y-17004508D01*
X9803533Y-17004508D02*
X9813057Y-17014031D01*
X9813057Y-17014031D02*
X9822581Y-17033079D01*
X9822581Y-17033079D02*
X9832104Y-17071174D01*
X9832104Y-17071174D02*
X9832104Y-17118793D01*
X9832104Y-17118793D02*
X9822581Y-17156889D01*
X9822581Y-17156889D02*
X9813057Y-17175936D01*
X9813057Y-17175936D02*
X9803533Y-17185460D01*
X9803533Y-17185460D02*
X9784485Y-17194984D01*
X9784485Y-17194984D02*
X9765438Y-17194984D01*
X9765438Y-17194984D02*
X9746390Y-17185460D01*
X9746390Y-17185460D02*
X9736866Y-17175936D01*
X9736866Y-17175936D02*
X9727342Y-17156889D01*
X9727342Y-17156889D02*
X9717819Y-17118793D01*
X9717819Y-17118793D02*
X9717819Y-17071174D01*
X9717819Y-17071174D02*
X9727342Y-17033079D01*
X9727342Y-17033079D02*
X9736866Y-17014031D01*
X9736866Y-17014031D02*
X9746390Y-17004508D01*
X9746390Y-17004508D02*
X9765438Y-16994984D01*
X9917819Y-17194984D02*
X9917819Y-17061650D01*
X9917819Y-17080698D02*
X9927342Y-17071174D01*
X9927342Y-17071174D02*
X9946390Y-17061650D01*
X9946390Y-17061650D02*
X9974962Y-17061650D01*
X9974962Y-17061650D02*
X9994009Y-17071174D01*
X9994009Y-17071174D02*
X10003533Y-17090222D01*
X10003533Y-17090222D02*
X10003533Y-17194984D01*
X10003533Y-17090222D02*
X10013057Y-17071174D01*
X10013057Y-17071174D02*
X10032104Y-17061650D01*
X10032104Y-17061650D02*
X10060676Y-17061650D01*
X10060676Y-17061650D02*
X10079723Y-17071174D01*
X10079723Y-17071174D02*
X10089247Y-17090222D01*
X10089247Y-17090222D02*
X10089247Y-17194984D01*
X10184485Y-17194984D02*
X10184485Y-17061650D01*
X10184485Y-17080698D02*
X10194009Y-17071174D01*
X10194009Y-17071174D02*
X10213057Y-17061650D01*
X10213057Y-17061650D02*
X10241628Y-17061650D01*
X10241628Y-17061650D02*
X10260676Y-17071174D01*
X10260676Y-17071174D02*
X10270200Y-17090222D01*
X10270200Y-17090222D02*
X10270200Y-17194984D01*
X10270200Y-17090222D02*
X10279723Y-17071174D01*
X10279723Y-17071174D02*
X10298771Y-17061650D01*
X10298771Y-17061650D02*
X10327342Y-17061650D01*
X10327342Y-17061650D02*
X10346390Y-17071174D01*
X10346390Y-17071174D02*
X10355914Y-17090222D01*
X10355914Y-17090222D02*
X10355914Y-17194984D01*
X10746390Y-16985460D02*
X10574962Y-17242603D01*
X11003533Y-16994984D02*
X11022581Y-16994984D01*
X11022581Y-16994984D02*
X11041628Y-17004508D01*
X11041628Y-17004508D02*
X11051152Y-17014031D01*
X11051152Y-17014031D02*
X11060676Y-17033079D01*
X11060676Y-17033079D02*
X11070200Y-17071174D01*
X11070200Y-17071174D02*
X11070200Y-17118793D01*
X11070200Y-17118793D02*
X11060676Y-17156889D01*
X11060676Y-17156889D02*
X11051152Y-17175936D01*
X11051152Y-17175936D02*
X11041628Y-17185460D01*
X11041628Y-17185460D02*
X11022581Y-17194984D01*
X11022581Y-17194984D02*
X11003533Y-17194984D01*
X11003533Y-17194984D02*
X10984485Y-17185460D01*
X10984485Y-17185460D02*
X10974962Y-17175936D01*
X10974962Y-17175936D02*
X10965438Y-17156889D01*
X10965438Y-17156889D02*
X10955914Y-17118793D01*
X10955914Y-17118793D02*
X10955914Y-17071174D01*
X10955914Y-17071174D02*
X10965438Y-17033079D01*
X10965438Y-17033079D02*
X10974962Y-17014031D01*
X10974962Y-17014031D02*
X10984485Y-17004508D01*
X10984485Y-17004508D02*
X11003533Y-16994984D01*
X11155914Y-17175936D02*
X11165438Y-17185460D01*
X11165438Y-17185460D02*
X11155914Y-17194984D01*
X11155914Y-17194984D02*
X11146390Y-17185460D01*
X11146390Y-17185460D02*
X11155914Y-17175936D01*
X11155914Y-17175936D02*
X11155914Y-17194984D01*
X11289247Y-16994984D02*
X11308295Y-16994984D01*
X11308295Y-16994984D02*
X11327343Y-17004508D01*
X11327343Y-17004508D02*
X11336866Y-17014031D01*
X11336866Y-17014031D02*
X11346390Y-17033079D01*
X11346390Y-17033079D02*
X11355914Y-17071174D01*
X11355914Y-17071174D02*
X11355914Y-17118793D01*
X11355914Y-17118793D02*
X11346390Y-17156889D01*
X11346390Y-17156889D02*
X11336866Y-17175936D01*
X11336866Y-17175936D02*
X11327343Y-17185460D01*
X11327343Y-17185460D02*
X11308295Y-17194984D01*
X11308295Y-17194984D02*
X11289247Y-17194984D01*
X11289247Y-17194984D02*
X11270200Y-17185460D01*
X11270200Y-17185460D02*
X11260676Y-17175936D01*
X11260676Y-17175936D02*
X11251152Y-17156889D01*
X11251152Y-17156889D02*
X11241628Y-17118793D01*
X11241628Y-17118793D02*
X11241628Y-17071174D01*
X11241628Y-17071174D02*
X11251152Y-17033079D01*
X11251152Y-17033079D02*
X11260676Y-17014031D01*
X11260676Y-17014031D02*
X11270200Y-17004508D01*
X11270200Y-17004508D02*
X11289247Y-16994984D01*
X11422581Y-16994984D02*
X11546390Y-16994984D01*
X11546390Y-16994984D02*
X11479723Y-17071174D01*
X11479723Y-17071174D02*
X11508295Y-17071174D01*
X11508295Y-17071174D02*
X11527343Y-17080698D01*
X11527343Y-17080698D02*
X11536866Y-17090222D01*
X11536866Y-17090222D02*
X11546390Y-17109270D01*
X11546390Y-17109270D02*
X11546390Y-17156889D01*
X11546390Y-17156889D02*
X11536866Y-17175936D01*
X11536866Y-17175936D02*
X11527343Y-17185460D01*
X11527343Y-17185460D02*
X11508295Y-17194984D01*
X11508295Y-17194984D02*
X11451152Y-17194984D01*
X11451152Y-17194984D02*
X11432104Y-17185460D01*
X11432104Y-17185460D02*
X11422581Y-17175936D01*
X11613057Y-16994984D02*
X11746390Y-16994984D01*
X11746390Y-16994984D02*
X11660676Y-17194984D01*
X11908295Y-17061650D02*
X11908295Y-17194984D01*
X11860676Y-16985460D02*
X11813057Y-17128317D01*
X11813057Y-17128317D02*
X11936866Y-17128317D01*
X12003533Y-16994984D02*
X12003533Y-17033079D01*
X12079724Y-16994984D02*
X12079724Y-17033079D01*
X12374962Y-17271174D02*
X12365438Y-17261650D01*
X12365438Y-17261650D02*
X12346390Y-17233079D01*
X12346390Y-17233079D02*
X12336866Y-17214031D01*
X12336866Y-17214031D02*
X12327343Y-17185460D01*
X12327343Y-17185460D02*
X12317819Y-17137841D01*
X12317819Y-17137841D02*
X12317819Y-17099746D01*
X12317819Y-17099746D02*
X12327343Y-17052127D01*
X12327343Y-17052127D02*
X12336866Y-17023555D01*
X12336866Y-17023555D02*
X12346390Y-17004508D01*
X12346390Y-17004508D02*
X12365438Y-16975936D01*
X12365438Y-16975936D02*
X12374962Y-16966412D01*
X12555914Y-17194984D02*
X12441628Y-17194984D01*
X12498771Y-17194984D02*
X12498771Y-16994984D01*
X12498771Y-16994984D02*
X12479724Y-17023555D01*
X12479724Y-17023555D02*
X12460676Y-17042603D01*
X12460676Y-17042603D02*
X12441628Y-17052127D01*
X12727343Y-17061650D02*
X12727343Y-17194984D01*
X12679724Y-16985460D02*
X12632105Y-17128317D01*
X12632105Y-17128317D02*
X12755914Y-17128317D01*
X12984486Y-17194984D02*
X12984486Y-16994984D01*
X13070200Y-17194984D02*
X13070200Y-17090222D01*
X13070200Y-17090222D02*
X13060676Y-17071174D01*
X13060676Y-17071174D02*
X13041628Y-17061650D01*
X13041628Y-17061650D02*
X13013057Y-17061650D01*
X13013057Y-17061650D02*
X12994009Y-17071174D01*
X12994009Y-17071174D02*
X12984486Y-17080698D01*
X13194009Y-17194984D02*
X13174962Y-17185460D01*
X13174962Y-17185460D02*
X13165438Y-17175936D01*
X13165438Y-17175936D02*
X13155914Y-17156889D01*
X13155914Y-17156889D02*
X13155914Y-17099746D01*
X13155914Y-17099746D02*
X13165438Y-17080698D01*
X13165438Y-17080698D02*
X13174962Y-17071174D01*
X13174962Y-17071174D02*
X13194009Y-17061650D01*
X13194009Y-17061650D02*
X13222581Y-17061650D01*
X13222581Y-17061650D02*
X13241628Y-17071174D01*
X13241628Y-17071174D02*
X13251152Y-17080698D01*
X13251152Y-17080698D02*
X13260676Y-17099746D01*
X13260676Y-17099746D02*
X13260676Y-17156889D01*
X13260676Y-17156889D02*
X13251152Y-17175936D01*
X13251152Y-17175936D02*
X13241628Y-17185460D01*
X13241628Y-17185460D02*
X13222581Y-17194984D01*
X13222581Y-17194984D02*
X13194009Y-17194984D01*
X13374962Y-17194984D02*
X13355914Y-17185460D01*
X13355914Y-17185460D02*
X13346390Y-17166412D01*
X13346390Y-17166412D02*
X13346390Y-16994984D01*
X13527343Y-17185460D02*
X13508295Y-17194984D01*
X13508295Y-17194984D02*
X13470200Y-17194984D01*
X13470200Y-17194984D02*
X13451152Y-17185460D01*
X13451152Y-17185460D02*
X13441628Y-17166412D01*
X13441628Y-17166412D02*
X13441628Y-17090222D01*
X13441628Y-17090222D02*
X13451152Y-17071174D01*
X13451152Y-17071174D02*
X13470200Y-17061650D01*
X13470200Y-17061650D02*
X13508295Y-17061650D01*
X13508295Y-17061650D02*
X13527343Y-17071174D01*
X13527343Y-17071174D02*
X13536867Y-17090222D01*
X13536867Y-17090222D02*
X13536867Y-17109270D01*
X13536867Y-17109270D02*
X13441628Y-17128317D01*
X13613057Y-17185460D02*
X13632105Y-17194984D01*
X13632105Y-17194984D02*
X13670200Y-17194984D01*
X13670200Y-17194984D02*
X13689248Y-17185460D01*
X13689248Y-17185460D02*
X13698771Y-17166412D01*
X13698771Y-17166412D02*
X13698771Y-17156889D01*
X13698771Y-17156889D02*
X13689248Y-17137841D01*
X13689248Y-17137841D02*
X13670200Y-17128317D01*
X13670200Y-17128317D02*
X13641628Y-17128317D01*
X13641628Y-17128317D02*
X13622581Y-17118793D01*
X13622581Y-17118793D02*
X13613057Y-17099746D01*
X13613057Y-17099746D02*
X13613057Y-17090222D01*
X13613057Y-17090222D02*
X13622581Y-17071174D01*
X13622581Y-17071174D02*
X13641628Y-17061650D01*
X13641628Y-17061650D02*
X13670200Y-17061650D01*
X13670200Y-17061650D02*
X13689248Y-17071174D01*
X13765438Y-17271174D02*
X13774962Y-17261650D01*
X13774962Y-17261650D02*
X13794009Y-17233079D01*
X13794009Y-17233079D02*
X13803533Y-17214031D01*
X13803533Y-17214031D02*
X13813057Y-17185460D01*
X13813057Y-17185460D02*
X13822581Y-17137841D01*
X13822581Y-17137841D02*
X13822581Y-17099746D01*
X13822581Y-17099746D02*
X13813057Y-17052127D01*
X13813057Y-17052127D02*
X13803533Y-17023555D01*
X13803533Y-17023555D02*
X13794009Y-17004508D01*
X13794009Y-17004508D02*
X13774962Y-16975936D01*
X13774962Y-16975936D02*
X13765438Y-16966412D01*
D10*
X8699899Y-17317500D02*
X8799899Y-17417500D01*
X8799899Y-17317500D02*
X8699899Y-17417500D01*
X8799899Y-17367500D02*
G75*
G03*
X8799899Y-17367500I-50000J0D01*
G01*
D11*
X9165438Y-17458984D02*
X9051152Y-17458984D01*
X9108295Y-17458984D02*
X9108295Y-17258984D01*
X9108295Y-17258984D02*
X9089247Y-17287555D01*
X9089247Y-17287555D02*
X9070200Y-17306603D01*
X9070200Y-17306603D02*
X9051152Y-17316127D01*
X9251152Y-17439936D02*
X9260676Y-17449460D01*
X9260676Y-17449460D02*
X9251152Y-17458984D01*
X9251152Y-17458984D02*
X9241628Y-17449460D01*
X9241628Y-17449460D02*
X9251152Y-17439936D01*
X9251152Y-17439936D02*
X9251152Y-17458984D01*
X9384485Y-17258984D02*
X9403533Y-17258984D01*
X9403533Y-17258984D02*
X9422581Y-17268508D01*
X9422581Y-17268508D02*
X9432104Y-17278031D01*
X9432104Y-17278031D02*
X9441628Y-17297079D01*
X9441628Y-17297079D02*
X9451152Y-17335174D01*
X9451152Y-17335174D02*
X9451152Y-17382793D01*
X9451152Y-17382793D02*
X9441628Y-17420889D01*
X9441628Y-17420889D02*
X9432104Y-17439936D01*
X9432104Y-17439936D02*
X9422581Y-17449460D01*
X9422581Y-17449460D02*
X9403533Y-17458984D01*
X9403533Y-17458984D02*
X9384485Y-17458984D01*
X9384485Y-17458984D02*
X9365438Y-17449460D01*
X9365438Y-17449460D02*
X9355914Y-17439936D01*
X9355914Y-17439936D02*
X9346390Y-17420889D01*
X9346390Y-17420889D02*
X9336866Y-17382793D01*
X9336866Y-17382793D02*
X9336866Y-17335174D01*
X9336866Y-17335174D02*
X9346390Y-17297079D01*
X9346390Y-17297079D02*
X9355914Y-17278031D01*
X9355914Y-17278031D02*
X9365438Y-17268508D01*
X9365438Y-17268508D02*
X9384485Y-17258984D01*
X9574961Y-17258984D02*
X9594009Y-17258984D01*
X9594009Y-17258984D02*
X9613057Y-17268508D01*
X9613057Y-17268508D02*
X9622581Y-17278031D01*
X9622581Y-17278031D02*
X9632104Y-17297079D01*
X9632104Y-17297079D02*
X9641628Y-17335174D01*
X9641628Y-17335174D02*
X9641628Y-17382793D01*
X9641628Y-17382793D02*
X9632104Y-17420889D01*
X9632104Y-17420889D02*
X9622581Y-17439936D01*
X9622581Y-17439936D02*
X9613057Y-17449460D01*
X9613057Y-17449460D02*
X9594009Y-17458984D01*
X9594009Y-17458984D02*
X9574961Y-17458984D01*
X9574961Y-17458984D02*
X9555914Y-17449460D01*
X9555914Y-17449460D02*
X9546390Y-17439936D01*
X9546390Y-17439936D02*
X9536866Y-17420889D01*
X9536866Y-17420889D02*
X9527342Y-17382793D01*
X9527342Y-17382793D02*
X9527342Y-17335174D01*
X9527342Y-17335174D02*
X9536866Y-17297079D01*
X9536866Y-17297079D02*
X9546390Y-17278031D01*
X9546390Y-17278031D02*
X9555914Y-17268508D01*
X9555914Y-17268508D02*
X9574961Y-17258984D01*
X9765438Y-17258984D02*
X9784485Y-17258984D01*
X9784485Y-17258984D02*
X9803533Y-17268508D01*
X9803533Y-17268508D02*
X9813057Y-17278031D01*
X9813057Y-17278031D02*
X9822581Y-17297079D01*
X9822581Y-17297079D02*
X9832104Y-17335174D01*
X9832104Y-17335174D02*
X9832104Y-17382793D01*
X9832104Y-17382793D02*
X9822581Y-17420889D01*
X9822581Y-17420889D02*
X9813057Y-17439936D01*
X9813057Y-17439936D02*
X9803533Y-17449460D01*
X9803533Y-17449460D02*
X9784485Y-17458984D01*
X9784485Y-17458984D02*
X9765438Y-17458984D01*
X9765438Y-17458984D02*
X9746390Y-17449460D01*
X9746390Y-17449460D02*
X9736866Y-17439936D01*
X9736866Y-17439936D02*
X9727342Y-17420889D01*
X9727342Y-17420889D02*
X9717819Y-17382793D01*
X9717819Y-17382793D02*
X9717819Y-17335174D01*
X9717819Y-17335174D02*
X9727342Y-17297079D01*
X9727342Y-17297079D02*
X9736866Y-17278031D01*
X9736866Y-17278031D02*
X9746390Y-17268508D01*
X9746390Y-17268508D02*
X9765438Y-17258984D01*
X9917819Y-17458984D02*
X9917819Y-17325650D01*
X9917819Y-17344698D02*
X9927342Y-17335174D01*
X9927342Y-17335174D02*
X9946390Y-17325650D01*
X9946390Y-17325650D02*
X9974962Y-17325650D01*
X9974962Y-17325650D02*
X9994009Y-17335174D01*
X9994009Y-17335174D02*
X10003533Y-17354222D01*
X10003533Y-17354222D02*
X10003533Y-17458984D01*
X10003533Y-17354222D02*
X10013057Y-17335174D01*
X10013057Y-17335174D02*
X10032104Y-17325650D01*
X10032104Y-17325650D02*
X10060676Y-17325650D01*
X10060676Y-17325650D02*
X10079723Y-17335174D01*
X10079723Y-17335174D02*
X10089247Y-17354222D01*
X10089247Y-17354222D02*
X10089247Y-17458984D01*
X10184485Y-17458984D02*
X10184485Y-17325650D01*
X10184485Y-17344698D02*
X10194009Y-17335174D01*
X10194009Y-17335174D02*
X10213057Y-17325650D01*
X10213057Y-17325650D02*
X10241628Y-17325650D01*
X10241628Y-17325650D02*
X10260676Y-17335174D01*
X10260676Y-17335174D02*
X10270200Y-17354222D01*
X10270200Y-17354222D02*
X10270200Y-17458984D01*
X10270200Y-17354222D02*
X10279723Y-17335174D01*
X10279723Y-17335174D02*
X10298771Y-17325650D01*
X10298771Y-17325650D02*
X10327342Y-17325650D01*
X10327342Y-17325650D02*
X10346390Y-17335174D01*
X10346390Y-17335174D02*
X10355914Y-17354222D01*
X10355914Y-17354222D02*
X10355914Y-17458984D01*
X10746390Y-17249460D02*
X10574962Y-17506603D01*
X11003533Y-17258984D02*
X11022581Y-17258984D01*
X11022581Y-17258984D02*
X11041628Y-17268508D01*
X11041628Y-17268508D02*
X11051152Y-17278031D01*
X11051152Y-17278031D02*
X11060676Y-17297079D01*
X11060676Y-17297079D02*
X11070200Y-17335174D01*
X11070200Y-17335174D02*
X11070200Y-17382793D01*
X11070200Y-17382793D02*
X11060676Y-17420889D01*
X11060676Y-17420889D02*
X11051152Y-17439936D01*
X11051152Y-17439936D02*
X11041628Y-17449460D01*
X11041628Y-17449460D02*
X11022581Y-17458984D01*
X11022581Y-17458984D02*
X11003533Y-17458984D01*
X11003533Y-17458984D02*
X10984485Y-17449460D01*
X10984485Y-17449460D02*
X10974962Y-17439936D01*
X10974962Y-17439936D02*
X10965438Y-17420889D01*
X10965438Y-17420889D02*
X10955914Y-17382793D01*
X10955914Y-17382793D02*
X10955914Y-17335174D01*
X10955914Y-17335174D02*
X10965438Y-17297079D01*
X10965438Y-17297079D02*
X10974962Y-17278031D01*
X10974962Y-17278031D02*
X10984485Y-17268508D01*
X10984485Y-17268508D02*
X11003533Y-17258984D01*
X11155914Y-17439936D02*
X11165438Y-17449460D01*
X11165438Y-17449460D02*
X11155914Y-17458984D01*
X11155914Y-17458984D02*
X11146390Y-17449460D01*
X11146390Y-17449460D02*
X11155914Y-17439936D01*
X11155914Y-17439936D02*
X11155914Y-17458984D01*
X11289247Y-17258984D02*
X11308295Y-17258984D01*
X11308295Y-17258984D02*
X11327343Y-17268508D01*
X11327343Y-17268508D02*
X11336866Y-17278031D01*
X11336866Y-17278031D02*
X11346390Y-17297079D01*
X11346390Y-17297079D02*
X11355914Y-17335174D01*
X11355914Y-17335174D02*
X11355914Y-17382793D01*
X11355914Y-17382793D02*
X11346390Y-17420889D01*
X11346390Y-17420889D02*
X11336866Y-17439936D01*
X11336866Y-17439936D02*
X11327343Y-17449460D01*
X11327343Y-17449460D02*
X11308295Y-17458984D01*
X11308295Y-17458984D02*
X11289247Y-17458984D01*
X11289247Y-17458984D02*
X11270200Y-17449460D01*
X11270200Y-17449460D02*
X11260676Y-17439936D01*
X11260676Y-17439936D02*
X11251152Y-17420889D01*
X11251152Y-17420889D02*
X11241628Y-17382793D01*
X11241628Y-17382793D02*
X11241628Y-17335174D01*
X11241628Y-17335174D02*
X11251152Y-17297079D01*
X11251152Y-17297079D02*
X11260676Y-17278031D01*
X11260676Y-17278031D02*
X11270200Y-17268508D01*
X11270200Y-17268508D02*
X11289247Y-17258984D01*
X11422581Y-17258984D02*
X11546390Y-17258984D01*
X11546390Y-17258984D02*
X11479723Y-17335174D01*
X11479723Y-17335174D02*
X11508295Y-17335174D01*
X11508295Y-17335174D02*
X11527343Y-17344698D01*
X11527343Y-17344698D02*
X11536866Y-17354222D01*
X11536866Y-17354222D02*
X11546390Y-17373270D01*
X11546390Y-17373270D02*
X11546390Y-17420889D01*
X11546390Y-17420889D02*
X11536866Y-17439936D01*
X11536866Y-17439936D02*
X11527343Y-17449460D01*
X11527343Y-17449460D02*
X11508295Y-17458984D01*
X11508295Y-17458984D02*
X11451152Y-17458984D01*
X11451152Y-17458984D02*
X11432104Y-17449460D01*
X11432104Y-17449460D02*
X11422581Y-17439936D01*
X11641628Y-17458984D02*
X11679723Y-17458984D01*
X11679723Y-17458984D02*
X11698771Y-17449460D01*
X11698771Y-17449460D02*
X11708295Y-17439936D01*
X11708295Y-17439936D02*
X11727343Y-17411365D01*
X11727343Y-17411365D02*
X11736866Y-17373270D01*
X11736866Y-17373270D02*
X11736866Y-17297079D01*
X11736866Y-17297079D02*
X11727343Y-17278031D01*
X11727343Y-17278031D02*
X11717819Y-17268508D01*
X11717819Y-17268508D02*
X11698771Y-17258984D01*
X11698771Y-17258984D02*
X11660676Y-17258984D01*
X11660676Y-17258984D02*
X11641628Y-17268508D01*
X11641628Y-17268508D02*
X11632104Y-17278031D01*
X11632104Y-17278031D02*
X11622581Y-17297079D01*
X11622581Y-17297079D02*
X11622581Y-17344698D01*
X11622581Y-17344698D02*
X11632104Y-17363746D01*
X11632104Y-17363746D02*
X11641628Y-17373270D01*
X11641628Y-17373270D02*
X11660676Y-17382793D01*
X11660676Y-17382793D02*
X11698771Y-17382793D01*
X11698771Y-17382793D02*
X11717819Y-17373270D01*
X11717819Y-17373270D02*
X11727343Y-17363746D01*
X11727343Y-17363746D02*
X11736866Y-17344698D01*
X11908295Y-17325650D02*
X11908295Y-17458984D01*
X11860676Y-17249460D02*
X11813057Y-17392317D01*
X11813057Y-17392317D02*
X11936866Y-17392317D01*
X12003533Y-17258984D02*
X12003533Y-17297079D01*
X12079724Y-17258984D02*
X12079724Y-17297079D01*
X12374962Y-17535174D02*
X12365438Y-17525650D01*
X12365438Y-17525650D02*
X12346390Y-17497079D01*
X12346390Y-17497079D02*
X12336866Y-17478031D01*
X12336866Y-17478031D02*
X12327343Y-17449460D01*
X12327343Y-17449460D02*
X12317819Y-17401841D01*
X12317819Y-17401841D02*
X12317819Y-17363746D01*
X12317819Y-17363746D02*
X12327343Y-17316127D01*
X12327343Y-17316127D02*
X12336866Y-17287555D01*
X12336866Y-17287555D02*
X12346390Y-17268508D01*
X12346390Y-17268508D02*
X12365438Y-17239936D01*
X12365438Y-17239936D02*
X12374962Y-17230412D01*
X12555914Y-17458984D02*
X12441628Y-17458984D01*
X12498771Y-17458984D02*
X12498771Y-17258984D01*
X12498771Y-17258984D02*
X12479724Y-17287555D01*
X12479724Y-17287555D02*
X12460676Y-17306603D01*
X12460676Y-17306603D02*
X12441628Y-17316127D01*
X12746390Y-17458984D02*
X12632105Y-17458984D01*
X12689247Y-17458984D02*
X12689247Y-17258984D01*
X12689247Y-17258984D02*
X12670200Y-17287555D01*
X12670200Y-17287555D02*
X12651152Y-17306603D01*
X12651152Y-17306603D02*
X12632105Y-17316127D01*
X12813057Y-17258984D02*
X12946390Y-17258984D01*
X12946390Y-17258984D02*
X12860676Y-17458984D01*
X13174962Y-17458984D02*
X13174962Y-17258984D01*
X13260676Y-17458984D02*
X13260676Y-17354222D01*
X13260676Y-17354222D02*
X13251152Y-17335174D01*
X13251152Y-17335174D02*
X13232105Y-17325650D01*
X13232105Y-17325650D02*
X13203533Y-17325650D01*
X13203533Y-17325650D02*
X13184486Y-17335174D01*
X13184486Y-17335174D02*
X13174962Y-17344698D01*
X13384486Y-17458984D02*
X13365438Y-17449460D01*
X13365438Y-17449460D02*
X13355914Y-17439936D01*
X13355914Y-17439936D02*
X13346390Y-17420889D01*
X13346390Y-17420889D02*
X13346390Y-17363746D01*
X13346390Y-17363746D02*
X13355914Y-17344698D01*
X13355914Y-17344698D02*
X13365438Y-17335174D01*
X13365438Y-17335174D02*
X13384486Y-17325650D01*
X13384486Y-17325650D02*
X13413057Y-17325650D01*
X13413057Y-17325650D02*
X13432105Y-17335174D01*
X13432105Y-17335174D02*
X13441628Y-17344698D01*
X13441628Y-17344698D02*
X13451152Y-17363746D01*
X13451152Y-17363746D02*
X13451152Y-17420889D01*
X13451152Y-17420889D02*
X13441628Y-17439936D01*
X13441628Y-17439936D02*
X13432105Y-17449460D01*
X13432105Y-17449460D02*
X13413057Y-17458984D01*
X13413057Y-17458984D02*
X13384486Y-17458984D01*
X13565438Y-17458984D02*
X13546390Y-17449460D01*
X13546390Y-17449460D02*
X13536867Y-17430412D01*
X13536867Y-17430412D02*
X13536867Y-17258984D01*
X13717819Y-17449460D02*
X13698771Y-17458984D01*
X13698771Y-17458984D02*
X13660676Y-17458984D01*
X13660676Y-17458984D02*
X13641628Y-17449460D01*
X13641628Y-17449460D02*
X13632105Y-17430412D01*
X13632105Y-17430412D02*
X13632105Y-17354222D01*
X13632105Y-17354222D02*
X13641628Y-17335174D01*
X13641628Y-17335174D02*
X13660676Y-17325650D01*
X13660676Y-17325650D02*
X13698771Y-17325650D01*
X13698771Y-17325650D02*
X13717819Y-17335174D01*
X13717819Y-17335174D02*
X13727343Y-17354222D01*
X13727343Y-17354222D02*
X13727343Y-17373270D01*
X13727343Y-17373270D02*
X13632105Y-17392317D01*
X13803533Y-17449460D02*
X13822581Y-17458984D01*
X13822581Y-17458984D02*
X13860676Y-17458984D01*
X13860676Y-17458984D02*
X13879724Y-17449460D01*
X13879724Y-17449460D02*
X13889248Y-17430412D01*
X13889248Y-17430412D02*
X13889248Y-17420889D01*
X13889248Y-17420889D02*
X13879724Y-17401841D01*
X13879724Y-17401841D02*
X13860676Y-17392317D01*
X13860676Y-17392317D02*
X13832105Y-17392317D01*
X13832105Y-17392317D02*
X13813057Y-17382793D01*
X13813057Y-17382793D02*
X13803533Y-17363746D01*
X13803533Y-17363746D02*
X13803533Y-17354222D01*
X13803533Y-17354222D02*
X13813057Y-17335174D01*
X13813057Y-17335174D02*
X13832105Y-17325650D01*
X13832105Y-17325650D02*
X13860676Y-17325650D01*
X13860676Y-17325650D02*
X13879724Y-17335174D01*
X13955914Y-17535174D02*
X13965438Y-17525650D01*
X13965438Y-17525650D02*
X13984486Y-17497079D01*
X13984486Y-17497079D02*
X13994009Y-17478031D01*
X13994009Y-17478031D02*
X14003533Y-17449460D01*
X14003533Y-17449460D02*
X14013057Y-17401841D01*
X14013057Y-17401841D02*
X14013057Y-17363746D01*
X14013057Y-17363746D02*
X14003533Y-17316127D01*
X14003533Y-17316127D02*
X13994009Y-17287555D01*
X13994009Y-17287555D02*
X13984486Y-17268508D01*
X13984486Y-17268508D02*
X13965438Y-17239936D01*
X13965438Y-17239936D02*
X13955914Y-17230412D01*
M02*
