%TF.GenerationSoftware,KiCad,Pcbnew,7.0.7*%
%TF.CreationDate,2023-09-25T22:52:37-04:00*%
%TF.ProjectId,Matrix,4d617472-6978-42e6-9b69-6361645f7063,rev?*%
%TF.SameCoordinates,Original*%
%TF.FileFunction,Profile,NP*%
%FSLAX46Y46*%
G04 Gerber Fmt 4.6, Leading zero omitted, Abs format (unit mm)*
G04 Created by KiCad (PCBNEW 7.0.7) date 2023-09-25 22:52:37*
%MOMM*%
%LPD*%
G01*
G04 APERTURE LIST*
%TA.AperFunction,Profile*%
%ADD10C,0.100000*%
%TD*%
G04 APERTURE END LIST*
D10*
X168500000Y-154025000D02*
X168480000Y-56970000D01*
X171540000Y-42910000D02*
X203420989Y-42910000D01*
X123020000Y-48450000D02*
X123020000Y-42910000D01*
X119960000Y-56980000D02*
X119960000Y-61930000D01*
X123000000Y-56980000D02*
G75*
G03*
X119960000Y-56980000I-1520000J0D01*
G01*
X122990000Y-154025000D02*
X168500000Y-154025000D01*
X123020000Y-42910000D02*
X168500000Y-42910000D01*
X88048989Y-61930000D02*
X88048989Y-42910000D01*
X122990000Y-154025000D02*
X123000000Y-56980000D01*
X171540000Y-48440000D02*
X171540000Y-42910000D01*
X203420989Y-42910000D02*
X203430989Y-61927000D01*
X88048989Y-42910000D02*
X119980000Y-42910000D01*
X168500000Y-48440000D02*
X168500000Y-42910000D01*
X168500000Y-48440000D02*
G75*
G03*
X171540000Y-48440000I1520000J0D01*
G01*
X119980000Y-48450000D02*
G75*
G03*
X123020000Y-48450000I1520000J0D01*
G01*
X171520000Y-56970000D02*
G75*
G03*
X168480000Y-56970000I-1520000J0D01*
G01*
X171520000Y-56970000D02*
X171520000Y-61930000D01*
X203430989Y-61927000D02*
X171520000Y-61930000D01*
X119960000Y-61930000D02*
X88048989Y-61930000D01*
X119980000Y-48450000D02*
X119980000Y-42910000D01*
M02*
