%TF.GenerationSoftware,KiCad,Pcbnew,7.0.7*%
%TF.CreationDate,2023-09-25T22:52:37-04:00*%
%TF.ProjectId,Matrix,4d617472-6978-42e6-9b69-6361645f7063,rev?*%
%TF.SameCoordinates,Original*%
%TF.FileFunction,Soldermask,Top*%
%TF.FilePolarity,Negative*%
%FSLAX46Y46*%
G04 Gerber Fmt 4.6, Leading zero omitted, Abs format (unit mm)*
G04 Created by KiCad (PCBNEW 7.0.7) date 2023-09-25 22:52:37*
%MOMM*%
%LPD*%
G01*
G04 APERTURE LIST*
G04 Aperture macros list*
%AMRoundRect*
0 Rectangle with rounded corners*
0 $1 Rounding radius*
0 $2 $3 $4 $5 $6 $7 $8 $9 X,Y pos of 4 corners*
0 Add a 4 corners polygon primitive as box body*
4,1,4,$2,$3,$4,$5,$6,$7,$8,$9,$2,$3,0*
0 Add four circle primitives for the rounded corners*
1,1,$1+$1,$2,$3*
1,1,$1+$1,$4,$5*
1,1,$1+$1,$6,$7*
1,1,$1+$1,$8,$9*
0 Add four rect primitives between the rounded corners*
20,1,$1+$1,$2,$3,$4,$5,0*
20,1,$1+$1,$4,$5,$6,$7,0*
20,1,$1+$1,$6,$7,$8,$9,0*
20,1,$1+$1,$8,$9,$2,$3,0*%
G04 Aperture macros list end*
%ADD10R,1.800000X1.800000*%
%ADD11C,1.800000*%
%ADD12C,2.200000*%
%ADD13R,1.500000X1.000000*%
%ADD14C,0.500000*%
%ADD15R,2.100000X1.900000*%
%ADD16O,2.100000X1.900000*%
%ADD17O,1.200000X2.000000*%
%ADD18R,1.700000X1.700000*%
%ADD19O,1.700000X1.700000*%
%ADD20R,1.600000X1.600000*%
%ADD21O,1.600000X1.600000*%
%ADD22RoundRect,0.250000X0.750000X-0.600000X0.750000X0.600000X-0.750000X0.600000X-0.750000X-0.600000X0*%
%ADD23O,2.000000X1.700000*%
%ADD24RoundRect,0.250000X-0.625000X0.350000X-0.625000X-0.350000X0.625000X-0.350000X0.625000X0.350000X0*%
%ADD25O,1.750000X1.200000*%
%ADD26C,1.600000*%
%ADD27R,1.300000X1.300000*%
%ADD28C,1.300000*%
%ADD29RoundRect,0.250000X-0.600000X-0.750000X0.600000X-0.750000X0.600000X0.750000X-0.600000X0.750000X0*%
%ADD30O,1.700000X2.000000*%
%ADD31RoundRect,0.250000X-0.725000X0.600000X-0.725000X-0.600000X0.725000X-0.600000X0.725000X0.600000X0*%
%ADD32O,1.950000X1.700000*%
%ADD33RoundRect,0.250000X0.725000X-0.600000X0.725000X0.600000X-0.725000X0.600000X-0.725000X-0.600000X0*%
%ADD34RoundRect,0.250000X-0.750000X0.600000X-0.750000X-0.600000X0.750000X-0.600000X0.750000X0.600000X0*%
G04 APERTURE END LIST*
D10*
%TO.C,D5*%
X189004505Y-45112000D03*
D11*
X191544505Y-45112000D03*
%TD*%
D12*
%TO.C,REF\u002A\u002A*%
X151659011Y-134225000D03*
%TD*%
%TO.C,REF\u002A\u002A*%
X90509253Y-57412000D03*
%TD*%
D13*
%TO.C,JP5*%
X149400000Y-92800000D03*
X149400000Y-91500000D03*
X149400000Y-90200000D03*
%TD*%
%TO.C,JP7*%
X131200000Y-117600000D03*
X131200000Y-116300000D03*
X131200000Y-115000000D03*
%TD*%
D12*
%TO.C,REF\u002A\u002A*%
X90509253Y-45212000D03*
%TD*%
D14*
%TO.C,mouse-bite-3mm-slot*%
X119980000Y-55485000D03*
X122980000Y-55485000D03*
X122980000Y-54235000D03*
X119980000Y-54223000D03*
X119980000Y-52735000D03*
X122980000Y-52735000D03*
X119980000Y-51235000D03*
X122980000Y-51235000D03*
X119980000Y-49985000D03*
X122980000Y-49985000D03*
%TD*%
D12*
%TO.C,REF\u002A\u002A*%
X125659011Y-65200000D03*
%TD*%
%TO.C,REF\u002A\u002A*%
X179808770Y-57412000D03*
%TD*%
%TO.C,REF\u002A\u002A*%
X111509253Y-45212000D03*
%TD*%
%TO.C,REF\u002A\u002A*%
X151659011Y-45225000D03*
%TD*%
D15*
%TO.C,SW1*%
X97276753Y-48924500D03*
D16*
X104896753Y-54004500D03*
X97276753Y-54004500D03*
X104896753Y-48924500D03*
X97276753Y-51464500D03*
X104896753Y-51464500D03*
%TD*%
D12*
%TO.C,REF\u002A\u002A*%
X145659011Y-126825000D03*
%TD*%
D17*
%TO.C,SW8*%
X143700000Y-80325000D03*
X143700000Y-98325000D03*
%TD*%
D10*
%TO.C,D11*%
X144384011Y-147850000D03*
D11*
X146924011Y-147850000D03*
%TD*%
D13*
%TO.C,JP1*%
X134800000Y-125400000D03*
X134800000Y-126700000D03*
X134800000Y-128000000D03*
%TD*%
D10*
%TO.C,D2*%
X107520000Y-51387000D03*
D11*
X110060000Y-51387000D03*
%TD*%
D13*
%TO.C,JP6*%
X161690000Y-111690000D03*
X161690000Y-110390000D03*
X161690000Y-109090000D03*
%TD*%
D10*
%TO.C,D6*%
X196755494Y-51312000D03*
D11*
X199295494Y-51312000D03*
%TD*%
D14*
%TO.C,mouse-bite-3mm-slot*%
X168500000Y-55475000D03*
X171500000Y-55475000D03*
X171500000Y-54225000D03*
X168500000Y-54213000D03*
X168500000Y-52725000D03*
X171500000Y-52725000D03*
X168500000Y-51225000D03*
X171500000Y-51225000D03*
X168500000Y-49975000D03*
X171500000Y-49975000D03*
%TD*%
D10*
%TO.C,D10*%
X152135000Y-141450000D03*
D11*
X154675000Y-141450000D03*
%TD*%
D13*
%TO.C,JP4*%
X139700000Y-92800000D03*
X139700000Y-91500000D03*
X139700000Y-90200000D03*
%TD*%
D15*
%TO.C,SW2*%
X186576270Y-48849500D03*
D16*
X194196270Y-53929500D03*
X186576270Y-53929500D03*
X194196270Y-48849500D03*
X186576270Y-51389500D03*
X194196270Y-51389500D03*
%TD*%
D12*
%TO.C,REF\u002A\u002A*%
X139659011Y-45225000D03*
%TD*%
D10*
%TO.C,D1*%
X99769011Y-45187000D03*
D11*
X102309011Y-45187000D03*
%TD*%
D12*
%TO.C,REF\u002A\u002A*%
X179808770Y-45212000D03*
%TD*%
D10*
%TO.C,D3*%
X99769011Y-57787000D03*
D11*
X102309011Y-57787000D03*
%TD*%
D13*
%TO.C,JP3*%
X141500000Y-106600000D03*
X141500000Y-105300000D03*
X141500000Y-104000000D03*
%TD*%
D12*
%TO.C,REF\u002A\u002A*%
X200808770Y-45212000D03*
%TD*%
%TO.C,REF\u002A\u002A*%
X139659011Y-134225000D03*
%TD*%
%TO.C,REF\u002A\u002A*%
X111509253Y-57412000D03*
%TD*%
D10*
%TO.C,D9*%
X144384011Y-135250000D03*
D11*
X146924011Y-135250000D03*
%TD*%
D13*
%TO.C,JP2*%
X156700000Y-129800000D03*
X156700000Y-128500000D03*
X156700000Y-127200000D03*
%TD*%
D15*
%TO.C,SW3*%
X141926511Y-138987500D03*
D16*
X149546511Y-144067500D03*
X141926511Y-144067500D03*
X149546511Y-138987500D03*
X141926511Y-141527500D03*
X149546511Y-141527500D03*
%TD*%
D12*
%TO.C,REF\u002A\u002A*%
X165659011Y-65200000D03*
%TD*%
D17*
%TO.C,SW6*%
X136200000Y-63700000D03*
X136200000Y-45700000D03*
%TD*%
%TO.C,SW5*%
X124500000Y-70500000D03*
X124500000Y-88500000D03*
%TD*%
%TO.C,SW7*%
X155100000Y-63700000D03*
X155100000Y-45700000D03*
%TD*%
D11*
%TO.C,D4*%
X94700000Y-51387000D03*
D10*
X92160000Y-51387000D03*
%TD*%
D11*
%TO.C,D12*%
X139315000Y-141450000D03*
D10*
X136775000Y-141450000D03*
%TD*%
D11*
%TO.C,D8*%
X183935494Y-51312000D03*
D10*
X181395494Y-51312000D03*
%TD*%
%TO.C,D7*%
X189004505Y-57712000D03*
D11*
X191544505Y-57712000D03*
%TD*%
D12*
%TO.C,REF\u002A\u002A*%
X200808770Y-57412000D03*
%TD*%
D18*
%TO.C,J16*%
X154534011Y-67000000D03*
D19*
X151994011Y-67000000D03*
X136754011Y-67000000D03*
X144374011Y-67000000D03*
X141834011Y-67000000D03*
X149454011Y-67000000D03*
X139294011Y-67000000D03*
X146914011Y-67000000D03*
%TD*%
D20*
%TO.C,D21*%
X140000000Y-55200000D03*
D21*
X132380000Y-55200000D03*
%TD*%
D22*
%TO.C,J6*%
X165000000Y-150525000D03*
D23*
X165000000Y-148025000D03*
%TD*%
D24*
%TO.C,J14*%
X128900000Y-102600000D03*
D25*
X128900000Y-104600000D03*
X128900000Y-106600000D03*
X128900000Y-108600000D03*
X128900000Y-110600000D03*
%TD*%
D26*
%TO.C,R7*%
X159500000Y-126925000D03*
D21*
X149340000Y-126925000D03*
%TD*%
D20*
%TO.C,D30*%
X144000000Y-113490000D03*
D21*
X144000000Y-121110000D03*
%TD*%
D18*
%TO.C,J15*%
X150734011Y-70000000D03*
D19*
X148194011Y-70000000D03*
X145654011Y-70000000D03*
X143114011Y-70000000D03*
X140574011Y-70000000D03*
%TD*%
D27*
%TO.C,Q2*%
X159540000Y-142025000D03*
D28*
X158270000Y-140755000D03*
X157000000Y-142025000D03*
%TD*%
D27*
%TO.C,Q7*%
X127670000Y-96295000D03*
D28*
X126400000Y-95025000D03*
X125130000Y-96295000D03*
%TD*%
D26*
%TO.C,R3*%
X149300000Y-100725000D03*
D21*
X149300000Y-110885000D03*
%TD*%
D19*
%TO.C,1*%
X157100000Y-120365000D03*
X157100000Y-117825000D03*
X157100000Y-115285000D03*
X157100000Y-110205000D03*
D18*
X157100000Y-77185000D03*
D19*
X157100000Y-79725000D03*
X157100000Y-107665000D03*
X157100000Y-112745000D03*
X157100000Y-105125000D03*
X157100000Y-122905000D03*
X157100000Y-97505000D03*
X157100000Y-100045000D03*
X157100000Y-102585000D03*
X157100000Y-92425000D03*
X157100000Y-94965000D03*
X157100000Y-87345000D03*
X157100000Y-89885000D03*
X157100000Y-82265000D03*
X157100000Y-84805000D03*
%TD*%
D29*
%TO.C,J9*%
X133784011Y-150525000D03*
D30*
X136284011Y-150525000D03*
%TD*%
D20*
%TO.C,D13*%
X151280000Y-50000000D03*
D21*
X158900000Y-50000000D03*
%TD*%
D20*
%TO.C,D19*%
X140000000Y-50000000D03*
D21*
X132380000Y-50000000D03*
%TD*%
D20*
%TO.C,D18*%
X151300000Y-63000000D03*
D21*
X158920000Y-63000000D03*
%TD*%
D26*
%TO.C,R5*%
X149300000Y-113445000D03*
D21*
X149300000Y-123605000D03*
%TD*%
D22*
%TO.C,J2*%
X165000000Y-112025000D03*
D23*
X165000000Y-109525000D03*
%TD*%
D18*
%TO.C,DIAL 2*%
X163189011Y-45000000D03*
D19*
X163189011Y-47540000D03*
X163189011Y-50080000D03*
X163189011Y-52620000D03*
X163189011Y-55160000D03*
X163189011Y-57700000D03*
X163189011Y-60240000D03*
%TD*%
D31*
%TO.C,J14*%
X126500000Y-101525000D03*
D32*
X126500000Y-104025000D03*
X126500000Y-106525000D03*
X126500000Y-109025000D03*
X126500000Y-111525000D03*
%TD*%
D27*
%TO.C,Q1*%
X159540000Y-136885000D03*
D28*
X158270000Y-135615000D03*
X157000000Y-136885000D03*
%TD*%
D26*
%TO.C,R1*%
X149300000Y-88125000D03*
D21*
X149300000Y-98285000D03*
%TD*%
D26*
%TO.C,R4*%
X152800000Y-100765000D03*
D21*
X152800000Y-110925000D03*
%TD*%
D27*
%TO.C,Q6*%
X166370000Y-92795000D03*
D28*
X165100000Y-91525000D03*
X163830000Y-92795000D03*
%TD*%
D20*
%TO.C,D32*%
X144000000Y-103300000D03*
D21*
X144000000Y-110920000D03*
%TD*%
D27*
%TO.C,Q3*%
X134500000Y-131425000D03*
D28*
X133230000Y-130155000D03*
X131960000Y-131425000D03*
%TD*%
D33*
%TO.C,J1*%
X165000000Y-103025000D03*
D32*
X165000000Y-100525000D03*
X165000000Y-98025000D03*
%TD*%
D26*
%TO.C,R13*%
X141300000Y-100825000D03*
D21*
X141300000Y-110985000D03*
%TD*%
D26*
%TO.C,R12*%
X137900000Y-113525000D03*
D21*
X137900000Y-123685000D03*
%TD*%
D20*
%TO.C,D14*%
X151280000Y-52600000D03*
D21*
X158900000Y-52600000D03*
%TD*%
D26*
%TO.C,R6*%
X152800000Y-113425000D03*
D21*
X152800000Y-123585000D03*
%TD*%
D26*
%TO.C,R11*%
X141300000Y-113525000D03*
D21*
X141300000Y-123685000D03*
%TD*%
D26*
%TO.C,R15*%
X141300000Y-88145000D03*
D21*
X141300000Y-98305000D03*
%TD*%
D20*
%TO.C,D16*%
X151280000Y-57800000D03*
D21*
X158900000Y-57800000D03*
%TD*%
D22*
%TO.C,J5*%
X165000000Y-141525000D03*
D23*
X165000000Y-139025000D03*
%TD*%
D26*
%TO.C,R10*%
X147200000Y-130125000D03*
D21*
X137040000Y-130125000D03*
%TD*%
D20*
%TO.C,D23*%
X140000000Y-60400000D03*
D21*
X132380000Y-60400000D03*
%TD*%
D34*
%TO.C,J12*%
X126500000Y-129525000D03*
D23*
X126500000Y-132025000D03*
%TD*%
D26*
%TO.C,R9*%
X141900000Y-126825000D03*
D21*
X131740000Y-126825000D03*
%TD*%
D20*
%TO.C,D17*%
X151280000Y-60400000D03*
D21*
X158900000Y-60400000D03*
%TD*%
D29*
%TO.C,J7*%
X155034011Y-150550000D03*
D30*
X157534011Y-150550000D03*
%TD*%
D20*
%TO.C,D26*%
X163400000Y-80125000D03*
D21*
X163400000Y-87745000D03*
%TD*%
D20*
%TO.C,D28*%
X126900000Y-83925000D03*
D21*
X126900000Y-91545000D03*
%TD*%
D26*
%TO.C,R17*%
X145800000Y-88145000D03*
D21*
X145800000Y-98305000D03*
%TD*%
D26*
%TO.C,R14*%
X137900000Y-100825000D03*
D21*
X137900000Y-110985000D03*
%TD*%
D19*
%TO.C,20*%
X134250000Y-122905000D03*
X134250000Y-120365000D03*
X134250000Y-117825000D03*
X134250000Y-110205000D03*
X134250000Y-84805000D03*
D18*
X134250000Y-77185000D03*
D19*
X134250000Y-115285000D03*
X134250000Y-87345000D03*
X134250000Y-107665000D03*
X134250000Y-100045000D03*
X134250000Y-92425000D03*
X134250000Y-112745000D03*
X134250000Y-105125000D03*
X134250000Y-102585000D03*
X134250000Y-97505000D03*
X134250000Y-94965000D03*
X134250000Y-89885000D03*
X134250000Y-82265000D03*
X134250000Y-79725000D03*
%TD*%
D31*
%TO.C,J13*%
X126500000Y-118025000D03*
D32*
X126500000Y-120525000D03*
X126500000Y-123025000D03*
%TD*%
D18*
%TO.C,DIAL 1*%
X116159011Y-45010000D03*
D19*
X116159011Y-47550000D03*
X116159011Y-50090000D03*
X116159011Y-52630000D03*
X116159011Y-55170000D03*
X116159011Y-57710000D03*
X116159011Y-60250000D03*
%TD*%
D22*
%TO.C,J4*%
X165000000Y-132525000D03*
D23*
X165000000Y-130025000D03*
%TD*%
D20*
%TO.C,D15*%
X151280000Y-55200000D03*
D21*
X158900000Y-55200000D03*
%TD*%
D26*
%TO.C,R2*%
X152800000Y-88065000D03*
D21*
X152800000Y-98225000D03*
%TD*%
D27*
%TO.C,Q5*%
X134500000Y-136625000D03*
D28*
X133230000Y-135355000D03*
X131960000Y-136625000D03*
%TD*%
D20*
%TO.C,D31*%
X146600000Y-103300000D03*
D21*
X146600000Y-110920000D03*
%TD*%
D18*
%TO.C,DIAL 1*%
X128129011Y-45010000D03*
D19*
X128129011Y-47550000D03*
X128129011Y-50090000D03*
X128129011Y-52630000D03*
X128129011Y-55170000D03*
X128129011Y-57710000D03*
X128129011Y-60250000D03*
%TD*%
D20*
%TO.C,D25*%
X166000000Y-80125000D03*
D21*
X166000000Y-87745000D03*
%TD*%
D18*
%TO.C,DIAL 2*%
X175159011Y-45000000D03*
D19*
X175159011Y-47540000D03*
X175159011Y-50080000D03*
X175159011Y-52620000D03*
X175159011Y-55160000D03*
X175159011Y-57700000D03*
X175159011Y-60240000D03*
%TD*%
D26*
%TO.C,R16*%
X137900000Y-88165000D03*
D21*
X137900000Y-98325000D03*
%TD*%
D33*
%TO.C,J3*%
X165000000Y-123525000D03*
D32*
X165000000Y-121025000D03*
X165000000Y-118525000D03*
%TD*%
D20*
%TO.C,D20*%
X140000000Y-52600000D03*
D21*
X132380000Y-52600000D03*
%TD*%
D26*
%TO.C,R8*%
X159500000Y-130125000D03*
D21*
X149340000Y-130125000D03*
%TD*%
D20*
%TO.C,D24*%
X140000000Y-63000000D03*
D21*
X132380000Y-63000000D03*
%TD*%
D29*
%TO.C,J8*%
X144330000Y-150537500D03*
D30*
X146830000Y-150537500D03*
%TD*%
D34*
%TO.C,J11*%
X126475000Y-138775000D03*
D23*
X126475000Y-141275000D03*
%TD*%
D20*
%TO.C,D22*%
X140000000Y-57800000D03*
D21*
X132380000Y-57800000D03*
%TD*%
D20*
%TO.C,D27*%
X129500000Y-83925000D03*
D21*
X129500000Y-91545000D03*
%TD*%
D20*
%TO.C,D29*%
X146600000Y-113490000D03*
D21*
X146600000Y-121110000D03*
%TD*%
D27*
%TO.C,Q4*%
X134500000Y-141795000D03*
D28*
X133230000Y-140525000D03*
X131960000Y-141795000D03*
%TD*%
D34*
%TO.C,J10*%
X126475000Y-148025000D03*
D23*
X126475000Y-150525000D03*
%TD*%
M02*
