%TF.GenerationSoftware,KiCad,Pcbnew,7.0.7*%
%TF.CreationDate,2023-09-25T22:52:53-04:00*%
%TF.ProjectId,Matrix,4d617472-6978-42e6-9b69-6361645f7063,rev?*%
%TF.SameCoordinates,Original*%
%TF.FileFunction,Drillmap*%
%TF.FilePolarity,Positive*%
%FSLAX45Y45*%
G04 Gerber Fmt 4.5, Leading zero omitted, Abs format (unit mm)*
G04 Created by KiCad (PCBNEW 7.0.7) date 2023-09-25 22:52:53*
%MOMM*%
%LPD*%
G01*
G04 APERTURE LIST*
%ADD10C,0.100000*%
%ADD11C,0.200000*%
%ADD12C,0.050000*%
%ADD13C,0.220000*%
G04 APERTURE END LIST*
D10*
X16850000Y-15402500D02*
X16848000Y-5697000D01*
X17154000Y-4291000D02*
X20342099Y-4291000D01*
X12302000Y-4845000D02*
X12302000Y-4291000D01*
X11996000Y-5698000D02*
X11996000Y-6193000D01*
X12300000Y-5698000D02*
G75*
G03*
X11996000Y-5698000I-152000J0D01*
G01*
X12299000Y-15402500D02*
X16850000Y-15402500D01*
X12302000Y-4291000D02*
X16850000Y-4291000D01*
X8804899Y-6193000D02*
X8804899Y-4291000D01*
X12299000Y-15402500D02*
X12300000Y-5698000D01*
X17154000Y-4844000D02*
X17154000Y-4291000D01*
X20342099Y-4291000D02*
X20343099Y-6192700D01*
X8804899Y-4291000D02*
X11998000Y-4291000D01*
X16850000Y-4844000D02*
X16850000Y-4291000D01*
X16850000Y-4844000D02*
G75*
G03*
X17154000Y-4844000I152000J0D01*
G01*
X11998000Y-4845000D02*
G75*
G03*
X12302000Y-4845000I152000J0D01*
G01*
X17152000Y-5697000D02*
G75*
G03*
X16848000Y-5697000I-152000J0D01*
G01*
X17152000Y-5697000D02*
X17152000Y-6193000D01*
X20343099Y-6192700D02*
X17152000Y-6193000D01*
X11996000Y-6193000D02*
X8804899Y-6193000D01*
X11998000Y-4845000D02*
X11998000Y-4291000D01*
D11*
D12*
X11973000Y-4973500D02*
X12023000Y-5023500D01*
X12023000Y-4973500D02*
X11973000Y-5023500D01*
X11973000Y-5098500D02*
X12023000Y-5148500D01*
X12023000Y-5098500D02*
X11973000Y-5148500D01*
X11973000Y-5248500D02*
X12023000Y-5298500D01*
X12023000Y-5248500D02*
X11973000Y-5298500D01*
X11973000Y-5397300D02*
X12023000Y-5447300D01*
X12023000Y-5397300D02*
X11973000Y-5447300D01*
X11973000Y-5523500D02*
X12023000Y-5573500D01*
X12023000Y-5523500D02*
X11973000Y-5573500D01*
X12273000Y-4973500D02*
X12323000Y-5023500D01*
X12323000Y-4973500D02*
X12273000Y-5023500D01*
X12273000Y-5098500D02*
X12323000Y-5148500D01*
X12323000Y-5098500D02*
X12273000Y-5148500D01*
X12273000Y-5248500D02*
X12323000Y-5298500D01*
X12323000Y-5248500D02*
X12273000Y-5298500D01*
X12273000Y-5398500D02*
X12323000Y-5448500D01*
X12323000Y-5398500D02*
X12273000Y-5448500D01*
X12273000Y-5523500D02*
X12323000Y-5573500D01*
X12323000Y-5523500D02*
X12273000Y-5573500D01*
X16825000Y-4972500D02*
X16875000Y-5022500D01*
X16875000Y-4972500D02*
X16825000Y-5022500D01*
X16825000Y-5097500D02*
X16875000Y-5147500D01*
X16875000Y-5097500D02*
X16825000Y-5147500D01*
X16825000Y-5247500D02*
X16875000Y-5297500D01*
X16875000Y-5247500D02*
X16825000Y-5297500D01*
X16825000Y-5396300D02*
X16875000Y-5446300D01*
X16875000Y-5396300D02*
X16825000Y-5446300D01*
X16825000Y-5522500D02*
X16875000Y-5572500D01*
X16875000Y-5522500D02*
X16825000Y-5572500D01*
X17125000Y-4972500D02*
X17175000Y-5022500D01*
X17175000Y-4972500D02*
X17125000Y-5022500D01*
X17125000Y-5097500D02*
X17175000Y-5147500D01*
X17175000Y-5097500D02*
X17125000Y-5147500D01*
X17125000Y-5247500D02*
X17175000Y-5297500D01*
X17175000Y-5247500D02*
X17125000Y-5297500D01*
X17125000Y-5397500D02*
X17175000Y-5447500D01*
X17175000Y-5397500D02*
X17125000Y-5447500D01*
X17125000Y-5522500D02*
X17175000Y-5572500D01*
X17175000Y-5522500D02*
X17125000Y-5572500D01*
D13*
X9160925Y-4521200D02*
G75*
G03*
X9160925Y-4521200I-110000J0D01*
G01*
X9160925Y-5741200D02*
G75*
G03*
X9160925Y-5741200I-110000J0D01*
G01*
X11260925Y-4521200D02*
G75*
G03*
X11260925Y-4521200I-110000J0D01*
G01*
X11260925Y-5741200D02*
G75*
G03*
X11260925Y-5741200I-110000J0D01*
G01*
X12675901Y-6520000D02*
G75*
G03*
X12675901Y-6520000I-110000J0D01*
G01*
X14075901Y-4522500D02*
G75*
G03*
X14075901Y-4522500I-110000J0D01*
G01*
X14075901Y-13422500D02*
G75*
G03*
X14075901Y-13422500I-110000J0D01*
G01*
X14675901Y-12682500D02*
G75*
G03*
X14675901Y-12682500I-110000J0D01*
G01*
X15275901Y-4522500D02*
G75*
G03*
X15275901Y-4522500I-110000J0D01*
G01*
X15275901Y-13422500D02*
G75*
G03*
X15275901Y-13422500I-110000J0D01*
G01*
X16675901Y-6520000D02*
G75*
G03*
X16675901Y-6520000I-110000J0D01*
G01*
X18090877Y-4521200D02*
G75*
G03*
X18090877Y-4521200I-110000J0D01*
G01*
X18090877Y-5741200D02*
G75*
G03*
X18090877Y-5741200I-110000J0D01*
G01*
X20190877Y-4521200D02*
G75*
G03*
X20190877Y-4521200I-110000J0D01*
G01*
X20190877Y-5741200D02*
G75*
G03*
X20190877Y-5741200I-110000J0D01*
G01*
D11*
X9060676Y-15718984D02*
X9060676Y-15518984D01*
X9060676Y-15518984D02*
X9108295Y-15518984D01*
X9108295Y-15518984D02*
X9136866Y-15528508D01*
X9136866Y-15528508D02*
X9155914Y-15547555D01*
X9155914Y-15547555D02*
X9165438Y-15566603D01*
X9165438Y-15566603D02*
X9174961Y-15604698D01*
X9174961Y-15604698D02*
X9174961Y-15633269D01*
X9174961Y-15633269D02*
X9165438Y-15671365D01*
X9165438Y-15671365D02*
X9155914Y-15690412D01*
X9155914Y-15690412D02*
X9136866Y-15709460D01*
X9136866Y-15709460D02*
X9108295Y-15718984D01*
X9108295Y-15718984D02*
X9060676Y-15718984D01*
X9260676Y-15718984D02*
X9260676Y-15585650D01*
X9260676Y-15623746D02*
X9270200Y-15604698D01*
X9270200Y-15604698D02*
X9279723Y-15595174D01*
X9279723Y-15595174D02*
X9298771Y-15585650D01*
X9298771Y-15585650D02*
X9317819Y-15585650D01*
X9384485Y-15718984D02*
X9384485Y-15585650D01*
X9384485Y-15518984D02*
X9374961Y-15528508D01*
X9374961Y-15528508D02*
X9384485Y-15538031D01*
X9384485Y-15538031D02*
X9394009Y-15528508D01*
X9394009Y-15528508D02*
X9384485Y-15518984D01*
X9384485Y-15518984D02*
X9384485Y-15538031D01*
X9508295Y-15718984D02*
X9489247Y-15709460D01*
X9489247Y-15709460D02*
X9479723Y-15690412D01*
X9479723Y-15690412D02*
X9479723Y-15518984D01*
X9613057Y-15718984D02*
X9594009Y-15709460D01*
X9594009Y-15709460D02*
X9584485Y-15690412D01*
X9584485Y-15690412D02*
X9584485Y-15518984D01*
X9841628Y-15718984D02*
X9841628Y-15518984D01*
X9841628Y-15518984D02*
X9908295Y-15661841D01*
X9908295Y-15661841D02*
X9974961Y-15518984D01*
X9974961Y-15518984D02*
X9974961Y-15718984D01*
X10155914Y-15718984D02*
X10155914Y-15614222D01*
X10155914Y-15614222D02*
X10146390Y-15595174D01*
X10146390Y-15595174D02*
X10127342Y-15585650D01*
X10127342Y-15585650D02*
X10089247Y-15585650D01*
X10089247Y-15585650D02*
X10070200Y-15595174D01*
X10155914Y-15709460D02*
X10136866Y-15718984D01*
X10136866Y-15718984D02*
X10089247Y-15718984D01*
X10089247Y-15718984D02*
X10070200Y-15709460D01*
X10070200Y-15709460D02*
X10060676Y-15690412D01*
X10060676Y-15690412D02*
X10060676Y-15671365D01*
X10060676Y-15671365D02*
X10070200Y-15652317D01*
X10070200Y-15652317D02*
X10089247Y-15642793D01*
X10089247Y-15642793D02*
X10136866Y-15642793D01*
X10136866Y-15642793D02*
X10155914Y-15633269D01*
X10251152Y-15585650D02*
X10251152Y-15785650D01*
X10251152Y-15595174D02*
X10270200Y-15585650D01*
X10270200Y-15585650D02*
X10308295Y-15585650D01*
X10308295Y-15585650D02*
X10327342Y-15595174D01*
X10327342Y-15595174D02*
X10336866Y-15604698D01*
X10336866Y-15604698D02*
X10346390Y-15623746D01*
X10346390Y-15623746D02*
X10346390Y-15680888D01*
X10346390Y-15680888D02*
X10336866Y-15699936D01*
X10336866Y-15699936D02*
X10327342Y-15709460D01*
X10327342Y-15709460D02*
X10308295Y-15718984D01*
X10308295Y-15718984D02*
X10270200Y-15718984D01*
X10270200Y-15718984D02*
X10251152Y-15709460D01*
X10432104Y-15699936D02*
X10441628Y-15709460D01*
X10441628Y-15709460D02*
X10432104Y-15718984D01*
X10432104Y-15718984D02*
X10422581Y-15709460D01*
X10422581Y-15709460D02*
X10432104Y-15699936D01*
X10432104Y-15699936D02*
X10432104Y-15718984D01*
X10432104Y-15595174D02*
X10441628Y-15604698D01*
X10441628Y-15604698D02*
X10432104Y-15614222D01*
X10432104Y-15614222D02*
X10422581Y-15604698D01*
X10422581Y-15604698D02*
X10432104Y-15595174D01*
X10432104Y-15595174D02*
X10432104Y-15614222D01*
D12*
X8749899Y-16022500D02*
X8799899Y-16072500D01*
X8799899Y-16022500D02*
X8749899Y-16072500D01*
D11*
X9098771Y-15938984D02*
X9117819Y-15938984D01*
X9117819Y-15938984D02*
X9136866Y-15948508D01*
X9136866Y-15948508D02*
X9146390Y-15958031D01*
X9146390Y-15958031D02*
X9155914Y-15977079D01*
X9155914Y-15977079D02*
X9165438Y-16015174D01*
X9165438Y-16015174D02*
X9165438Y-16062793D01*
X9165438Y-16062793D02*
X9155914Y-16100888D01*
X9155914Y-16100888D02*
X9146390Y-16119936D01*
X9146390Y-16119936D02*
X9136866Y-16129460D01*
X9136866Y-16129460D02*
X9117819Y-16138984D01*
X9117819Y-16138984D02*
X9098771Y-16138984D01*
X9098771Y-16138984D02*
X9079723Y-16129460D01*
X9079723Y-16129460D02*
X9070200Y-16119936D01*
X9070200Y-16119936D02*
X9060676Y-16100888D01*
X9060676Y-16100888D02*
X9051152Y-16062793D01*
X9051152Y-16062793D02*
X9051152Y-16015174D01*
X9051152Y-16015174D02*
X9060676Y-15977079D01*
X9060676Y-15977079D02*
X9070200Y-15958031D01*
X9070200Y-15958031D02*
X9079723Y-15948508D01*
X9079723Y-15948508D02*
X9098771Y-15938984D01*
X9251152Y-16119936D02*
X9260676Y-16129460D01*
X9260676Y-16129460D02*
X9251152Y-16138984D01*
X9251152Y-16138984D02*
X9241628Y-16129460D01*
X9241628Y-16129460D02*
X9251152Y-16119936D01*
X9251152Y-16119936D02*
X9251152Y-16138984D01*
X9441628Y-15938984D02*
X9346390Y-15938984D01*
X9346390Y-15938984D02*
X9336866Y-16034222D01*
X9336866Y-16034222D02*
X9346390Y-16024698D01*
X9346390Y-16024698D02*
X9365438Y-16015174D01*
X9365438Y-16015174D02*
X9413057Y-16015174D01*
X9413057Y-16015174D02*
X9432104Y-16024698D01*
X9432104Y-16024698D02*
X9441628Y-16034222D01*
X9441628Y-16034222D02*
X9451152Y-16053269D01*
X9451152Y-16053269D02*
X9451152Y-16100888D01*
X9451152Y-16100888D02*
X9441628Y-16119936D01*
X9441628Y-16119936D02*
X9432104Y-16129460D01*
X9432104Y-16129460D02*
X9413057Y-16138984D01*
X9413057Y-16138984D02*
X9365438Y-16138984D01*
X9365438Y-16138984D02*
X9346390Y-16129460D01*
X9346390Y-16129460D02*
X9336866Y-16119936D01*
X9574961Y-15938984D02*
X9594009Y-15938984D01*
X9594009Y-15938984D02*
X9613057Y-15948508D01*
X9613057Y-15948508D02*
X9622581Y-15958031D01*
X9622581Y-15958031D02*
X9632104Y-15977079D01*
X9632104Y-15977079D02*
X9641628Y-16015174D01*
X9641628Y-16015174D02*
X9641628Y-16062793D01*
X9641628Y-16062793D02*
X9632104Y-16100888D01*
X9632104Y-16100888D02*
X9622581Y-16119936D01*
X9622581Y-16119936D02*
X9613057Y-16129460D01*
X9613057Y-16129460D02*
X9594009Y-16138984D01*
X9594009Y-16138984D02*
X9574961Y-16138984D01*
X9574961Y-16138984D02*
X9555914Y-16129460D01*
X9555914Y-16129460D02*
X9546390Y-16119936D01*
X9546390Y-16119936D02*
X9536866Y-16100888D01*
X9536866Y-16100888D02*
X9527342Y-16062793D01*
X9527342Y-16062793D02*
X9527342Y-16015174D01*
X9527342Y-16015174D02*
X9536866Y-15977079D01*
X9536866Y-15977079D02*
X9546390Y-15958031D01*
X9546390Y-15958031D02*
X9555914Y-15948508D01*
X9555914Y-15948508D02*
X9574961Y-15938984D01*
X9765438Y-15938984D02*
X9784485Y-15938984D01*
X9784485Y-15938984D02*
X9803533Y-15948508D01*
X9803533Y-15948508D02*
X9813057Y-15958031D01*
X9813057Y-15958031D02*
X9822581Y-15977079D01*
X9822581Y-15977079D02*
X9832104Y-16015174D01*
X9832104Y-16015174D02*
X9832104Y-16062793D01*
X9832104Y-16062793D02*
X9822581Y-16100888D01*
X9822581Y-16100888D02*
X9813057Y-16119936D01*
X9813057Y-16119936D02*
X9803533Y-16129460D01*
X9803533Y-16129460D02*
X9784485Y-16138984D01*
X9784485Y-16138984D02*
X9765438Y-16138984D01*
X9765438Y-16138984D02*
X9746390Y-16129460D01*
X9746390Y-16129460D02*
X9736866Y-16119936D01*
X9736866Y-16119936D02*
X9727342Y-16100888D01*
X9727342Y-16100888D02*
X9717819Y-16062793D01*
X9717819Y-16062793D02*
X9717819Y-16015174D01*
X9717819Y-16015174D02*
X9727342Y-15977079D01*
X9727342Y-15977079D02*
X9736866Y-15958031D01*
X9736866Y-15958031D02*
X9746390Y-15948508D01*
X9746390Y-15948508D02*
X9765438Y-15938984D01*
X9917819Y-16138984D02*
X9917819Y-16005650D01*
X9917819Y-16024698D02*
X9927342Y-16015174D01*
X9927342Y-16015174D02*
X9946390Y-16005650D01*
X9946390Y-16005650D02*
X9974962Y-16005650D01*
X9974962Y-16005650D02*
X9994009Y-16015174D01*
X9994009Y-16015174D02*
X10003533Y-16034222D01*
X10003533Y-16034222D02*
X10003533Y-16138984D01*
X10003533Y-16034222D02*
X10013057Y-16015174D01*
X10013057Y-16015174D02*
X10032104Y-16005650D01*
X10032104Y-16005650D02*
X10060676Y-16005650D01*
X10060676Y-16005650D02*
X10079723Y-16015174D01*
X10079723Y-16015174D02*
X10089247Y-16034222D01*
X10089247Y-16034222D02*
X10089247Y-16138984D01*
X10184485Y-16138984D02*
X10184485Y-16005650D01*
X10184485Y-16024698D02*
X10194009Y-16015174D01*
X10194009Y-16015174D02*
X10213057Y-16005650D01*
X10213057Y-16005650D02*
X10241628Y-16005650D01*
X10241628Y-16005650D02*
X10260676Y-16015174D01*
X10260676Y-16015174D02*
X10270200Y-16034222D01*
X10270200Y-16034222D02*
X10270200Y-16138984D01*
X10270200Y-16034222D02*
X10279723Y-16015174D01*
X10279723Y-16015174D02*
X10298771Y-16005650D01*
X10298771Y-16005650D02*
X10327342Y-16005650D01*
X10327342Y-16005650D02*
X10346390Y-16015174D01*
X10346390Y-16015174D02*
X10355914Y-16034222D01*
X10355914Y-16034222D02*
X10355914Y-16138984D01*
X10746390Y-15929460D02*
X10574962Y-16186603D01*
X11003533Y-15938984D02*
X11022581Y-15938984D01*
X11022581Y-15938984D02*
X11041628Y-15948508D01*
X11041628Y-15948508D02*
X11051152Y-15958031D01*
X11051152Y-15958031D02*
X11060676Y-15977079D01*
X11060676Y-15977079D02*
X11070200Y-16015174D01*
X11070200Y-16015174D02*
X11070200Y-16062793D01*
X11070200Y-16062793D02*
X11060676Y-16100888D01*
X11060676Y-16100888D02*
X11051152Y-16119936D01*
X11051152Y-16119936D02*
X11041628Y-16129460D01*
X11041628Y-16129460D02*
X11022581Y-16138984D01*
X11022581Y-16138984D02*
X11003533Y-16138984D01*
X11003533Y-16138984D02*
X10984485Y-16129460D01*
X10984485Y-16129460D02*
X10974962Y-16119936D01*
X10974962Y-16119936D02*
X10965438Y-16100888D01*
X10965438Y-16100888D02*
X10955914Y-16062793D01*
X10955914Y-16062793D02*
X10955914Y-16015174D01*
X10955914Y-16015174D02*
X10965438Y-15977079D01*
X10965438Y-15977079D02*
X10974962Y-15958031D01*
X10974962Y-15958031D02*
X10984485Y-15948508D01*
X10984485Y-15948508D02*
X11003533Y-15938984D01*
X11155914Y-16119936D02*
X11165438Y-16129460D01*
X11165438Y-16129460D02*
X11155914Y-16138984D01*
X11155914Y-16138984D02*
X11146390Y-16129460D01*
X11146390Y-16129460D02*
X11155914Y-16119936D01*
X11155914Y-16119936D02*
X11155914Y-16138984D01*
X11289247Y-15938984D02*
X11308295Y-15938984D01*
X11308295Y-15938984D02*
X11327343Y-15948508D01*
X11327343Y-15948508D02*
X11336866Y-15958031D01*
X11336866Y-15958031D02*
X11346390Y-15977079D01*
X11346390Y-15977079D02*
X11355914Y-16015174D01*
X11355914Y-16015174D02*
X11355914Y-16062793D01*
X11355914Y-16062793D02*
X11346390Y-16100888D01*
X11346390Y-16100888D02*
X11336866Y-16119936D01*
X11336866Y-16119936D02*
X11327343Y-16129460D01*
X11327343Y-16129460D02*
X11308295Y-16138984D01*
X11308295Y-16138984D02*
X11289247Y-16138984D01*
X11289247Y-16138984D02*
X11270200Y-16129460D01*
X11270200Y-16129460D02*
X11260676Y-16119936D01*
X11260676Y-16119936D02*
X11251152Y-16100888D01*
X11251152Y-16100888D02*
X11241628Y-16062793D01*
X11241628Y-16062793D02*
X11241628Y-16015174D01*
X11241628Y-16015174D02*
X11251152Y-15977079D01*
X11251152Y-15977079D02*
X11260676Y-15958031D01*
X11260676Y-15958031D02*
X11270200Y-15948508D01*
X11270200Y-15948508D02*
X11289247Y-15938984D01*
X11546390Y-16138984D02*
X11432104Y-16138984D01*
X11489247Y-16138984D02*
X11489247Y-15938984D01*
X11489247Y-15938984D02*
X11470200Y-15967555D01*
X11470200Y-15967555D02*
X11451152Y-15986603D01*
X11451152Y-15986603D02*
X11432104Y-15996127D01*
X11641628Y-16138984D02*
X11679723Y-16138984D01*
X11679723Y-16138984D02*
X11698771Y-16129460D01*
X11698771Y-16129460D02*
X11708295Y-16119936D01*
X11708295Y-16119936D02*
X11727343Y-16091365D01*
X11727343Y-16091365D02*
X11736866Y-16053269D01*
X11736866Y-16053269D02*
X11736866Y-15977079D01*
X11736866Y-15977079D02*
X11727343Y-15958031D01*
X11727343Y-15958031D02*
X11717819Y-15948508D01*
X11717819Y-15948508D02*
X11698771Y-15938984D01*
X11698771Y-15938984D02*
X11660676Y-15938984D01*
X11660676Y-15938984D02*
X11641628Y-15948508D01*
X11641628Y-15948508D02*
X11632104Y-15958031D01*
X11632104Y-15958031D02*
X11622581Y-15977079D01*
X11622581Y-15977079D02*
X11622581Y-16024698D01*
X11622581Y-16024698D02*
X11632104Y-16043746D01*
X11632104Y-16043746D02*
X11641628Y-16053269D01*
X11641628Y-16053269D02*
X11660676Y-16062793D01*
X11660676Y-16062793D02*
X11698771Y-16062793D01*
X11698771Y-16062793D02*
X11717819Y-16053269D01*
X11717819Y-16053269D02*
X11727343Y-16043746D01*
X11727343Y-16043746D02*
X11736866Y-16024698D01*
X11803533Y-15938984D02*
X11936866Y-15938984D01*
X11936866Y-15938984D02*
X11851152Y-16138984D01*
X12003533Y-15938984D02*
X12003533Y-15977079D01*
X12079724Y-15938984D02*
X12079724Y-15977079D01*
X12374962Y-16215174D02*
X12365438Y-16205650D01*
X12365438Y-16205650D02*
X12346390Y-16177079D01*
X12346390Y-16177079D02*
X12336866Y-16158031D01*
X12336866Y-16158031D02*
X12327343Y-16129460D01*
X12327343Y-16129460D02*
X12317819Y-16081841D01*
X12317819Y-16081841D02*
X12317819Y-16043746D01*
X12317819Y-16043746D02*
X12327343Y-15996127D01*
X12327343Y-15996127D02*
X12336866Y-15967555D01*
X12336866Y-15967555D02*
X12346390Y-15948508D01*
X12346390Y-15948508D02*
X12365438Y-15919936D01*
X12365438Y-15919936D02*
X12374962Y-15910412D01*
X12441628Y-15958031D02*
X12451152Y-15948508D01*
X12451152Y-15948508D02*
X12470200Y-15938984D01*
X12470200Y-15938984D02*
X12517819Y-15938984D01*
X12517819Y-15938984D02*
X12536866Y-15948508D01*
X12536866Y-15948508D02*
X12546390Y-15958031D01*
X12546390Y-15958031D02*
X12555914Y-15977079D01*
X12555914Y-15977079D02*
X12555914Y-15996127D01*
X12555914Y-15996127D02*
X12546390Y-16024698D01*
X12546390Y-16024698D02*
X12432105Y-16138984D01*
X12432105Y-16138984D02*
X12555914Y-16138984D01*
X12679724Y-15938984D02*
X12698771Y-15938984D01*
X12698771Y-15938984D02*
X12717819Y-15948508D01*
X12717819Y-15948508D02*
X12727343Y-15958031D01*
X12727343Y-15958031D02*
X12736866Y-15977079D01*
X12736866Y-15977079D02*
X12746390Y-16015174D01*
X12746390Y-16015174D02*
X12746390Y-16062793D01*
X12746390Y-16062793D02*
X12736866Y-16100888D01*
X12736866Y-16100888D02*
X12727343Y-16119936D01*
X12727343Y-16119936D02*
X12717819Y-16129460D01*
X12717819Y-16129460D02*
X12698771Y-16138984D01*
X12698771Y-16138984D02*
X12679724Y-16138984D01*
X12679724Y-16138984D02*
X12660676Y-16129460D01*
X12660676Y-16129460D02*
X12651152Y-16119936D01*
X12651152Y-16119936D02*
X12641628Y-16100888D01*
X12641628Y-16100888D02*
X12632105Y-16062793D01*
X12632105Y-16062793D02*
X12632105Y-16015174D01*
X12632105Y-16015174D02*
X12641628Y-15977079D01*
X12641628Y-15977079D02*
X12651152Y-15958031D01*
X12651152Y-15958031D02*
X12660676Y-15948508D01*
X12660676Y-15948508D02*
X12679724Y-15938984D01*
X12984486Y-16138984D02*
X12984486Y-15938984D01*
X13070200Y-16138984D02*
X13070200Y-16034222D01*
X13070200Y-16034222D02*
X13060676Y-16015174D01*
X13060676Y-16015174D02*
X13041628Y-16005650D01*
X13041628Y-16005650D02*
X13013057Y-16005650D01*
X13013057Y-16005650D02*
X12994009Y-16015174D01*
X12994009Y-16015174D02*
X12984486Y-16024698D01*
X13194009Y-16138984D02*
X13174962Y-16129460D01*
X13174962Y-16129460D02*
X13165438Y-16119936D01*
X13165438Y-16119936D02*
X13155914Y-16100888D01*
X13155914Y-16100888D02*
X13155914Y-16043746D01*
X13155914Y-16043746D02*
X13165438Y-16024698D01*
X13165438Y-16024698D02*
X13174962Y-16015174D01*
X13174962Y-16015174D02*
X13194009Y-16005650D01*
X13194009Y-16005650D02*
X13222581Y-16005650D01*
X13222581Y-16005650D02*
X13241628Y-16015174D01*
X13241628Y-16015174D02*
X13251152Y-16024698D01*
X13251152Y-16024698D02*
X13260676Y-16043746D01*
X13260676Y-16043746D02*
X13260676Y-16100888D01*
X13260676Y-16100888D02*
X13251152Y-16119936D01*
X13251152Y-16119936D02*
X13241628Y-16129460D01*
X13241628Y-16129460D02*
X13222581Y-16138984D01*
X13222581Y-16138984D02*
X13194009Y-16138984D01*
X13374962Y-16138984D02*
X13355914Y-16129460D01*
X13355914Y-16129460D02*
X13346390Y-16110412D01*
X13346390Y-16110412D02*
X13346390Y-15938984D01*
X13527343Y-16129460D02*
X13508295Y-16138984D01*
X13508295Y-16138984D02*
X13470200Y-16138984D01*
X13470200Y-16138984D02*
X13451152Y-16129460D01*
X13451152Y-16129460D02*
X13441628Y-16110412D01*
X13441628Y-16110412D02*
X13441628Y-16034222D01*
X13441628Y-16034222D02*
X13451152Y-16015174D01*
X13451152Y-16015174D02*
X13470200Y-16005650D01*
X13470200Y-16005650D02*
X13508295Y-16005650D01*
X13508295Y-16005650D02*
X13527343Y-16015174D01*
X13527343Y-16015174D02*
X13536867Y-16034222D01*
X13536867Y-16034222D02*
X13536867Y-16053269D01*
X13536867Y-16053269D02*
X13441628Y-16072317D01*
X13613057Y-16129460D02*
X13632105Y-16138984D01*
X13632105Y-16138984D02*
X13670200Y-16138984D01*
X13670200Y-16138984D02*
X13689248Y-16129460D01*
X13689248Y-16129460D02*
X13698771Y-16110412D01*
X13698771Y-16110412D02*
X13698771Y-16100888D01*
X13698771Y-16100888D02*
X13689248Y-16081841D01*
X13689248Y-16081841D02*
X13670200Y-16072317D01*
X13670200Y-16072317D02*
X13641628Y-16072317D01*
X13641628Y-16072317D02*
X13622581Y-16062793D01*
X13622581Y-16062793D02*
X13613057Y-16043746D01*
X13613057Y-16043746D02*
X13613057Y-16034222D01*
X13613057Y-16034222D02*
X13622581Y-16015174D01*
X13622581Y-16015174D02*
X13641628Y-16005650D01*
X13641628Y-16005650D02*
X13670200Y-16005650D01*
X13670200Y-16005650D02*
X13689248Y-16015174D01*
X13765438Y-16215174D02*
X13774962Y-16205650D01*
X13774962Y-16205650D02*
X13794009Y-16177079D01*
X13794009Y-16177079D02*
X13803533Y-16158031D01*
X13803533Y-16158031D02*
X13813057Y-16129460D01*
X13813057Y-16129460D02*
X13822581Y-16081841D01*
X13822581Y-16081841D02*
X13822581Y-16043746D01*
X13822581Y-16043746D02*
X13813057Y-15996127D01*
X13813057Y-15996127D02*
X13803533Y-15967555D01*
X13803533Y-15967555D02*
X13794009Y-15948508D01*
X13794009Y-15948508D02*
X13774962Y-15919936D01*
X13774962Y-15919936D02*
X13765438Y-15910412D01*
X14127343Y-16215174D02*
X14117819Y-16205650D01*
X14117819Y-16205650D02*
X14098771Y-16177079D01*
X14098771Y-16177079D02*
X14089248Y-16158031D01*
X14089248Y-16158031D02*
X14079724Y-16129460D01*
X14079724Y-16129460D02*
X14070200Y-16081841D01*
X14070200Y-16081841D02*
X14070200Y-16043746D01*
X14070200Y-16043746D02*
X14079724Y-15996127D01*
X14079724Y-15996127D02*
X14089248Y-15967555D01*
X14089248Y-15967555D02*
X14098771Y-15948508D01*
X14098771Y-15948508D02*
X14117819Y-15919936D01*
X14117819Y-15919936D02*
X14127343Y-15910412D01*
X14203533Y-16005650D02*
X14203533Y-16138984D01*
X14203533Y-16024698D02*
X14213057Y-16015174D01*
X14213057Y-16015174D02*
X14232105Y-16005650D01*
X14232105Y-16005650D02*
X14260676Y-16005650D01*
X14260676Y-16005650D02*
X14279724Y-16015174D01*
X14279724Y-16015174D02*
X14289248Y-16034222D01*
X14289248Y-16034222D02*
X14289248Y-16138984D01*
X14413057Y-16138984D02*
X14394009Y-16129460D01*
X14394009Y-16129460D02*
X14384486Y-16119936D01*
X14384486Y-16119936D02*
X14374962Y-16100888D01*
X14374962Y-16100888D02*
X14374962Y-16043746D01*
X14374962Y-16043746D02*
X14384486Y-16024698D01*
X14384486Y-16024698D02*
X14394009Y-16015174D01*
X14394009Y-16015174D02*
X14413057Y-16005650D01*
X14413057Y-16005650D02*
X14441629Y-16005650D01*
X14441629Y-16005650D02*
X14460676Y-16015174D01*
X14460676Y-16015174D02*
X14470200Y-16024698D01*
X14470200Y-16024698D02*
X14479724Y-16043746D01*
X14479724Y-16043746D02*
X14479724Y-16100888D01*
X14479724Y-16100888D02*
X14470200Y-16119936D01*
X14470200Y-16119936D02*
X14460676Y-16129460D01*
X14460676Y-16129460D02*
X14441629Y-16138984D01*
X14441629Y-16138984D02*
X14413057Y-16138984D01*
X14536867Y-16005650D02*
X14613057Y-16005650D01*
X14565438Y-15938984D02*
X14565438Y-16110412D01*
X14565438Y-16110412D02*
X14574962Y-16129460D01*
X14574962Y-16129460D02*
X14594009Y-16138984D01*
X14594009Y-16138984D02*
X14613057Y-16138984D01*
X14832105Y-16005650D02*
X14832105Y-16205650D01*
X14832105Y-16015174D02*
X14851152Y-16005650D01*
X14851152Y-16005650D02*
X14889248Y-16005650D01*
X14889248Y-16005650D02*
X14908295Y-16015174D01*
X14908295Y-16015174D02*
X14917819Y-16024698D01*
X14917819Y-16024698D02*
X14927343Y-16043746D01*
X14927343Y-16043746D02*
X14927343Y-16100888D01*
X14927343Y-16100888D02*
X14917819Y-16119936D01*
X14917819Y-16119936D02*
X14908295Y-16129460D01*
X14908295Y-16129460D02*
X14889248Y-16138984D01*
X14889248Y-16138984D02*
X14851152Y-16138984D01*
X14851152Y-16138984D02*
X14832105Y-16129460D01*
X15041629Y-16138984D02*
X15022581Y-16129460D01*
X15022581Y-16129460D02*
X15013057Y-16110412D01*
X15013057Y-16110412D02*
X15013057Y-15938984D01*
X15203533Y-16138984D02*
X15203533Y-16034222D01*
X15203533Y-16034222D02*
X15194010Y-16015174D01*
X15194010Y-16015174D02*
X15174962Y-16005650D01*
X15174962Y-16005650D02*
X15136867Y-16005650D01*
X15136867Y-16005650D02*
X15117819Y-16015174D01*
X15203533Y-16129460D02*
X15184486Y-16138984D01*
X15184486Y-16138984D02*
X15136867Y-16138984D01*
X15136867Y-16138984D02*
X15117819Y-16129460D01*
X15117819Y-16129460D02*
X15108295Y-16110412D01*
X15108295Y-16110412D02*
X15108295Y-16091365D01*
X15108295Y-16091365D02*
X15117819Y-16072317D01*
X15117819Y-16072317D02*
X15136867Y-16062793D01*
X15136867Y-16062793D02*
X15184486Y-16062793D01*
X15184486Y-16062793D02*
X15203533Y-16053269D01*
X15270200Y-16005650D02*
X15346390Y-16005650D01*
X15298771Y-15938984D02*
X15298771Y-16110412D01*
X15298771Y-16110412D02*
X15308295Y-16129460D01*
X15308295Y-16129460D02*
X15327343Y-16138984D01*
X15327343Y-16138984D02*
X15346390Y-16138984D01*
X15489248Y-16129460D02*
X15470200Y-16138984D01*
X15470200Y-16138984D02*
X15432105Y-16138984D01*
X15432105Y-16138984D02*
X15413057Y-16129460D01*
X15413057Y-16129460D02*
X15403533Y-16110412D01*
X15403533Y-16110412D02*
X15403533Y-16034222D01*
X15403533Y-16034222D02*
X15413057Y-16015174D01*
X15413057Y-16015174D02*
X15432105Y-16005650D01*
X15432105Y-16005650D02*
X15470200Y-16005650D01*
X15470200Y-16005650D02*
X15489248Y-16015174D01*
X15489248Y-16015174D02*
X15498771Y-16034222D01*
X15498771Y-16034222D02*
X15498771Y-16053269D01*
X15498771Y-16053269D02*
X15403533Y-16072317D01*
X15670200Y-16138984D02*
X15670200Y-15938984D01*
X15670200Y-16129460D02*
X15651152Y-16138984D01*
X15651152Y-16138984D02*
X15613057Y-16138984D01*
X15613057Y-16138984D02*
X15594010Y-16129460D01*
X15594010Y-16129460D02*
X15584486Y-16119936D01*
X15584486Y-16119936D02*
X15574962Y-16100888D01*
X15574962Y-16100888D02*
X15574962Y-16043746D01*
X15574962Y-16043746D02*
X15584486Y-16024698D01*
X15584486Y-16024698D02*
X15594010Y-16015174D01*
X15594010Y-16015174D02*
X15613057Y-16005650D01*
X15613057Y-16005650D02*
X15651152Y-16005650D01*
X15651152Y-16005650D02*
X15670200Y-16015174D01*
X15746391Y-16215174D02*
X15755914Y-16205650D01*
X15755914Y-16205650D02*
X15774962Y-16177079D01*
X15774962Y-16177079D02*
X15784486Y-16158031D01*
X15784486Y-16158031D02*
X15794010Y-16129460D01*
X15794010Y-16129460D02*
X15803533Y-16081841D01*
X15803533Y-16081841D02*
X15803533Y-16043746D01*
X15803533Y-16043746D02*
X15794010Y-15996127D01*
X15794010Y-15996127D02*
X15784486Y-15967555D01*
X15784486Y-15967555D02*
X15774962Y-15948508D01*
X15774962Y-15948508D02*
X15755914Y-15919936D01*
X15755914Y-15919936D02*
X15746391Y-15910412D01*
X8799899Y-16311500D02*
G75*
G03*
X8799899Y-16311500I-100000J0D01*
G01*
X9051152Y-16222031D02*
X9060676Y-16212508D01*
X9060676Y-16212508D02*
X9079723Y-16202984D01*
X9079723Y-16202984D02*
X9127342Y-16202984D01*
X9127342Y-16202984D02*
X9146390Y-16212508D01*
X9146390Y-16212508D02*
X9155914Y-16222031D01*
X9155914Y-16222031D02*
X9165438Y-16241079D01*
X9165438Y-16241079D02*
X9165438Y-16260127D01*
X9165438Y-16260127D02*
X9155914Y-16288698D01*
X9155914Y-16288698D02*
X9041628Y-16402984D01*
X9041628Y-16402984D02*
X9165438Y-16402984D01*
X9251152Y-16383936D02*
X9260676Y-16393460D01*
X9260676Y-16393460D02*
X9251152Y-16402984D01*
X9251152Y-16402984D02*
X9241628Y-16393460D01*
X9241628Y-16393460D02*
X9251152Y-16383936D01*
X9251152Y-16383936D02*
X9251152Y-16402984D01*
X9336866Y-16222031D02*
X9346390Y-16212508D01*
X9346390Y-16212508D02*
X9365438Y-16202984D01*
X9365438Y-16202984D02*
X9413057Y-16202984D01*
X9413057Y-16202984D02*
X9432104Y-16212508D01*
X9432104Y-16212508D02*
X9441628Y-16222031D01*
X9441628Y-16222031D02*
X9451152Y-16241079D01*
X9451152Y-16241079D02*
X9451152Y-16260127D01*
X9451152Y-16260127D02*
X9441628Y-16288698D01*
X9441628Y-16288698D02*
X9327342Y-16402984D01*
X9327342Y-16402984D02*
X9451152Y-16402984D01*
X9574961Y-16202984D02*
X9594009Y-16202984D01*
X9594009Y-16202984D02*
X9613057Y-16212508D01*
X9613057Y-16212508D02*
X9622581Y-16222031D01*
X9622581Y-16222031D02*
X9632104Y-16241079D01*
X9632104Y-16241079D02*
X9641628Y-16279174D01*
X9641628Y-16279174D02*
X9641628Y-16326793D01*
X9641628Y-16326793D02*
X9632104Y-16364888D01*
X9632104Y-16364888D02*
X9622581Y-16383936D01*
X9622581Y-16383936D02*
X9613057Y-16393460D01*
X9613057Y-16393460D02*
X9594009Y-16402984D01*
X9594009Y-16402984D02*
X9574961Y-16402984D01*
X9574961Y-16402984D02*
X9555914Y-16393460D01*
X9555914Y-16393460D02*
X9546390Y-16383936D01*
X9546390Y-16383936D02*
X9536866Y-16364888D01*
X9536866Y-16364888D02*
X9527342Y-16326793D01*
X9527342Y-16326793D02*
X9527342Y-16279174D01*
X9527342Y-16279174D02*
X9536866Y-16241079D01*
X9536866Y-16241079D02*
X9546390Y-16222031D01*
X9546390Y-16222031D02*
X9555914Y-16212508D01*
X9555914Y-16212508D02*
X9574961Y-16202984D01*
X9765438Y-16202984D02*
X9784485Y-16202984D01*
X9784485Y-16202984D02*
X9803533Y-16212508D01*
X9803533Y-16212508D02*
X9813057Y-16222031D01*
X9813057Y-16222031D02*
X9822581Y-16241079D01*
X9822581Y-16241079D02*
X9832104Y-16279174D01*
X9832104Y-16279174D02*
X9832104Y-16326793D01*
X9832104Y-16326793D02*
X9822581Y-16364888D01*
X9822581Y-16364888D02*
X9813057Y-16383936D01*
X9813057Y-16383936D02*
X9803533Y-16393460D01*
X9803533Y-16393460D02*
X9784485Y-16402984D01*
X9784485Y-16402984D02*
X9765438Y-16402984D01*
X9765438Y-16402984D02*
X9746390Y-16393460D01*
X9746390Y-16393460D02*
X9736866Y-16383936D01*
X9736866Y-16383936D02*
X9727342Y-16364888D01*
X9727342Y-16364888D02*
X9717819Y-16326793D01*
X9717819Y-16326793D02*
X9717819Y-16279174D01*
X9717819Y-16279174D02*
X9727342Y-16241079D01*
X9727342Y-16241079D02*
X9736866Y-16222031D01*
X9736866Y-16222031D02*
X9746390Y-16212508D01*
X9746390Y-16212508D02*
X9765438Y-16202984D01*
X9917819Y-16402984D02*
X9917819Y-16269650D01*
X9917819Y-16288698D02*
X9927342Y-16279174D01*
X9927342Y-16279174D02*
X9946390Y-16269650D01*
X9946390Y-16269650D02*
X9974962Y-16269650D01*
X9974962Y-16269650D02*
X9994009Y-16279174D01*
X9994009Y-16279174D02*
X10003533Y-16298222D01*
X10003533Y-16298222D02*
X10003533Y-16402984D01*
X10003533Y-16298222D02*
X10013057Y-16279174D01*
X10013057Y-16279174D02*
X10032104Y-16269650D01*
X10032104Y-16269650D02*
X10060676Y-16269650D01*
X10060676Y-16269650D02*
X10079723Y-16279174D01*
X10079723Y-16279174D02*
X10089247Y-16298222D01*
X10089247Y-16298222D02*
X10089247Y-16402984D01*
X10184485Y-16402984D02*
X10184485Y-16269650D01*
X10184485Y-16288698D02*
X10194009Y-16279174D01*
X10194009Y-16279174D02*
X10213057Y-16269650D01*
X10213057Y-16269650D02*
X10241628Y-16269650D01*
X10241628Y-16269650D02*
X10260676Y-16279174D01*
X10260676Y-16279174D02*
X10270200Y-16298222D01*
X10270200Y-16298222D02*
X10270200Y-16402984D01*
X10270200Y-16298222D02*
X10279723Y-16279174D01*
X10279723Y-16279174D02*
X10298771Y-16269650D01*
X10298771Y-16269650D02*
X10327342Y-16269650D01*
X10327342Y-16269650D02*
X10346390Y-16279174D01*
X10346390Y-16279174D02*
X10355914Y-16298222D01*
X10355914Y-16298222D02*
X10355914Y-16402984D01*
X10746390Y-16193460D02*
X10574962Y-16450603D01*
X11003533Y-16202984D02*
X11022581Y-16202984D01*
X11022581Y-16202984D02*
X11041628Y-16212508D01*
X11041628Y-16212508D02*
X11051152Y-16222031D01*
X11051152Y-16222031D02*
X11060676Y-16241079D01*
X11060676Y-16241079D02*
X11070200Y-16279174D01*
X11070200Y-16279174D02*
X11070200Y-16326793D01*
X11070200Y-16326793D02*
X11060676Y-16364888D01*
X11060676Y-16364888D02*
X11051152Y-16383936D01*
X11051152Y-16383936D02*
X11041628Y-16393460D01*
X11041628Y-16393460D02*
X11022581Y-16402984D01*
X11022581Y-16402984D02*
X11003533Y-16402984D01*
X11003533Y-16402984D02*
X10984485Y-16393460D01*
X10984485Y-16393460D02*
X10974962Y-16383936D01*
X10974962Y-16383936D02*
X10965438Y-16364888D01*
X10965438Y-16364888D02*
X10955914Y-16326793D01*
X10955914Y-16326793D02*
X10955914Y-16279174D01*
X10955914Y-16279174D02*
X10965438Y-16241079D01*
X10965438Y-16241079D02*
X10974962Y-16222031D01*
X10974962Y-16222031D02*
X10984485Y-16212508D01*
X10984485Y-16212508D02*
X11003533Y-16202984D01*
X11155914Y-16383936D02*
X11165438Y-16393460D01*
X11165438Y-16393460D02*
X11155914Y-16402984D01*
X11155914Y-16402984D02*
X11146390Y-16393460D01*
X11146390Y-16393460D02*
X11155914Y-16383936D01*
X11155914Y-16383936D02*
X11155914Y-16402984D01*
X11289247Y-16202984D02*
X11308295Y-16202984D01*
X11308295Y-16202984D02*
X11327343Y-16212508D01*
X11327343Y-16212508D02*
X11336866Y-16222031D01*
X11336866Y-16222031D02*
X11346390Y-16241079D01*
X11346390Y-16241079D02*
X11355914Y-16279174D01*
X11355914Y-16279174D02*
X11355914Y-16326793D01*
X11355914Y-16326793D02*
X11346390Y-16364888D01*
X11346390Y-16364888D02*
X11336866Y-16383936D01*
X11336866Y-16383936D02*
X11327343Y-16393460D01*
X11327343Y-16393460D02*
X11308295Y-16402984D01*
X11308295Y-16402984D02*
X11289247Y-16402984D01*
X11289247Y-16402984D02*
X11270200Y-16393460D01*
X11270200Y-16393460D02*
X11260676Y-16383936D01*
X11260676Y-16383936D02*
X11251152Y-16364888D01*
X11251152Y-16364888D02*
X11241628Y-16326793D01*
X11241628Y-16326793D02*
X11241628Y-16279174D01*
X11241628Y-16279174D02*
X11251152Y-16241079D01*
X11251152Y-16241079D02*
X11260676Y-16222031D01*
X11260676Y-16222031D02*
X11270200Y-16212508D01*
X11270200Y-16212508D02*
X11289247Y-16202984D01*
X11470200Y-16288698D02*
X11451152Y-16279174D01*
X11451152Y-16279174D02*
X11441628Y-16269650D01*
X11441628Y-16269650D02*
X11432104Y-16250603D01*
X11432104Y-16250603D02*
X11432104Y-16241079D01*
X11432104Y-16241079D02*
X11441628Y-16222031D01*
X11441628Y-16222031D02*
X11451152Y-16212508D01*
X11451152Y-16212508D02*
X11470200Y-16202984D01*
X11470200Y-16202984D02*
X11508295Y-16202984D01*
X11508295Y-16202984D02*
X11527343Y-16212508D01*
X11527343Y-16212508D02*
X11536866Y-16222031D01*
X11536866Y-16222031D02*
X11546390Y-16241079D01*
X11546390Y-16241079D02*
X11546390Y-16250603D01*
X11546390Y-16250603D02*
X11536866Y-16269650D01*
X11536866Y-16269650D02*
X11527343Y-16279174D01*
X11527343Y-16279174D02*
X11508295Y-16288698D01*
X11508295Y-16288698D02*
X11470200Y-16288698D01*
X11470200Y-16288698D02*
X11451152Y-16298222D01*
X11451152Y-16298222D02*
X11441628Y-16307746D01*
X11441628Y-16307746D02*
X11432104Y-16326793D01*
X11432104Y-16326793D02*
X11432104Y-16364888D01*
X11432104Y-16364888D02*
X11441628Y-16383936D01*
X11441628Y-16383936D02*
X11451152Y-16393460D01*
X11451152Y-16393460D02*
X11470200Y-16402984D01*
X11470200Y-16402984D02*
X11508295Y-16402984D01*
X11508295Y-16402984D02*
X11527343Y-16393460D01*
X11527343Y-16393460D02*
X11536866Y-16383936D01*
X11536866Y-16383936D02*
X11546390Y-16364888D01*
X11546390Y-16364888D02*
X11546390Y-16326793D01*
X11546390Y-16326793D02*
X11536866Y-16307746D01*
X11536866Y-16307746D02*
X11527343Y-16298222D01*
X11527343Y-16298222D02*
X11508295Y-16288698D01*
X11717819Y-16202984D02*
X11679723Y-16202984D01*
X11679723Y-16202984D02*
X11660676Y-16212508D01*
X11660676Y-16212508D02*
X11651152Y-16222031D01*
X11651152Y-16222031D02*
X11632104Y-16250603D01*
X11632104Y-16250603D02*
X11622581Y-16288698D01*
X11622581Y-16288698D02*
X11622581Y-16364888D01*
X11622581Y-16364888D02*
X11632104Y-16383936D01*
X11632104Y-16383936D02*
X11641628Y-16393460D01*
X11641628Y-16393460D02*
X11660676Y-16402984D01*
X11660676Y-16402984D02*
X11698771Y-16402984D01*
X11698771Y-16402984D02*
X11717819Y-16393460D01*
X11717819Y-16393460D02*
X11727343Y-16383936D01*
X11727343Y-16383936D02*
X11736866Y-16364888D01*
X11736866Y-16364888D02*
X11736866Y-16317269D01*
X11736866Y-16317269D02*
X11727343Y-16298222D01*
X11727343Y-16298222D02*
X11717819Y-16288698D01*
X11717819Y-16288698D02*
X11698771Y-16279174D01*
X11698771Y-16279174D02*
X11660676Y-16279174D01*
X11660676Y-16279174D02*
X11641628Y-16288698D01*
X11641628Y-16288698D02*
X11632104Y-16298222D01*
X11632104Y-16298222D02*
X11622581Y-16317269D01*
X11908295Y-16202984D02*
X11870200Y-16202984D01*
X11870200Y-16202984D02*
X11851152Y-16212508D01*
X11851152Y-16212508D02*
X11841628Y-16222031D01*
X11841628Y-16222031D02*
X11822581Y-16250603D01*
X11822581Y-16250603D02*
X11813057Y-16288698D01*
X11813057Y-16288698D02*
X11813057Y-16364888D01*
X11813057Y-16364888D02*
X11822581Y-16383936D01*
X11822581Y-16383936D02*
X11832104Y-16393460D01*
X11832104Y-16393460D02*
X11851152Y-16402984D01*
X11851152Y-16402984D02*
X11889247Y-16402984D01*
X11889247Y-16402984D02*
X11908295Y-16393460D01*
X11908295Y-16393460D02*
X11917819Y-16383936D01*
X11917819Y-16383936D02*
X11927343Y-16364888D01*
X11927343Y-16364888D02*
X11927343Y-16317269D01*
X11927343Y-16317269D02*
X11917819Y-16298222D01*
X11917819Y-16298222D02*
X11908295Y-16288698D01*
X11908295Y-16288698D02*
X11889247Y-16279174D01*
X11889247Y-16279174D02*
X11851152Y-16279174D01*
X11851152Y-16279174D02*
X11832104Y-16288698D01*
X11832104Y-16288698D02*
X11822581Y-16298222D01*
X11822581Y-16298222D02*
X11813057Y-16317269D01*
X12003533Y-16202984D02*
X12003533Y-16241079D01*
X12079724Y-16202984D02*
X12079724Y-16241079D01*
X12374962Y-16479174D02*
X12365438Y-16469650D01*
X12365438Y-16469650D02*
X12346390Y-16441079D01*
X12346390Y-16441079D02*
X12336866Y-16422031D01*
X12336866Y-16422031D02*
X12327343Y-16393460D01*
X12327343Y-16393460D02*
X12317819Y-16345841D01*
X12317819Y-16345841D02*
X12317819Y-16307746D01*
X12317819Y-16307746D02*
X12327343Y-16260127D01*
X12327343Y-16260127D02*
X12336866Y-16231555D01*
X12336866Y-16231555D02*
X12346390Y-16212508D01*
X12346390Y-16212508D02*
X12365438Y-16183936D01*
X12365438Y-16183936D02*
X12374962Y-16174412D01*
X12555914Y-16402984D02*
X12441628Y-16402984D01*
X12498771Y-16402984D02*
X12498771Y-16202984D01*
X12498771Y-16202984D02*
X12479724Y-16231555D01*
X12479724Y-16231555D02*
X12460676Y-16250603D01*
X12460676Y-16250603D02*
X12441628Y-16260127D01*
X12736866Y-16202984D02*
X12641628Y-16202984D01*
X12641628Y-16202984D02*
X12632105Y-16298222D01*
X12632105Y-16298222D02*
X12641628Y-16288698D01*
X12641628Y-16288698D02*
X12660676Y-16279174D01*
X12660676Y-16279174D02*
X12708295Y-16279174D01*
X12708295Y-16279174D02*
X12727343Y-16288698D01*
X12727343Y-16288698D02*
X12736866Y-16298222D01*
X12736866Y-16298222D02*
X12746390Y-16317269D01*
X12746390Y-16317269D02*
X12746390Y-16364888D01*
X12746390Y-16364888D02*
X12736866Y-16383936D01*
X12736866Y-16383936D02*
X12727343Y-16393460D01*
X12727343Y-16393460D02*
X12708295Y-16402984D01*
X12708295Y-16402984D02*
X12660676Y-16402984D01*
X12660676Y-16402984D02*
X12641628Y-16393460D01*
X12641628Y-16393460D02*
X12632105Y-16383936D01*
X12984486Y-16402984D02*
X12984486Y-16202984D01*
X13070200Y-16402984D02*
X13070200Y-16298222D01*
X13070200Y-16298222D02*
X13060676Y-16279174D01*
X13060676Y-16279174D02*
X13041628Y-16269650D01*
X13041628Y-16269650D02*
X13013057Y-16269650D01*
X13013057Y-16269650D02*
X12994009Y-16279174D01*
X12994009Y-16279174D02*
X12984486Y-16288698D01*
X13194009Y-16402984D02*
X13174962Y-16393460D01*
X13174962Y-16393460D02*
X13165438Y-16383936D01*
X13165438Y-16383936D02*
X13155914Y-16364888D01*
X13155914Y-16364888D02*
X13155914Y-16307746D01*
X13155914Y-16307746D02*
X13165438Y-16288698D01*
X13165438Y-16288698D02*
X13174962Y-16279174D01*
X13174962Y-16279174D02*
X13194009Y-16269650D01*
X13194009Y-16269650D02*
X13222581Y-16269650D01*
X13222581Y-16269650D02*
X13241628Y-16279174D01*
X13241628Y-16279174D02*
X13251152Y-16288698D01*
X13251152Y-16288698D02*
X13260676Y-16307746D01*
X13260676Y-16307746D02*
X13260676Y-16364888D01*
X13260676Y-16364888D02*
X13251152Y-16383936D01*
X13251152Y-16383936D02*
X13241628Y-16393460D01*
X13241628Y-16393460D02*
X13222581Y-16402984D01*
X13222581Y-16402984D02*
X13194009Y-16402984D01*
X13374962Y-16402984D02*
X13355914Y-16393460D01*
X13355914Y-16393460D02*
X13346390Y-16374412D01*
X13346390Y-16374412D02*
X13346390Y-16202984D01*
X13527343Y-16393460D02*
X13508295Y-16402984D01*
X13508295Y-16402984D02*
X13470200Y-16402984D01*
X13470200Y-16402984D02*
X13451152Y-16393460D01*
X13451152Y-16393460D02*
X13441628Y-16374412D01*
X13441628Y-16374412D02*
X13441628Y-16298222D01*
X13441628Y-16298222D02*
X13451152Y-16279174D01*
X13451152Y-16279174D02*
X13470200Y-16269650D01*
X13470200Y-16269650D02*
X13508295Y-16269650D01*
X13508295Y-16269650D02*
X13527343Y-16279174D01*
X13527343Y-16279174D02*
X13536867Y-16298222D01*
X13536867Y-16298222D02*
X13536867Y-16317269D01*
X13536867Y-16317269D02*
X13441628Y-16336317D01*
X13613057Y-16393460D02*
X13632105Y-16402984D01*
X13632105Y-16402984D02*
X13670200Y-16402984D01*
X13670200Y-16402984D02*
X13689248Y-16393460D01*
X13689248Y-16393460D02*
X13698771Y-16374412D01*
X13698771Y-16374412D02*
X13698771Y-16364888D01*
X13698771Y-16364888D02*
X13689248Y-16345841D01*
X13689248Y-16345841D02*
X13670200Y-16336317D01*
X13670200Y-16336317D02*
X13641628Y-16336317D01*
X13641628Y-16336317D02*
X13622581Y-16326793D01*
X13622581Y-16326793D02*
X13613057Y-16307746D01*
X13613057Y-16307746D02*
X13613057Y-16298222D01*
X13613057Y-16298222D02*
X13622581Y-16279174D01*
X13622581Y-16279174D02*
X13641628Y-16269650D01*
X13641628Y-16269650D02*
X13670200Y-16269650D01*
X13670200Y-16269650D02*
X13689248Y-16279174D01*
X13765438Y-16479174D02*
X13774962Y-16469650D01*
X13774962Y-16469650D02*
X13794009Y-16441079D01*
X13794009Y-16441079D02*
X13803533Y-16422031D01*
X13803533Y-16422031D02*
X13813057Y-16393460D01*
X13813057Y-16393460D02*
X13822581Y-16345841D01*
X13822581Y-16345841D02*
X13822581Y-16307746D01*
X13822581Y-16307746D02*
X13813057Y-16260127D01*
X13813057Y-16260127D02*
X13803533Y-16231555D01*
X13803533Y-16231555D02*
X13794009Y-16212508D01*
X13794009Y-16212508D02*
X13774962Y-16183936D01*
X13774962Y-16183936D02*
X13765438Y-16174412D01*
X14127343Y-16479174D02*
X14117819Y-16469650D01*
X14117819Y-16469650D02*
X14098771Y-16441079D01*
X14098771Y-16441079D02*
X14089248Y-16422031D01*
X14089248Y-16422031D02*
X14079724Y-16393460D01*
X14079724Y-16393460D02*
X14070200Y-16345841D01*
X14070200Y-16345841D02*
X14070200Y-16307746D01*
X14070200Y-16307746D02*
X14079724Y-16260127D01*
X14079724Y-16260127D02*
X14089248Y-16231555D01*
X14089248Y-16231555D02*
X14098771Y-16212508D01*
X14098771Y-16212508D02*
X14117819Y-16183936D01*
X14117819Y-16183936D02*
X14127343Y-16174412D01*
X14203533Y-16269650D02*
X14203533Y-16402984D01*
X14203533Y-16288698D02*
X14213057Y-16279174D01*
X14213057Y-16279174D02*
X14232105Y-16269650D01*
X14232105Y-16269650D02*
X14260676Y-16269650D01*
X14260676Y-16269650D02*
X14279724Y-16279174D01*
X14279724Y-16279174D02*
X14289248Y-16298222D01*
X14289248Y-16298222D02*
X14289248Y-16402984D01*
X14413057Y-16402984D02*
X14394009Y-16393460D01*
X14394009Y-16393460D02*
X14384486Y-16383936D01*
X14384486Y-16383936D02*
X14374962Y-16364888D01*
X14374962Y-16364888D02*
X14374962Y-16307746D01*
X14374962Y-16307746D02*
X14384486Y-16288698D01*
X14384486Y-16288698D02*
X14394009Y-16279174D01*
X14394009Y-16279174D02*
X14413057Y-16269650D01*
X14413057Y-16269650D02*
X14441629Y-16269650D01*
X14441629Y-16269650D02*
X14460676Y-16279174D01*
X14460676Y-16279174D02*
X14470200Y-16288698D01*
X14470200Y-16288698D02*
X14479724Y-16307746D01*
X14479724Y-16307746D02*
X14479724Y-16364888D01*
X14479724Y-16364888D02*
X14470200Y-16383936D01*
X14470200Y-16383936D02*
X14460676Y-16393460D01*
X14460676Y-16393460D02*
X14441629Y-16402984D01*
X14441629Y-16402984D02*
X14413057Y-16402984D01*
X14536867Y-16269650D02*
X14613057Y-16269650D01*
X14565438Y-16202984D02*
X14565438Y-16374412D01*
X14565438Y-16374412D02*
X14574962Y-16393460D01*
X14574962Y-16393460D02*
X14594009Y-16402984D01*
X14594009Y-16402984D02*
X14613057Y-16402984D01*
X14832105Y-16269650D02*
X14832105Y-16469650D01*
X14832105Y-16279174D02*
X14851152Y-16269650D01*
X14851152Y-16269650D02*
X14889248Y-16269650D01*
X14889248Y-16269650D02*
X14908295Y-16279174D01*
X14908295Y-16279174D02*
X14917819Y-16288698D01*
X14917819Y-16288698D02*
X14927343Y-16307746D01*
X14927343Y-16307746D02*
X14927343Y-16364888D01*
X14927343Y-16364888D02*
X14917819Y-16383936D01*
X14917819Y-16383936D02*
X14908295Y-16393460D01*
X14908295Y-16393460D02*
X14889248Y-16402984D01*
X14889248Y-16402984D02*
X14851152Y-16402984D01*
X14851152Y-16402984D02*
X14832105Y-16393460D01*
X15041629Y-16402984D02*
X15022581Y-16393460D01*
X15022581Y-16393460D02*
X15013057Y-16374412D01*
X15013057Y-16374412D02*
X15013057Y-16202984D01*
X15203533Y-16402984D02*
X15203533Y-16298222D01*
X15203533Y-16298222D02*
X15194010Y-16279174D01*
X15194010Y-16279174D02*
X15174962Y-16269650D01*
X15174962Y-16269650D02*
X15136867Y-16269650D01*
X15136867Y-16269650D02*
X15117819Y-16279174D01*
X15203533Y-16393460D02*
X15184486Y-16402984D01*
X15184486Y-16402984D02*
X15136867Y-16402984D01*
X15136867Y-16402984D02*
X15117819Y-16393460D01*
X15117819Y-16393460D02*
X15108295Y-16374412D01*
X15108295Y-16374412D02*
X15108295Y-16355365D01*
X15108295Y-16355365D02*
X15117819Y-16336317D01*
X15117819Y-16336317D02*
X15136867Y-16326793D01*
X15136867Y-16326793D02*
X15184486Y-16326793D01*
X15184486Y-16326793D02*
X15203533Y-16317269D01*
X15270200Y-16269650D02*
X15346390Y-16269650D01*
X15298771Y-16202984D02*
X15298771Y-16374412D01*
X15298771Y-16374412D02*
X15308295Y-16393460D01*
X15308295Y-16393460D02*
X15327343Y-16402984D01*
X15327343Y-16402984D02*
X15346390Y-16402984D01*
X15489248Y-16393460D02*
X15470200Y-16402984D01*
X15470200Y-16402984D02*
X15432105Y-16402984D01*
X15432105Y-16402984D02*
X15413057Y-16393460D01*
X15413057Y-16393460D02*
X15403533Y-16374412D01*
X15403533Y-16374412D02*
X15403533Y-16298222D01*
X15403533Y-16298222D02*
X15413057Y-16279174D01*
X15413057Y-16279174D02*
X15432105Y-16269650D01*
X15432105Y-16269650D02*
X15470200Y-16269650D01*
X15470200Y-16269650D02*
X15489248Y-16279174D01*
X15489248Y-16279174D02*
X15498771Y-16298222D01*
X15498771Y-16298222D02*
X15498771Y-16317269D01*
X15498771Y-16317269D02*
X15403533Y-16336317D01*
X15670200Y-16402984D02*
X15670200Y-16202984D01*
X15670200Y-16393460D02*
X15651152Y-16402984D01*
X15651152Y-16402984D02*
X15613057Y-16402984D01*
X15613057Y-16402984D02*
X15594010Y-16393460D01*
X15594010Y-16393460D02*
X15584486Y-16383936D01*
X15584486Y-16383936D02*
X15574962Y-16364888D01*
X15574962Y-16364888D02*
X15574962Y-16307746D01*
X15574962Y-16307746D02*
X15584486Y-16288698D01*
X15584486Y-16288698D02*
X15594010Y-16279174D01*
X15594010Y-16279174D02*
X15613057Y-16269650D01*
X15613057Y-16269650D02*
X15651152Y-16269650D01*
X15651152Y-16269650D02*
X15670200Y-16279174D01*
X15746391Y-16479174D02*
X15755914Y-16469650D01*
X15755914Y-16469650D02*
X15774962Y-16441079D01*
X15774962Y-16441079D02*
X15784486Y-16422031D01*
X15784486Y-16422031D02*
X15794010Y-16393460D01*
X15794010Y-16393460D02*
X15803533Y-16345841D01*
X15803533Y-16345841D02*
X15803533Y-16307746D01*
X15803533Y-16307746D02*
X15794010Y-16260127D01*
X15794010Y-16260127D02*
X15784486Y-16231555D01*
X15784486Y-16231555D02*
X15774962Y-16212508D01*
X15774962Y-16212508D02*
X15755914Y-16183936D01*
X15755914Y-16183936D02*
X15746391Y-16174412D01*
M02*
