M48
; DRILL file {KiCad 7.0.7} date Mon Sep 25 22:52:52 2023
; FORMAT={-:-/ absolute / metric / decimal}
; #@! TF.CreationDate,2023-09-25T22:52:52-04:00
; #@! TF.GenerationSoftware,Kicad,Pcbnew,7.0.7
; #@! TF.FileFunction,Plated,1,2,PTH
FMAT,2
METRIC
; #@! TA.AperFunction,Plated,PTH,ViaDrill
T1C0.400
; #@! TA.AperFunction,Plated,PTH,ComponentDrill
T2C0.750
; #@! TA.AperFunction,Plated,PTH,ComponentDrill
T3C0.800
; #@! TA.AperFunction,Plated,PTH,ComponentDrill
T4C0.900
; #@! TA.AperFunction,Plated,PTH,ComponentDrill
T5C0.950
; #@! TA.AperFunction,Plated,PTH,ComponentDrill
T6C1.000
%
G90
G05
T1
X106.569Y-46.521
X123.4Y-114.625
X124.7Y-123.0
X126.3Y-85.525
X127.43Y-144.29
X127.58Y-89.17
X127.6Y-135.325
X128.2Y-77.225
X128.2Y-87.9
X128.2Y-128.225
X128.4Y-131.4
X128.51Y-94.17
X129.0Y-117.6
X129.2Y-114.7
X129.5Y-86.3
X129.682Y-82.243
X130.326Y-111.855
X130.4Y-123.9
X130.425Y-120.1
X130.6Y-146.125
X130.62Y-85.232
X130.7Y-138.425
X130.8Y-132.6
X130.817Y-128.895
X130.975Y-104.4
X131.174Y-81.0
X131.225Y-112.876
X131.3Y-129.77
X131.302Y-95.378
X131.32Y-134.17
X131.57Y-93.16
X131.675Y-109.0
X131.73Y-94.36
X132.4Y-121.825
X133.346Y-93.691
X134.7Y-144.225
X136.325Y-108.325
X136.325Y-111.6
X136.5Y-71.628
X136.924Y-95.501
X137.275Y-107.7
X137.44Y-138.15
X137.5Y-125.7
X137.9Y-118.225
X138.375Y-72.39
X138.57Y-86.1
X138.725Y-105.7
X138.8Y-103.8
X138.9Y-116.3
X139.175Y-108.915
X139.6Y-129.0
X139.9Y-102.0
X139.92Y-73.078
X140.3Y-150.0
X140.99Y-72.352
X141.1Y-91.4
X141.3Y-118.725
X141.3Y-147.8
X141.5Y-92.5
X141.74Y-96.84
X142.4Y-107.7
X142.7Y-146.0
X142.775Y-93.925
X142.8Y-132.525
X142.9Y-101.3
X143.1Y-55.16
X143.114Y-62.9
X143.508Y-95.4
X143.8Y-105.625
X144.1Y-73.914
X144.1Y-140.2
X144.267Y-131.658
X144.32Y-116.82
X144.338Y-72.943
X144.576Y-100.1
X144.9Y-104.8
X145.0Y-92.475
X145.47Y-123.29
X145.654Y-52.6
X145.654Y-60.4
X145.9Y-91.2
X146.0Y-84.5
X146.2Y-93.825
X146.34Y-116.97
X146.8Y-105.425
X146.82Y-144.61
X146.9Y-140.7
X147.1Y-73.152
X147.1Y-77.185
X147.1Y-90.3
X147.2Y-99.4
X148.0Y-83.1
X148.149Y-95.724
X148.194Y-60.4
X148.2Y-50.0
X148.62Y-132.65
X149.3Y-105.525
X149.3Y-121.225
X149.7Y-86.0
X149.9Y-72.39
X150.6Y-112.2
X151.0Y-119.725
X151.1Y-95.4
X151.2Y-90.674
X151.7Y-138.025
X151.8Y-107.725
X152.3Y-93.1
X152.5Y-129.425
X152.67Y-120.03
X152.9Y-116.425
X152.99Y-102.79
X153.0Y-91.0
X153.2Y-105.625
X153.2Y-130.7
X153.69Y-89.65
X154.175Y-81.8
X154.175Y-92.425
X154.175Y-96.376
X154.6Y-72.39
X154.625Y-98.225
X155.624Y-73.152
X156.6Y-73.8
X157.3Y-132.525
X158.1Y-68.326
X158.6Y-147.225
X158.99Y-121.015
X159.1Y-144.125
X159.499Y-114.1
X159.5Y-103.125
X159.6Y-118.9
X159.92Y-111.72
X160.09Y-106.18
X160.1Y-134.225
X160.225Y-84.805
X160.225Y-98.825
X160.3Y-145.2
X160.675Y-60.7
X160.86Y-92.88
X161.05Y-87.71
X161.55Y-86.025
X161.8Y-130.6
X162.0Y-89.125
X162.325Y-97.325
X162.4Y-94.325
X163.0Y-84.725
X163.2Y-111.8
X163.4Y-96.525
X163.825Y-136.825
X164.1Y-89.825
X165.8Y-136.225
X166.1Y-106.6
X167.5Y-89.425
X178.764Y-50.26
X181.771Y-47.271
X183.829Y-54.075
T2
X125.13Y-96.295
X126.4Y-95.025
X127.67Y-96.295
X128.9Y-102.6
X128.9Y-104.6
X128.9Y-106.6
X128.9Y-108.6
X128.9Y-110.6
X131.96Y-131.425
X131.96Y-136.625
X131.96Y-141.795
X133.23Y-130.155
X133.23Y-135.355
X133.23Y-140.525
X134.5Y-131.425
X134.5Y-136.625
X134.5Y-141.795
X157.0Y-136.885
X157.0Y-142.025
X158.27Y-135.615
X158.27Y-140.755
X159.54Y-136.885
X159.54Y-142.025
X163.83Y-92.795
X165.1Y-91.525
X166.37Y-92.795
T3
X124.5Y-70.5
X124.5Y-88.5
X126.9Y-83.925
X126.9Y-91.545
X129.5Y-83.925
X129.5Y-91.545
X131.74Y-126.825
X132.38Y-50.0
X132.38Y-52.6
X132.38Y-55.2
X132.38Y-57.8
X132.38Y-60.4
X132.38Y-63.0
X136.2Y-45.7
X136.2Y-63.7
X137.04Y-130.125
X137.9Y-88.165
X137.9Y-98.325
X137.9Y-100.825
X137.9Y-110.985
X137.9Y-113.525
X137.9Y-123.685
X140.0Y-50.0
X140.0Y-52.6
X140.0Y-55.2
X140.0Y-57.8
X140.0Y-60.4
X140.0Y-63.0
X141.3Y-88.145
X141.3Y-98.305
X141.3Y-100.825
X141.3Y-110.985
X141.3Y-113.525
X141.3Y-123.685
X141.9Y-126.825
X143.7Y-80.325
X143.7Y-98.325
X144.0Y-103.3
X144.0Y-110.92
X144.0Y-113.49
X144.0Y-121.11
X145.8Y-88.145
X145.8Y-98.305
X146.6Y-103.3
X146.6Y-110.92
X146.6Y-113.49
X146.6Y-121.11
X147.2Y-130.125
X149.3Y-88.125
X149.3Y-98.285
X149.3Y-100.725
X149.3Y-110.885
X149.3Y-113.445
X149.3Y-123.605
X149.34Y-126.925
X149.34Y-130.125
X151.28Y-50.0
X151.28Y-52.6
X151.28Y-55.2
X151.28Y-57.8
X151.28Y-60.4
X151.3Y-63.0
X152.8Y-88.065
X152.8Y-98.225
X152.8Y-100.765
X152.8Y-110.925
X152.8Y-113.425
X152.8Y-123.585
X155.1Y-45.7
X155.1Y-63.7
X158.9Y-50.0
X158.9Y-52.6
X158.9Y-55.2
X158.9Y-57.8
X158.9Y-60.4
X158.92Y-63.0
X159.5Y-126.925
X159.5Y-130.125
X163.4Y-80.125
X163.4Y-87.745
X166.0Y-80.125
X166.0Y-87.745
T4
X92.16Y-51.387
X94.7Y-51.387
X99.769Y-45.187
X99.769Y-57.787
X102.309Y-45.187
X102.309Y-57.787
X107.52Y-51.387
X110.06Y-51.387
X136.775Y-141.45
X139.315Y-141.45
X144.384Y-135.25
X144.384Y-147.85
X146.924Y-135.25
X146.924Y-147.85
X152.135Y-141.45
X154.675Y-141.45
X181.395Y-51.312
X183.935Y-51.312
X189.005Y-45.112
X189.005Y-57.712
X191.545Y-45.112
X191.545Y-57.712
X196.755Y-51.312
X199.295Y-51.312
T5
X126.5Y-101.525
X126.5Y-104.025
X126.5Y-106.525
X126.5Y-109.025
X126.5Y-111.525
X126.5Y-118.025
X126.5Y-120.525
X126.5Y-123.025
X165.0Y-98.025
X165.0Y-100.525
X165.0Y-103.025
X165.0Y-118.525
X165.0Y-121.025
X165.0Y-123.525
T6
X97.277Y-48.924
X97.277Y-51.465
X97.277Y-54.005
X104.897Y-48.924
X104.897Y-51.465
X104.897Y-54.005
X116.159Y-45.01
X116.159Y-47.55
X116.159Y-50.09
X116.159Y-52.63
X116.159Y-55.17
X116.159Y-57.71
X116.159Y-60.25
X126.475Y-138.775
X126.475Y-141.275
X126.475Y-148.025
X126.475Y-150.525
X126.5Y-129.525
X126.5Y-132.025
X128.129Y-45.01
X128.129Y-47.55
X128.129Y-50.09
X128.129Y-52.63
X128.129Y-55.17
X128.129Y-57.71
X128.129Y-60.25
X133.784Y-150.525
X134.25Y-77.185
X134.25Y-79.725
X134.25Y-82.265
X134.25Y-84.805
X134.25Y-87.345
X134.25Y-89.885
X134.25Y-92.425
X134.25Y-94.965
X134.25Y-97.505
X134.25Y-100.045
X134.25Y-102.585
X134.25Y-105.125
X134.25Y-107.665
X134.25Y-110.205
X134.25Y-112.745
X134.25Y-115.285
X134.25Y-117.825
X134.25Y-120.365
X134.25Y-122.905
X136.284Y-150.525
X136.754Y-67.0
X139.294Y-67.0
X140.574Y-70.0
X141.834Y-67.0
X141.927Y-138.987
X141.927Y-141.528
X141.927Y-144.067
X143.114Y-70.0
X144.33Y-150.537
X144.374Y-67.0
X145.654Y-70.0
X146.83Y-150.537
X146.914Y-67.0
X148.194Y-70.0
X149.454Y-67.0
X149.547Y-138.987
X149.547Y-141.528
X149.547Y-144.067
X150.734Y-70.0
X151.994Y-67.0
X154.534Y-67.0
X155.034Y-150.55
X157.1Y-77.185
X157.1Y-79.725
X157.1Y-82.265
X157.1Y-84.805
X157.1Y-87.345
X157.1Y-89.885
X157.1Y-92.425
X157.1Y-94.965
X157.1Y-97.505
X157.1Y-100.045
X157.1Y-102.585
X157.1Y-105.125
X157.1Y-107.665
X157.1Y-110.205
X157.1Y-112.745
X157.1Y-115.285
X157.1Y-117.825
X157.1Y-120.365
X157.1Y-122.905
X157.534Y-150.55
X163.189Y-45.0
X163.189Y-47.54
X163.189Y-50.08
X163.189Y-52.62
X163.189Y-55.16
X163.189Y-57.7
X163.189Y-60.24
X165.0Y-109.525
X165.0Y-112.025
X165.0Y-130.025
X165.0Y-132.525
X165.0Y-139.025
X165.0Y-141.525
X165.0Y-148.025
X165.0Y-150.525
X175.159Y-45.0
X175.159Y-47.54
X175.159Y-50.08
X175.159Y-52.62
X175.159Y-55.16
X175.159Y-57.7
X175.159Y-60.24
X186.576Y-48.849
X186.576Y-51.389
X186.576Y-53.929
X194.196Y-48.849
X194.196Y-51.389
X194.196Y-53.929
T0
M30
